SplineFontDB: 1.0
FontName: DejaVuSansCondensed
FullName: DejaVu Sans Condensed
FamilyName: DejaVu Sans Condensed
Weight: Book
Copyright: Copyright (c) 2003 by Bitstream, Inc. All Rights Reserved.\nDejaVu changes are in public domain\n
Version: 2.0
ItalicAngle: 0
UnderlinePosition: -213
UnderlineWidth: 143
Ascent: 1556
Descent: 492
Order2: 1
NeedsXUIDChange: 1
FSType: 0
PfmFamily: 17
TTFWeight: 400
TTFWidth: 5
LineGap: 0
VLineGap: 0
Panose: 2 11 6 6 3 8 4 2 2 4
OS2TypoAscent: 1556
OS2TypoAOffset: 0
OS2TypoDescent: -492
OS2TypoDOffset: 0
OS2TypoLinegap: 410
OS2WinAscent: 1901
OS2WinAOffset: 0
OS2WinDescent: 483
OS2WinDOffset: 0
HheadAscent: 1901
HheadAOffset: 0
HheadDescent: -483
HheadDOffset: 0
OS2Vendor: 'PfEd'
ScriptLang: 2
 1 latn 1 dflt 
 1 DFLT 1 dflt 
TtfTable: prep 1384
\,q1Gs82ctq@j&-,m3ot"8A)`p'q2trWDfl"7mf@ndYclQ36V&"7M+5"n2EmmZmtBQ36LM"7,dc
lM^nM3WnS4"6]Xcjt[&#jAQ6DQ363*5m?=J"68Ao"loF]i\(DmrWD*X"5bj9h@p(JQ35qA"5=Fj
g3j(V]*$^b"4i>q"kJ)(e^R(meU7PL7g%5g)[4^i"4A+jdJa6prWCLG"4$lJc'AIUb8pi2rWC=b
"3NA$ao2C^Kb4L.*!=.q"2t0@_u9bTrWC"9"2Om<^]">LrWBk5"2+U8]D_oD&HfRu,mCjY"1YhP
"h=O6\$fQG\%;aOJ-<<g,mC__5lUqp5QnJ@"18%0Z^(^!rWBG)"0hb,YPnX,A-8qD"0AOL"fu5:
X/Zd9X!IkJ&d,+j5m=7a"/u2$Vu?dqrWAu0"/PnuUS85%UG;qG%KiD8"/(N;"e_.`TDeqaSI>[n
rWA]"".Yhu"e9**S!jllRi)<s&-J=-".9&iQ^/'aQi7)Q%0MlQ5m<O>"-euZ"dCD;P7@\Xq?)kA
]*4>r"-ARL"d$=uOFRIpN[4ji>m$-Q"HFc1NW'$=M_50lrWA'2",_gZ"c>SJM22NCM%g&J$Nl0=
,mB'7",;LA"bn<*Kb4E?rW@e)&I!gd"+h*eJc5b%rW@ZL"$lm8I=29JrW@Rs"+4V]HW1^`HR/c?
rW@HF"*b:XG74Rs$3PGM"*FAAF8>uZq?(a6"*"5ADuKiVrW?s[")Il<C(Wc9C/Y4KrW?h^"(r34
"_R`9Ac;dBrW?[0"(M63@6+Kuq?(%4"'tm.>Q+_.rW?;*$3aT/"'>m4<u)YW=#'kYrW?/"'a7T(
"&p!;;ZRF5;]#U7'E_3)'*V84"&K@-:]:Gk9b7J'rW>k+"&/[r91fj$9E##c8Iu%t'*CfH%0]<7
"%Wk'8,`T[Q30RA"%<+j6NShC6i$mO])t>l"$lhf5Q1aK4V@o^'E^K\%g>*/"$AXS"[#'M%g+m&
"$6D`3W9+?2\ZETq?&Z7&-Y!,"#`"E"Z?no2%'LC*Wn2-"#;S="Z$&Z0ae(;0+.q;%0J6k""l/3
"YL>g/I;M11'9$V,m>f0""G`4"Y(f#.1u_2-RApE5m&J\""#<%"XX`^,msf#rW=DE"!S6X+TW,X

StartChar: .notdef
Encoding: 0 -1 0
AltUni: 0
Width: 1167
Flags: W
Fore
153.2 -362 m 1,0,-1
 153.2 1444 l 1,1,-1
 1074.8 1444 l 1,2,-1
 1074.8 -362 l 1,3,-1
 153.2 -362 l 1,0,-1
256.7 -248 m 1,4,-1
 972.2 -248 l 1,5,-1
 972.2 1329 l 1,6,-1
 256.7 1329 l 1,7,-1
 256.7 -248 l 1,4,-1
EndSplineSet
EndChar
StartChar: exclam
Encoding: 33 33 33
Width: 779
Flags: W
Fore
319.15 254 m 1,0,-1
 501.85 254 l 1,1,-1
 501.85 0 l 1,2,-1
 319.15 0 l 1,3,-1
 319.15 254 l 1,0,-1
319.15 1493 m 1,4,-1
 501.85 1493 l 1,5,-1
 501.85 838 l 1,6,-1
 483.85 481 l 1,7,-1
 338.05 481 l 1,8,-1
 319.15 838 l 1,9,-1
 319.15 1493 l 1,4,-1
EndSplineSet
EndChar
StartChar: quotedbl
Encoding: 34 34 34
Width: 894
Flags: W
Fore
377.4 1493 m 1,0,-1
 377.4 938 l 1,1,-1
 224.4 938 l 1,2,-1
 224.4 1493 l 1,3,-1
 377.4 1493 l 1,0,-1
717.6 1493 m 1,4,-1
 717.6 938 l 1,5,-1
 564.6 938 l 1,6,-1
 564.6 1493 l 1,7,-1
 717.6 1493 l 1,4,-1
EndSplineSet
EndChar
StartChar: numbersign
Encoding: 35 35 35
Width: 1630
Flags: W
Fore
1028.15 901 m 1,0,-1
 766.25 901 l 1,1,-1
 690.65 567 l 1,2,-1
 954.35 567 l 1,3,-1
 1028.15 901 l 1,0,-1
893.15 1470 m 1,4,-1
 799.55 1055 l 1,5,-1
 1062.35 1055 l 1,6,-1
 1156.85 1470 l 1,7,-1
 1300.85 1470 l 1,8,-1
 1208.15 1055 l 1,9,-1
 1488.95 1055 l 1,10,-1
 1488.95 901 l 1,11,-1
 1173.05 901 l 1,12,-1
 1099.25 567 l 1,13,-1
 1385.45 567 l 1,14,-1
 1385.45 414 l 1,15,-1
 1064.15 414 l 1,16,-1
 970.55 0 l 1,17,-1
 826.55 0 l 1,18,-1
 919.25 414 l 1,19,-1
 655.55 414 l 1,20,-1
 562.85 0 l 1,21,-1
 417.95 0 l 1,22,-1
 511.55 414 l 1,23,-1
 228.05 414 l 1,24,-1
 228.05 567 l 1,25,-1
 544.85 567 l 1,26,-1
 620.45 901 l 1,27,-1
 330.65 901 l 1,28,-1
 330.65 1055 l 1,29,-1
 655.55 1055 l 1,30,-1
 747.35 1470 l 1,31,-1
 893.15 1470 l 1,4,-1
EndSplineSet
EndChar
StartChar: dollar
Encoding: 36 36 36
Width: 1237
Flags: W
Fore
687.95 -301 m 1,0,-1
 597.95 -301 l 1,1,-1
 597.05 0 l 1,2,3
 502.55 2 502.55 2 408.05 24.5 c 128,-1,4
 313.55 47 313.55 47 218.15 92 c 1,5,-1
 218.15 272 l 1,6,7
 309.95 208 309.95 208 404 175.5 c 128,-1,8
 498.05 143 498.05 143 597.95 142 c 1,9,-1
 597.95 598 l 1,10,11
 399.05 634 399.05 634 308.6 720 c 128,-1,12
 218.15 806 218.15 806 218.15 956 c 0,13,14
 218.15 1119 218.15 1119 316.25 1213 c 128,-1,15
 414.35 1307 414.35 1307 597.95 1321 c 1,16,-1
 597.95 1556 l 1,17,-1
 687.95 1556 l 1,18,-1
 687.95 1324 l 1,19,20
 771.65 1320 771.65 1320 849.95 1304.5 c 128,-1,21
 928.25 1289 928.25 1289 1002.95 1262 c 1,22,-1
 1002.95 1087 l 1,23,24
 928.25 1129 928.25 1129 849.5 1152 c 128,-1,25
 770.75 1175 770.75 1175 687.95 1179 c 1,26,-1
 687.95 752 l 1,27,28
 892.25 717 892.25 717 988.55 627 c 128,-1,29
 1084.85 537 1084.85 537 1084.85 381 c 0,30,31
 1084.85 212 1084.85 212 982.7 114.5 c 128,-1,32
 880.55 17 880.55 17 687.95 2 c 1,33,-1
 687.95 -301 l 1,0,-1
597.95 770 m 1,34,-1
 597.95 1180 l 1,35,36
 493.55 1167 493.55 1167 438.65 1114 c 128,-1,37
 383.75 1061 383.75 1061 383.75 973 c 0,38,39
 383.75 887 383.75 887 434.6 839 c 128,-1,40
 485.45 791 485.45 791 597.95 770 c 1,34,-1
687.95 578 m 1,41,-1
 687.95 145 l 1,42,43
 802.25 162 802.25 162 860.3 217 c 128,-1,44
 918.35 272 918.35 272 918.35 362 c 0,45,46
 918.35 450 918.35 450 863 502 c 128,-1,47
 807.65 554 807.65 554 687.95 578 c 1,41,-1
EndSplineSet
EndChar
StartChar: percent
Encoding: 37 37 37
Width: 1848
Flags: W
Fore
1437.4 657 m 0,0,1
 1359.1 657 1359.1 657 1314.55 583 c 128,-1,2
 1270 509 1270 509 1270 377 c 0,3,4
 1270 247 1270 247 1314.55 172.5 c 128,-1,5
 1359.1 98 1359.1 98 1437.4 98 c 0,6,7
 1513.9 98 1513.9 98 1558.45 172.5 c 128,-1,8
 1603 247 1603 247 1603 377 c 0,9,10
 1603 508 1603 508 1558.45 582.5 c 128,-1,11
 1513.9 657 1513.9 657 1437.4 657 c 0,0,1
1437.4 784 m 0,12,13
 1579.6 784 1579.6 784 1663.3 674 c 128,-1,14
 1747 564 1747 564 1747 377 c 0,15,16
 1747 190 1747 190 1662.85 80.5 c 128,-1,17
 1578.7 -29 1578.7 -29 1437.4 -29 c 0,18,19
 1293.4 -29 1293.4 -29 1209.7 80.5 c 128,-1,20
 1126 190 1126 190 1126 377 c 0,21,22
 1126 565 1126 565 1210.15 674.5 c 128,-1,23
 1294.3 784 1294.3 784 1437.4 784 c 0,12,13
508.6 1393 m 0,24,25
 431.2 1393 431.2 1393 386.65 1318.5 c 128,-1,26
 342.1 1244 342.1 1244 342.1 1114 c 0,27,28
 342.1 982 342.1 982 386.2 908 c 128,-1,29
 430.3 834 430.3 834 508.6 834 c 0,30,31
 586.9 834 586.9 834 631.45 908 c 128,-1,32
 676 982 676 982 676 1114 c 0,33,34
 676 1243 676 1243 631 1318 c 128,-1,35
 586 1393 586 1393 508.6 1393 c 0,24,25
1321.3 1520 m 1,36,-1
 1465.3 1520 l 1,37,-1
 624.7 -29 l 1,38,-1
 480.7 -29 l 1,39,-1
 1321.3 1520 l 1,36,-1
508.6 1520 m 0,40,41
 650.8 1520 650.8 1520 735.4 1410.5 c 128,-1,42
 820 1301 820 1301 820 1114 c 0,43,44
 820 925 820 925 735.85 816 c 128,-1,45
 651.7 707 651.7 707 508.6 707 c 0,46,47
 365.5 707 365.5 707 282.25 816.5 c 128,-1,48
 199 926 199 926 199 1114 c 0,49,50
 199 1300 199 1300 282.7 1410 c 128,-1,51
 366.4 1520 366.4 1520 508.6 1520 c 0,40,41
EndSplineSet
EndChar
StartChar: ampersand
Encoding: 38 38 38
Width: 1520
Flags: W
Fore
531.35 803 m 1,0,1
 449.45 722 449.45 722 411.2 641.5 c 128,-1,2
 372.95 561 372.95 561 372.95 473 c 0,3,4
 372.95 327 372.95 327 468.35 230 c 128,-1,5
 563.75 133 563.75 133 707.75 133 c 0,6,7
 793.25 133 793.25 133 867.95 164.5 c 128,-1,8
 942.65 196 942.65 196 1008.35 260 c 1,9,-1
 531.35 803 l 1,0,1
658.25 915 m 2,10,-1
 1115.45 395 l 1,11,12
 1168.55 484 1168.55 484 1198.25 585.5 c 128,-1,13
 1227.95 687 1227.95 687 1233.35 801 c 1,14,-1
 1400.75 801 l 1,15,16
 1389.95 669 1389.95 669 1343.15 540 c 128,-1,17
 1296.35 411 1296.35 411 1212.65 285 c 1,18,-1
 1463.75 0 l 1,19,-1
 1236.95 0 l 1,20,-1
 1108.25 147 l 1,21,22
 1014.65 58 1014.65 58 912.05 14.5 c 128,-1,23
 809.45 -29 809.45 -29 691.55 -29 c 0,24,25
 474.65 -29 474.65 -29 336.95 108.5 c 128,-1,26
 199.25 246 199.25 246 199.25 461 c 0,27,28
 199.25 589 199.25 589 259.55 701.5 c 128,-1,29
 319.85 814 319.85 814 440.45 913 c 1,30,31
 397.25 976 397.25 976 374.75 1038.5 c 128,-1,32
 352.25 1101 352.25 1101 352.25 1161 c 0,33,34
 352.25 1323 352.25 1323 452.15 1421.5 c 128,-1,35
 552.05 1520 552.05 1520 717.65 1520 c 0,36,37
 792.35 1520 792.35 1520 866.6 1502 c 128,-1,38
 940.85 1484 940.85 1484 1017.35 1448 c 1,39,-1
 1017.35 1266 l 1,40,41
 939.05 1313 939.05 1313 867.95 1337.5 c 128,-1,42
 796.85 1362 796.85 1362 735.65 1362 c 0,43,44
 641.15 1362 641.15 1362 582.2 1306.5 c 128,-1,45
 523.25 1251 523.25 1251 523.25 1163 c 0,46,47
 523.25 1112 523.25 1112 549.8 1060.5 c 128,-1,48
 576.35 1009 576.35 1009 658.25 915 c 2,10,-1
EndSplineSet
EndChar
StartChar: quotesingle
Encoding: 39 39 39
Width: 534
Flags: W
Fore
358.5 1493 m 1,0,-1
 358.5 938 l 1,1,-1
 205.5 938 l 1,2,-1
 205.5 1493 l 1,3,-1
 358.5 1493 l 1,0,-1
EndSplineSet
EndChar
StartChar: parenleft
Encoding: 40 40 40
Width: 759
Flags: W
Fore
612.05 1554 m 1,0,1
 491.45 1324 491.45 1324 432.95 1099 c 128,-1,2
 374.45 874 374.45 874 374.45 643 c 0,3,4
 374.45 412 374.45 412 433.4 185.5 c 128,-1,5
 492.35 -41 492.35 -41 612.05 -270 c 1,6,-1
 468.05 -270 l 1,7,8
 333.05 -35 333.05 -35 266 192 c 128,-1,9
 198.95 419 198.95 419 198.95 643 c 0,10,11
 198.95 866 198.95 866 265.55 1092 c 128,-1,12
 332.15 1318 332.15 1318 468.05 1554 c 1,13,-1
 612.05 1554 l 1,0,1
EndSplineSet
EndChar
StartChar: parenright
Encoding: 41 41 41
Width: 758
Flags: W
Fore
186.95 1554 m 1,0,-1
 330.95 1554 l 1,1,2
 465.95 1318 465.95 1318 533 1092 c 128,-1,3
 600.05 866 600.05 866 600.05 643 c 0,4,5
 600.05 419 600.05 419 533 192 c 128,-1,6
 465.95 -35 465.95 -35 330.95 -270 c 1,7,-1
 186.95 -270 l 1,8,9
 306.65 -41 306.65 -41 365.6 185.5 c 128,-1,10
 424.55 412 424.55 412 424.55 643 c 0,11,12
 424.55 874 424.55 874 365.6 1099 c 128,-1,13
 306.65 1324 306.65 1324 186.95 1554 c 1,0,-1
EndSplineSet
EndChar
StartChar: asterisk
Encoding: 42 42 42
Width: 972
Flags: W
Fore
917.9 1247 m 1,0,-1
 594.8 1053 l 1,1,-1
 917.9 858 l 1,2,-1
 865.7 760 l 1,3,-1
 563.3 963 l 1,4,-1
 563.3 586 l 1,5,-1
 460.7 586 l 1,6,-1
 460.7 963 l 1,7,-1
 158.3 760 l 1,8,-1
 106.1 858 l 1,9,-1
 429.2 1053 l 1,10,-1
 106.1 1247 l 1,11,-1
 158.3 1346 l 1,12,-1
 460.7 1143 l 1,13,-1
 460.7 1520 l 1,14,-1
 563.3 1520 l 1,15,-1
 563.3 1143 l 1,16,-1
 865.7 1346 l 1,17,-1
 917.9 1247 l 1,0,-1
EndSplineSet
EndChar
StartChar: plus
Encoding: 43 43 43
Width: 1630
Flags: W
Fore
933.6 1284 m 1,0,-1
 933.6 727 l 1,1,-1
 1434.9 727 l 1,2,-1
 1434.9 557 l 1,3,-1
 933.6 557 l 1,4,-1
 933.6 0 l 1,5,-1
 782.4 0 l 1,6,-1
 782.4 557 l 1,7,-1
 281.1 557 l 1,8,-1
 281.1 727 l 1,9,-1
 782.4 727 l 1,10,-1
 782.4 1284 l 1,11,-1
 933.6 1284 l 1,0,-1
EndSplineSet
EndChar
StartChar: comma
Encoding: 44 44 44
Width: 616
Flags: W
Fore
246.45 254 m 1,0,-1
 436.35 254 l 1,1,-1
 436.35 82 l 1,2,-1
 288.75 -238 l 1,3,-1
 172.65 -238 l 1,4,-1
 246.45 82 l 1,5,-1
 246.45 254 l 1,0,-1
EndSplineSet
EndChar
StartChar: hyphen
Encoding: 45 45 45
Width: 702
Flags: W
Fore
126.95 643 m 1,0,-1
 612.05 643 l 1,1,-1
 612.05 479 l 1,2,-1
 126.95 479 l 1,3,-1
 126.95 643 l 1,0,-1
EndSplineSet
KernsSLIFO: 256 -45 0 0 258 -45 0 0 260 -45 0 0 356 -188 0 0 286 75 0 0 253 -36 0 0 221 -243 0 0 210 57 0 0 212 57 0 0 211 57 0 0 193 -45 0 0 194 -45 0 0 376 -243 0 0 255 -36 0 0 213 57 0 0 195 -45 0 0 192 -45 0 0 245 38 0 0 246 38 0 0 244 38 0 0 242 38 0 0 243 38 0 0 214 57 0 0 196 -45 0 0 121 -36 0 0 118 -55 0 0 111 38 0 0 89 -243 0 0 88 -102 0 0 87 -83 0 0 86 -120 0 0 84 -188 0 0 81 75 0 0 79 57 0 0 74 114 0 0 71 75 0 0 66 -73 0 0 65 -45 0 0
EndChar
StartChar: period
Encoding: 46 46 46
Width: 618
Flags: W
Fore
229.55 254 m 1,0,-1
 419.45 254 l 1,1,-1
 419.45 0 l 1,2,-1
 229.55 0 l 1,3,-1
 229.55 254 l 1,0,-1
EndSplineSet
EndChar
StartChar: slash
Encoding: 47 47 47
Width: 655
Flags: W
Fore
502.5 1493 m 1,0,-1
 655.5 1493 l 1,1,-1
 187.5 -190 l 1,2,-1
 34.5 -190 l 1,3,-1
 502.5 1493 l 1,0,-1
EndSplineSet
EndChar
StartChar: zero
Encoding: 48 48 48
Width: 1237
Flags: W
Fore
651 1360 m 0,0,1
 510.6 1360 510.6 1360 439.95 1206.5 c 128,-1,2
 369.3 1053 369.3 1053 369.3 745 c 0,3,4
 369.3 438 369.3 438 439.95 284.5 c 128,-1,5
 510.6 131 510.6 131 651 131 c 0,6,7
 792.3 131 792.3 131 862.95 284.5 c 128,-1,8
 933.6 438 933.6 438 933.6 745 c 0,9,10
 933.6 1053 933.6 1053 862.95 1206.5 c 128,-1,11
 792.3 1360 792.3 1360 651 1360 c 0,0,1
651 1520 m 0,12,13
 876.9 1520 876.9 1520 996.15 1321.5 c 128,-1,14
 1115.4 1123 1115.4 1123 1115.4 745 c 0,15,16
 1115.4 368 1115.4 368 996.15 169.5 c 128,-1,17
 876.9 -29 876.9 -29 651 -29 c 0,18,19
 425.1 -29 425.1 -29 305.85 169.5 c 128,-1,20
 186.6 368 186.6 368 186.6 745 c 0,21,22
 186.6 1123 186.6 1123 305.85 1321.5 c 128,-1,23
 425.1 1520 425.1 1520 651 1520 c 0,12,13
EndSplineSet
EndChar
StartChar: one
Encoding: 49 49 49
Width: 1239
Flags: W
Fore
295.55 170 m 1,0,-1
 592.55 170 l 1,1,-1
 592.55 1309 l 1,2,-1
 269.45 1237 l 1,3,-1
 269.45 1421 l 1,4,-1
 590.75 1493 l 1,5,-1
 772.55 1493 l 1,6,-1
 772.55 170 l 1,7,-1
 1069.55 170 l 1,8,-1
 1069.55 0 l 1,9,-1
 295.55 0 l 1,10,-1
 295.55 170 l 1,0,-1
EndSplineSet
EndChar
StartChar: two
Encoding: 50 50 50
Width: 1235
Flags: W
Fore
416.1 170 m 1,0,-1
 1050.6 170 l 1,1,-1
 1050.6 0 l 1,2,-1
 197.4 0 l 1,3,-1
 197.4 170 l 1,4,5
 300.9 289 300.9 289 479.55 489.5 c 128,-1,6
 658.2 690 658.2 690 704.1 748 c 0,7,8
 791.4 857 791.4 857 826.05 932.5 c 128,-1,9
 860.7 1008 860.7 1008 860.7 1081 c 0,10,11
 860.7 1200 860.7 1200 785.55 1275 c 128,-1,12
 710.4 1350 710.4 1350 589.8 1350 c 0,13,14
 504.3 1350 504.3 1350 409.35 1317 c 128,-1,15
 314.4 1284 314.4 1284 206.4 1217 c 1,16,-1
 206.4 1421 l 1,17,18
 316.2 1470 316.2 1470 411.6 1495 c 128,-1,19
 507 1520 507 1520 586.2 1520 c 0,20,21
 795 1520 795 1520 919.2 1404 c 128,-1,22
 1043.4 1288 1043.4 1288 1043.4 1094 c 0,23,24
 1043.4 1002 1043.4 1002 1012.35 919.5 c 128,-1,25
 981.3 837 981.3 837 899.4 725 c 1,26,27
 876.9 696 876.9 696 756.3 557.5 c 128,-1,28
 635.7 419 635.7 419 416.1 170 c 1,0,-1
EndSplineSet
EndChar
StartChar: three
Encoding: 51 51 51
Width: 1237
Flags: W
Fore
812.65 805 m 1,0,1
 943.15 774 943.15 774 1016.5 676 c 128,-1,2
 1089.85 578 1089.85 578 1089.85 434 c 0,3,4
 1089.85 213 1089.85 213 953.05 92 c 128,-1,5
 816.25 -29 816.25 -29 564.25 -29 c 0,6,7
 479.65 -29 479.65 -29 390.1 -10.5 c 128,-1,8
 300.55 8 300.55 8 205.15 45 c 1,9,-1
 205.15 240 l 1,10,11
 280.75 191 280.75 191 370.75 166 c 128,-1,12
 460.75 141 460.75 141 558.85 141 c 0,13,14
 729.85 141 729.85 141 819.4 216 c 128,-1,15
 908.95 291 908.95 291 908.95 434 c 0,16,17
 908.95 566 908.95 566 825.7 640.5 c 128,-1,18
 742.45 715 742.45 715 593.95 715 c 2,19,-1
 437.35 715 l 1,20,-1
 437.35 881 l 1,21,-1
 601.15 881 l 2,22,23
 735.25 881 735.25 881 806.35 940.5 c 128,-1,24
 877.45 1000 877.45 1000 877.45 1112 c 0,25,26
 877.45 1227 877.45 1227 804.1 1288.5 c 128,-1,27
 730.75 1350 730.75 1350 593.95 1350 c 0,28,29
 519.25 1350 519.25 1350 433.75 1332 c 128,-1,30
 348.25 1314 348.25 1314 245.65 1276 c 1,31,-1
 245.65 1456 l 1,32,33
 349.15 1488 349.15 1488 439.6 1504 c 128,-1,34
 530.05 1520 530.05 1520 610.15 1520 c 0,35,36
 817.15 1520 817.15 1520 937.75 1415.5 c 128,-1,37
 1058.35 1311 1058.35 1311 1058.35 1133 c 0,38,39
 1058.35 1009 1058.35 1009 994.45 923.5 c 128,-1,40
 930.55 838 930.55 838 812.65 805 c 1,0,1
EndSplineSet
EndChar
StartChar: four
Encoding: 52 52 52
Width: 1237
Flags: W
Fore
761 1317 m 1,0,-1
 302 520 l 1,1,-1
 761 520 l 1,2,-1
 761 1317 l 1,0,-1
713.3 1493 m 1,3,-1
 941.9 1493 l 1,4,-1
 941.9 520 l 1,5,-1
 1133.6 520 l 1,6,-1
 1133.6 352 l 1,7,-1
 941.9 352 l 1,8,-1
 941.9 0 l 1,9,-1
 761 0 l 1,10,-1
 761 352 l 1,11,-1
 154.4 352 l 1,12,-1
 154.4 547 l 1,13,-1
 713.3 1493 l 1,3,-1
EndSplineSet
EndChar
StartChar: five
Encoding: 53 53 53
Width: 1236
Flags: W
Fore
263 1493 m 1,0,-1
 976.7 1493 l 1,1,-1
 976.7 1323 l 1,2,-1
 429.5 1323 l 1,3,-1
 429.5 957 l 1,4,5
 469.1 972 469.1 972 508.7 979.5 c 128,-1,6
 548.3 987 548.3 987 587.9 987 c 0,7,8
 812.9 987 812.9 987 944.3 850 c 128,-1,9
 1075.7 713 1075.7 713 1075.7 479 c 0,10,11
 1075.7 238 1075.7 238 940.7 104.5 c 128,-1,12
 805.7 -29 805.7 -29 560 -29 c 0,13,14
 475.4 -29 475.4 -29 387.65 -13 c 128,-1,15
 299.9 3 299.9 3 206.3 35 c 1,16,-1
 206.3 238 l 1,17,18
 287.3 189 287.3 189 373.7 165 c 128,-1,19
 460.1 141 460.1 141 556.4 141 c 0,20,21
 712.1 141 712.1 141 803 232 c 128,-1,22
 893.9 323 893.9 323 893.9 479 c 0,23,24
 893.9 635 893.9 635 803 726 c 128,-1,25
 712.1 817 712.1 817 556.4 817 c 0,26,27
 483.5 817 483.5 817 411.05 799 c 128,-1,28
 338.6 781 338.6 781 263 743 c 1,29,-1
 263 1493 l 1,0,-1
EndSplineSet
EndChar
StartChar: six
Encoding: 54 54 54
Width: 1238
Flags: W
Fore
674.25 827 m 0,0,1
 551.85 827 551.85 827 480.3 734 c 128,-1,2
 408.75 641 408.75 641 408.75 479 c 0,3,4
 408.75 318 408.75 318 480.3 224.5 c 128,-1,5
 551.85 131 551.85 131 674.25 131 c 0,6,7
 796.65 131 796.65 131 868.2 224.5 c 128,-1,8
 939.75 318 939.75 318 939.75 479 c 0,9,10
 939.75 641 939.75 641 868.2 734 c 128,-1,11
 796.65 827 796.65 827 674.25 827 c 0,0,1
1035.15 1460 m 1,12,-1
 1035.15 1276 l 1,13,14
 966.75 1312 966.75 1312 897 1331 c 128,-1,15
 827.25 1350 827.25 1350 758.85 1350 c 0,16,17
 578.85 1350 578.85 1350 483.9 1215 c 128,-1,18
 388.95 1080 388.95 1080 375.45 807 c 1,19,20
 428.55 894 428.55 894 508.65 940.5 c 128,-1,21
 588.75 987 588.75 987 685.05 987 c 0,22,23
 887.55 987 887.55 987 1005 850.5 c 128,-1,24
 1122.45 714 1122.45 714 1122.45 479 c 0,25,26
 1122.45 249 1122.45 249 1000.05 110 c 128,-1,27
 877.65 -29 877.65 -29 674.25 -29 c 0,28,29
 441.15 -29 441.15 -29 317.85 169.5 c 128,-1,30
 194.55 368 194.55 368 194.55 745 c 0,31,32
 194.55 1099 194.55 1099 345.75 1309.5 c 128,-1,33
 496.95 1520 496.95 1520 751.65 1520 c 0,34,35
 820.05 1520 820.05 1520 889.8 1505 c 128,-1,36
 959.55 1490 959.55 1490 1035.15 1460 c 1,12,-1
EndSplineSet
EndChar
StartChar: seven
Encoding: 55 55 55
Width: 1237
Flags: W
Fore
216 1493 m 1,0,-1
 1080 1493 l 1,1,-1
 1080 1407 l 1,2,-1
 592.2 0 l 1,3,-1
 402.3 0 l 1,4,-1
 861.3 1323 l 1,5,-1
 216 1323 l 1,6,-1
 216 1493 l 1,0,-1
EndSplineSet
EndChar
StartChar: eight
Encoding: 56 56 56
Width: 1237
Flags: W
Fore
651 709 m 0,0,1
 521.4 709 521.4 709 447.15 632 c 128,-1,2
 372.9 555 372.9 555 372.9 420 c 0,3,4
 372.9 285 372.9 285 447.15 208 c 128,-1,5
 521.4 131 521.4 131 651 131 c 0,6,7
 780.6 131 780.6 131 855.3 208.5 c 128,-1,8
 930 286 930 286 930 420 c 0,9,10
 930 555 930 555 855.75 632 c 128,-1,11
 781.5 709 781.5 709 651 709 c 0,0,1
469.2 795 m 1,12,13
 352.2 827 352.2 827 286.95 916 c 128,-1,14
 221.7 1005 221.7 1005 221.7 1133 c 0,15,16
 221.7 1312 221.7 1312 336.45 1416 c 128,-1,17
 451.2 1520 451.2 1520 651 1520 c 0,18,19
 851.7 1520 851.7 1520 966 1416 c 128,-1,20
 1080.3 1312 1080.3 1312 1080.3 1133 c 0,21,22
 1080.3 1005 1080.3 1005 1015.05 916 c 128,-1,23
 949.8 827 949.8 827 833.7 795 c 1,24,25
 965.1 761 965.1 761 1038.45 662 c 128,-1,26
 1111.8 563 1111.8 563 1111.8 420 c 0,27,28
 1111.8 203 1111.8 203 992.55 87 c 128,-1,29
 873.3 -29 873.3 -29 651 -29 c 0,30,31
 428.7 -29 428.7 -29 309.45 87 c 128,-1,32
 190.2 203 190.2 203 190.2 420 c 0,33,34
 190.2 563 190.2 563 264 662 c 128,-1,35
 337.8 761 337.8 761 469.2 795 c 1,12,13
402.6 1114 m 0,36,37
 402.6 998 402.6 998 467.85 933 c 128,-1,38
 533.1 868 533.1 868 651 868 c 0,39,40
 768 868 768 868 834.15 933 c 128,-1,41
 900.3 998 900.3 998 900.3 1114 c 0,42,43
 900.3 1230 900.3 1230 834.15 1295 c 128,-1,44
 768 1360 768 1360 651 1360 c 0,45,46
 533.1 1360 533.1 1360 467.85 1295 c 128,-1,47
 402.6 1230 402.6 1230 402.6 1114 c 0,36,37
EndSplineSet
EndChar
StartChar: nine
Encoding: 57 57 57
Width: 1237
Flags: W
Fore
266.9 31 m 1,0,-1
 266.9 215 l 1,1,2
 335.3 179 335.3 179 405.5 160 c 128,-1,3
 475.7 141 475.7 141 543.2 141 c 0,4,5
 723.2 141 723.2 141 818.15 275.5 c 128,-1,6
 913.1 410 913.1 410 926.6 684 c 1,7,8
 874.4 598 874.4 598 794.3 552 c 128,-1,9
 714.2 506 714.2 506 617 506 c 0,10,11
 415.4 506 415.4 506 297.95 641.5 c 128,-1,12
 180.5 777 180.5 777 180.5 1012 c 0,13,14
 180.5 1242 180.5 1242 302.9 1381 c 128,-1,15
 425.3 1520 425.3 1520 628.7 1520 c 0,16,17
 861.8 1520 861.8 1520 984.65 1321.5 c 128,-1,18
 1107.5 1123 1107.5 1123 1107.5 745 c 0,19,20
 1107.5 392 1107.5 392 956.75 181.5 c 128,-1,21
 806 -29 806 -29 551.3 -29 c 0,22,23
 482.9 -29 482.9 -29 412.7 -14 c 128,-1,24
 342.5 1 342.5 1 266.9 31 c 1,0,-1
628.7 664 m 0,25,26
 751.1 664 751.1 664 822.65 757 c 128,-1,27
 894.2 850 894.2 850 894.2 1012 c 0,28,29
 894.2 1173 894.2 1173 822.65 1266.5 c 128,-1,30
 751.1 1360 751.1 1360 628.7 1360 c 0,31,32
 506.3 1360 506.3 1360 434.75 1266.5 c 128,-1,33
 363.2 1173 363.2 1173 363.2 1012 c 0,34,35
 363.2 850 363.2 850 434.75 757 c 128,-1,36
 506.3 664 506.3 664 628.7 664 c 0,25,26
EndSplineSet
EndChar
StartChar: colon
Encoding: 58 58 58
Width: 655
Flags: W
Fore
250.55 254 m 1,0,-1
 440.45 254 l 1,1,-1
 440.45 0 l 1,2,-1
 250.55 0 l 1,3,-1
 250.55 254 l 1,0,-1
250.55 1059 m 1,4,-1
 440.45 1059 l 1,5,-1
 440.45 805 l 1,6,-1
 250.55 805 l 1,7,-1
 250.55 1059 l 1,4,-1
EndSplineSet
EndChar
StartChar: semicolon
Encoding: 59 59 59
Width: 651
Flags: W
Fore
246.45 1059 m 1,0,-1
 436.35 1059 l 1,1,-1
 436.35 805 l 1,2,-1
 246.45 805 l 1,3,-1
 246.45 1059 l 1,0,-1
246.45 254 m 1,4,-1
 436.35 254 l 1,5,-1
 436.35 82 l 1,6,-1
 288.75 -238 l 1,7,-1
 172.65 -238 l 1,8,-1
 246.45 82 l 1,9,-1
 246.45 254 l 1,4,-1
EndSplineSet
EndChar
StartChar: less
Encoding: 60 60 60
Width: 1630
Flags: W
Fore
1434.9 1008 m 1,0,-1
 506.1 641 l 1,1,-1
 1434.9 276 l 1,2,-1
 1434.9 94 l 1,3,-1
 281.1 559 l 1,4,-1
 281.1 725 l 1,5,-1
 1434.9 1190 l 1,6,-1
 1434.9 1008 l 1,0,-1
EndSplineSet
EndChar
StartChar: equal
Encoding: 61 61 61
Width: 1630
Flags: W
Fore
281.1 930 m 1,0,-1
 1434.9 930 l 1,1,-1
 1434.9 762 l 1,2,-1
 281.1 762 l 1,3,-1
 281.1 930 l 1,0,-1
281.1 522 m 1,4,-1
 1434.9 522 l 1,5,-1
 1434.9 352 l 1,6,-1
 281.1 352 l 1,7,-1
 281.1 522 l 1,4,-1
EndSplineSet
EndChar
StartChar: greater
Encoding: 62 62 62
Width: 1630
Flags: W
Fore
281.1 1008 m 1,0,-1
 281.1 1190 l 1,1,-1
 1434.9 725 l 1,2,-1
 1434.9 559 l 1,3,-1
 281.1 94 l 1,4,-1
 281.1 276 l 1,5,-1
 1208.1 641 l 1,6,-1
 281.1 1008 l 1,0,-1
EndSplineSet
EndChar
StartChar: question
Encoding: 63 63 63
Width: 1032
Flags: W
Fore
406.45 254 m 1,0,-1
 589.15 254 l 1,1,-1
 589.15 0 l 1,2,-1
 406.45 0 l 1,3,-1
 406.45 254 l 1,0,-1
583.75 401 m 1,4,-1
 411.85 401 l 1,5,-1
 411.85 555 l 2,6,7
 411.85 656 411.85 656 437.05 721 c 128,-1,8
 462.25 786 462.25 786 543.25 872 c 1,9,-1
 624.25 961 l 1,10,11
 675.55 1014 675.55 1014 698.5 1061 c 128,-1,12
 721.45 1108 721.45 1108 721.45 1157 c 0,13,14
 721.45 1246 721.45 1246 662.5 1301 c 128,-1,15
 603.55 1356 603.55 1356 506.35 1356 c 0,16,17
 435.25 1356 435.25 1356 354.7 1321 c 128,-1,18
 274.15 1286 274.15 1286 186.85 1219 c 1,19,-1
 186.85 1407 l 1,20,21
 271.45 1464 271.45 1464 358.3 1492 c 128,-1,22
 445.15 1520 445.15 1520 537.85 1520 c 0,23,24
 703.45 1520 703.45 1520 803.8 1423 c 128,-1,25
 904.15 1326 904.15 1326 904.15 1167 c 0,26,27
 904.15 1091 904.15 1091 871.75 1022.5 c 128,-1,28
 839.35 954 839.35 954 758.35 868 c 2,29,-1
 679.15 782 l 2,30,31
 636.85 735 636.85 735 619.3 708.5 c 128,-1,32
 601.75 682 601.75 682 594.55 657 c 0,33,34
 589.15 636 589.15 636 586.45 606 c 128,-1,35
 583.75 576 583.75 576 583.75 524 c 2,36,-1
 583.75 401 l 1,4,-1
EndSplineSet
EndChar
StartChar: at
Encoding: 64 64 64
Width: 1945
Flags: W
Fore
787.8 537 m 0,0,1
 787.8 394 787.8 394 851.7 312.5 c 128,-1,2
 915.6 231 915.6 231 1027.2 231 c 0,3,4
 1137.9 231 1137.9 231 1201.35 313 c 128,-1,5
 1264.8 395 1264.8 395 1264.8 537 c 0,6,7
 1264.8 677 1264.8 677 1200 759.5 c 128,-1,8
 1135.2 842 1135.2 842 1025.4 842 c 0,9,10
 916.5 842 916.5 842 852.15 760 c 128,-1,11
 787.8 678 787.8 678 787.8 537 c 0,0,1
1278.3 238 m 1,12,13
 1224.3 161 1224.3 161 1154.55 124.5 c 128,-1,14
 1084.8 88 1084.8 88 992.1 88 c 0,15,16
 837.3 88 837.3 88 740.55 212.5 c 128,-1,17
 643.8 337 643.8 337 643.8 537 c 0,18,19
 643.8 737 643.8 737 741 862 c 128,-1,20
 838.2 987 838.2 987 992.1 987 c 0,21,22
 1084.8 987 1084.8 987 1155 949.5 c 128,-1,23
 1225.2 912 1225.2 912 1278.3 836 c 1,24,-1
 1278.3 967 l 1,25,-1
 1407 967 l 1,26,-1
 1407 231 l 1,27,28
 1538.4 253 1538.4 253 1612.65 364.5 c 128,-1,29
 1686.9 476 1686.9 476 1686.9 653 c 0,30,31
 1686.9 760 1686.9 760 1658.55 854 c 128,-1,32
 1630.2 948 1630.2 948 1572.6 1028 c 0,33,34
 1479 1159 1479 1159 1344.45 1228.5 c 128,-1,35
 1209.9 1298 1209.9 1298 1051.5 1298 c 0,36,37
 940.8 1298 940.8 1298 839.1 1265.5 c 128,-1,38
 737.4 1233 737.4 1233 651 1169 c 1,39,40
 509.7 1067 509.7 1067 430.05 901.5 c 128,-1,41
 350.4 736 350.4 736 350.4 543 c 0,42,43
 350.4 384 350.4 384 402.15 245 c 128,-1,44
 453.9 106 453.9 106 552 0 c 0,45,46
 646.5 -104 646.5 -104 770.7 -158.5 c 128,-1,47
 894.9 -213 894.9 -213 1036.2 -213 c 0,48,49
 1152.3 -213 1152.3 -213 1264.35 -169.5 c 128,-1,50
 1376.4 -126 1376.4 -126 1470 -45 c 1,51,-1
 1551 -156 l 1,52,53
 1438.5 -253 1438.5 -253 1305.75 -304.5 c 128,-1,54
 1173 -356 1173 -356 1036.2 -356 c 0,55,56
 869.7 -356 869.7 -356 722.1 -290.5 c 128,-1,57
 574.5 -225 574.5 -225 459.3 -100 c 0,58,59
 344.1 25 344.1 25 283.8 189.5 c 128,-1,60
 223.5 354 223.5 354 223.5 543 c 0,61,62
 223.5 725 223.5 725 284.7 890 c 128,-1,63
 345.9 1055 345.9 1055 459.3 1180 c 0,64,65
 575.4 1307 575.4 1307 727.5 1374.5 c 128,-1,66
 879.6 1442 879.6 1442 1049.7 1442 c 0,67,68
 1240.5 1442 1240.5 1442 1403.85 1355 c 128,-1,69
 1567.2 1268 1567.2 1268 1677.9 1108 c 0,70,71
 1745.4 1010 1745.4 1010 1780.95 895 c 128,-1,72
 1816.5 780 1816.5 780 1816.5 657 c 0,73,74
 1816.5 394 1816.5 394 1673.4 242 c 128,-1,75
 1530.3 90 1530.3 90 1278.3 84 c 1,76,-1
 1278.3 238 l 1,12,13
EndSplineSet
EndChar
StartChar: A
Encoding: 65 65 65
Width: 1330
Flags: W
Fore
700 1294 m 1,0,-1
 453.4 551 l 1,1,-1
 947.5 551 l 1,2,-1
 700 1294 l 1,0,-1
597.4 1493 m 1,3,-1
 803.5 1493 l 1,4,-1
 1315.6 0 l 1,5,-1
 1126.6 0 l 1,6,-1
 1004.2 383 l 1,7,-1
 398.5 383 l 1,8,-1
 276.1 0 l 1,9,-1
 84.4004 0 l 1,10,-1
 597.4 1493 l 1,3,-1
EndSplineSet
KernsSLIFO: 288 -36 0 0 284 -36 0 0 7923 -139 0 0 561 -36 0 0 562 -159 0 0 563 -139 0 0 375 -139 0 0 7813 -83 0 0 7811 -83 0 0 7809 -83 0 0 373 -83 0 0 539 -36 0 0 355 -36 0 0 493 -36 0 0 491 -36 0 0 337 -36 0 0 335 -36 0 0 333 -36 0 0 281 -36 0 0 279 -36 0 0 277 -36 0 0 275 -36 0 0 454 -36 0 0 273 -36 0 0 267 -36 0 0 265 -36 0 0 7922 -159 0 0 374 -159 0 0 7812 -112 0 0 7810 -112 0 0 7808 -112 0 0 372 -112 0 0 538 -159 0 0 354 -159 0 0 558 -36 0 0 492 -36 0 0 490 -36 0 0 336 -36 0 0 334 -36 0 0 332 -36 0 0 266 -36 0 0 264 -36 0 0 260 57 0 0 258 57 0 0 256 57 0 0 357 -36 0 0 356 -159 0 0 283 -36 0 0 271 -36 0 0 269 -36 0 0 268 -36 0 0 263 -36 0 0 262 -36 0 0 286 -36 0 0 253 -139 0 0 221 -159 0 0 210 -36 0 0 212 -36 0 0 211 -36 0 0 193 57 0 0 194 57 0 0 8222 47 0 0 376 -159 0 0 255 -139 0 0 8221 -253 0 0 8220 -264 0 0 213 -36 0 0 195 57 0 0 192 57 0 0 171 -73 0 0 245 -36 0 0 246 -36 0 0 244 -36 0 0 242 -36 0 0 243 -36 0 0 235 -36 0 0 234 -36 0 0 232 -36 0 0 233 -36 0 0 231 -36 0 0 214 -36 0 0 199 -36 0 0 196 57 0 0 121 -139 0 0 119 -83 0 0 118 -120 0 0 116 -36 0 0 113 -36 0 0 111 -36 0 0 102 -73 0 0 101 -36 0 0 100 -36 0 0 99 -36 0 0 89 -159 0 0 87 -112 0 0 86 -131 0 0 84 -159 0 0 81 -36 0 0 79 -36 0 0 71 -36 0 0 67 -36 0 0 65 57 0 0 58 -36 0 0 46 -36 0 0 45 -45 0 0
EndChar
StartChar: B
Encoding: 66 66 66
Width: 1337
Flags: W
Fore
435.75 713 m 1,0,-1
 435.75 166 l 1,1,-1
 727.35 166 l 2,2,3
 874.05 166 874.05 166 944.7 233.5 c 128,-1,4
 1015.35 301 1015.35 301 1015.35 440 c 0,5,6
 1015.35 580 1015.35 580 944.7 646.5 c 128,-1,7
 874.05 713 874.05 713 727.35 713 c 2,8,-1
 435.75 713 l 1,0,-1
435.75 1327 m 1,9,-1
 435.75 877 l 1,10,-1
 704.85 877 l 2,11,12
 838.05 877 838.05 877 903.3 932.5 c 128,-1,13
 968.55 988 968.55 988 968.55 1102 c 0,14,15
 968.55 1215 968.55 1215 903.3 1271 c 128,-1,16
 838.05 1327 838.05 1327 704.85 1327 c 2,17,-1
 435.75 1327 l 1,9,-1
253.95 1493 m 1,18,-1
 718.35 1493 l 2,19,20
 926.25 1493 926.25 1493 1038.75 1397 c 128,-1,21
 1151.25 1301 1151.25 1301 1151.25 1124 c 0,22,23
 1151.25 987 1151.25 987 1093.65 906 c 128,-1,24
 1036.05 825 1036.05 825 924.45 805 c 1,25,26
 1058.55 773 1058.55 773 1132.8 671.5 c 128,-1,27
 1207.05 570 1207.05 570 1207.05 418 c 0,28,29
 1207.05 218 1207.05 218 1084.65 109 c 128,-1,30
 962.25 0 962.25 0 736.35 0 c 2,31,-1
 253.95 0 l 1,32,-1
 253.95 1493 l 1,18,-1
EndSplineSet
KernsSLIFO: 558 -36 0 0 492 -36 0 0 490 -36 0 0 7922 -112 0 0 374 -112 0 0 7812 -73 0 0 7810 -73 0 0 7808 -73 0 0 372 -73 0 0 536 -36 0 0 348 -36 0 0 346 -36 0 0 336 -36 0 0 334 -36 0 0 332 -36 0 0 290 -36 0 0 288 -36 0 0 284 -36 0 0 266 -36 0 0 264 -36 0 0 268 -36 0 0 262 -36 0 0 350 -36 0 0 286 -36 0 0 221 -112 0 0 352 -36 0 0 210 -36 0 0 212 -36 0 0 211 -36 0 0 8222 -83 0 0 376 -112 0 0 8221 -112 0 0 8220 -112 0 0 213 -36 0 0 187 -36 0 0 171 -63 0 0 214 -36 0 0 199 -36 0 0 89 -112 0 0 87 -73 0 0 86 -63 0 0 83 -36 0 0 79 -36 0 0 71 -36 0 0 67 -36 0 0
EndChar
StartChar: C
Encoding: 67 67 67
Width: 1358
Flags: W
Fore
1258.8 1378 m 1,0,-1
 1258.8 1165 l 1,1,2
 1167 1260 1167 1260 1063.05 1307 c 128,-1,3
 959.1 1354 959.1 1354 842.1 1354 c 0,4,5
 611.7 1354 611.7 1354 489.3 1197.5 c 128,-1,6
 366.9 1041 366.9 1041 366.9 745 c 0,7,8
 366.9 450 366.9 450 489.3 293.5 c 128,-1,9
 611.7 137 611.7 137 842.1 137 c 0,10,11
 959.1 137 959.1 137 1063.05 184 c 128,-1,12
 1167 231 1167 231 1258.8 326 c 1,13,-1
 1258.8 115 l 1,14,15
 1163.4 43 1163.4 43 1056.75 7 c 128,-1,16
 950.1 -29 950.1 -29 831.3 -29 c 0,17,18
 526.2 -29 526.2 -29 350.7 178.5 c 128,-1,19
 175.2 386 175.2 386 175.2 745 c 0,20,21
 175.2 1105 175.2 1105 350.7 1312.5 c 128,-1,22
 526.2 1520 526.2 1520 831.3 1520 c 0,23,24
 951.9 1520 951.9 1520 1058.55 1484.5 c 128,-1,25
 1165.2 1449 1165.2 1449 1258.8 1378 c 1,0,-1
EndSplineSet
KernsSLIFO: 562 -36 0 0 7922 -36 0 0 374 -36 0 0 221 -36 0 0 376 -36 0 0 8221 38 0 0 187 -36 0 0 171 -36 0 0 89 -36 0 0
EndChar
StartChar: D
Encoding: 68 68 68
Width: 1502
Flags: W
Fore
445.55 1327 m 1,0,-1
 445.55 166 l 1,1,-1
 665.15 166 l 2,2,3
 943.25 166 943.25 166 1072.4 306 c 128,-1,4
 1201.55 446 1201.55 446 1201.55 748 c 0,5,6
 1201.55 1048 1201.55 1048 1072.4 1187.5 c 128,-1,7
 943.25 1327 943.25 1327 665.15 1327 c 2,8,-1
 445.55 1327 l 1,0,-1
263.75 1493 m 1,9,-1
 637.25 1493 l 2,10,11
 1027.85 1493 1027.85 1493 1210.55 1312.5 c 128,-1,12
 1393.25 1132 1393.25 1132 1393.25 748 c 0,13,14
 1393.25 362 1393.25 362 1209.65 181 c 128,-1,15
 1026.05 0 1026.05 0 637.25 0 c 2,16,-1
 263.75 0 l 1,17,-1
 263.75 1493 l 1,9,-1
EndSplineSet
KernsSLIFO: 7922 -112 0 0 562 -112 0 0 374 -112 0 0 260 -36 0 0 258 -36 0 0 256 -36 0 0 221 -112 0 0 193 -36 0 0 194 -36 0 0 8222 -188 0 0 376 -112 0 0 8221 -55 0 0 8220 -45 0 0 195 -36 0 0 192 -36 0 0 187 -36 0 0 171 -36 0 0 196 -36 0 0 89 -112 0 0 86 -36 0 0 65 -36 0 0
EndChar
StartChar: E
Encoding: 69 69 69
Width: 1232
Flags: W
Fore
249.1 1493 m 1,0,-1
 1098.7 1493 l 1,1,-1
 1098.7 1323 l 1,2,-1
 430.9 1323 l 1,3,-1
 430.9 881 l 1,4,-1
 1070.8 881 l 1,5,-1
 1070.8 711 l 1,6,-1
 430.9 711 l 1,7,-1
 430.9 170 l 1,8,-1
 1114.9 170 l 1,9,-1
 1114.9 0 l 1,10,-1
 249.1 0 l 1,11,-1
 249.1 1493 l 1,0,-1
EndSplineSet
EndChar
StartChar: F
Encoding: 70 70 70
Width: 1123
Flags: W
Fore
243.9 1493 m 1,0,-1
 1016.1 1493 l 1,1,-1
 1016.1 1323 l 1,2,-1
 425.7 1323 l 1,3,-1
 425.7 883 l 1,4,-1
 958.5 883 l 1,5,-1
 958.5 713 l 1,6,-1
 425.7 713 l 1,7,-1
 425.7 0 l 1,8,-1
 243.9 0 l 1,9,-1
 243.9 1493 l 1,0,-1
EndSplineSet
KernsSLIFO: 252 -112 0 0 229 -188 0 0 242 -73 0 0 244 -73 0 0 8222 -376 0 0 367 -112 0 0 245 -73 0 0 235 -112 0 0 249 -112 0 0 58 -159 0 0 224 -188 0 0 195 -188 0 0 234 -112 0 0 352 -36 0 0 341 -149 0 0 232 -112 0 0 196 -188 0 0 350 -36 0 0 193 -188 0 0 345 -149 0 0 251 -112 0 0 253 -188 0 0 227 -188 0 0 194 -188 0 0 65 -188 0 0 97 -188 0 0 228 -188 0 0 8220 -45 0 0 246 -73 0 0 250 -112 0 0 225 -188 0 0 46 -329 0 0 83 -36 0 0 84 -36 0 0 226 -188 0 0 233 -112 0 0 356 -36 0 0 283 -112 0 0 101 -112 0 0 105 -149 0 0 255 -188 0 0 111 -73 0 0 114 -149 0 0 117 -112 0 0 192 -188 0 0 121 -188 0 0 243 -73 0 0
EndChar
StartChar: G
Encoding: 71 71 71
Width: 1505
Flags: W
Fore
1173.8 213 m 1,0,-1
 1173.8 614 l 1,1,-1
 876.8 614 l 1,2,-1
 876.8 780 l 1,3,-1
 1353.8 780 l 1,4,-1
 1353.8 139 l 1,5,6
 1248.5 56 1248.5 56 1121.6 13.5 c 128,-1,7
 994.7 -29 994.7 -29 850.7 -29 c 0,8,9
 535.7 -29 535.7 -29 357.95 175.5 c 128,-1,10
 180.2 380 180.2 380 180.2 745 c 0,11,12
 180.2 1111 180.2 1111 357.95 1315.5 c 128,-1,13
 535.7 1520 535.7 1520 850.7 1520 c 0,14,15
 982.1 1520 982.1 1520 1100.45 1484 c 128,-1,16
 1218.8 1448 1218.8 1448 1318.7 1378 c 1,17,-1
 1318.7 1163 l 1,18,19
 1217.9 1258 1217.9 1258 1104.5 1306 c 128,-1,20
 991.1 1354 991.1 1354 866 1354 c 0,21,22
 619.4 1354 619.4 1354 495.65 1201 c 128,-1,23
 371.9 1048 371.9 1048 371.9 745 c 0,24,25
 371.9 443 371.9 443 495.65 290 c 128,-1,26
 619.4 137 619.4 137 866 137 c 0,27,28
 962.3 137 962.3 137 1037.9 155.5 c 128,-1,29
 1113.5 174 1113.5 174 1173.8 213 c 1,0,-1
EndSplineSet
KernsSLIFO: 356 -73 0 0 221 -102 0 0 8222 -55 0 0 376 -102 0 0 8221 -45 0 0 8220 -45 0 0 187 -36 0 0 171 -36 0 0 89 -102 0 0 84 -73 0 0
EndChar
StartChar: H
Encoding: 72 72 72
Width: 1463
Flags: W
Fore
257.9 1493 m 1,0,-1
 439.7 1493 l 1,1,-1
 439.7 881 l 1,2,-1
 1100.3 881 l 1,3,-1
 1100.3 1493 l 1,4,-1
 1282.1 1493 l 1,5,-1
 1282.1 0 l 1,6,-1
 1100.3 0 l 1,7,-1
 1100.3 711 l 1,8,-1
 439.7 711 l 1,9,-1
 439.7 0 l 1,10,-1
 257.9 0 l 1,11,-1
 257.9 1493 l 1,0,-1
EndSplineSet
KernsSLIFO: 8222 -73 0 0 8221 -63 0 0 8220 -73 0 0 46 -36 0 0
EndChar
StartChar: I
Encoding: 73 73 73
Width: 573
Flags: W
Fore
211.1 1493 m 1,0,-1
 392.9 1493 l 1,1,-1
 392.9 0 l 1,2,-1
 211.1 0 l 1,3,-1
 211.1 1493 l 1,0,-1
EndSplineSet
EndChar
StartChar: J
Encoding: 74 74 74
Width: 558
Flags: W
Fore
195.75 1493 m 1,0,-1
 377.55 1493 l 1,1,-1
 377.55 104 l 2,2,3
 377.55 -166 377.55 -166 285.3 -288 c 128,-1,4
 193.05 -410 193.05 -410 -11.25 -410 c 2,5,-1
 -80.5498 -410 l 1,6,-1
 -80.5498 -240 l 1,7,-1
 -23.8496 -240 l 2,8,9
 96.75 -240 96.75 -240 146.25 -165 c 128,-1,10
 195.75 -90 195.75 -90 195.75 104 c 2,11,-1
 195.75 1493 l 1,0,-1
EndSplineSet
KernsSLIFO: 193 -36 0 0 194 -36 0 0 8222 -112 0 0 8221 -63 0 0 8220 -73 0 0 195 -36 0 0 192 -36 0 0 187 -36 0 0 171 -36 0 0 196 -36 0 0 65 -36 0 0 45 -73 0 0
EndChar
StartChar: K
Encoding: 75 75 75
Width: 1288
Flags: W
Fore
260.25 1493 m 1,0,-1
 442.05 1493 l 1,1,-1
 442.05 862 l 1,2,-1
 1045.05 1493 l 1,3,-1
 1279.05 1493 l 1,4,-1
 612.15 797 l 1,5,-1
 1326.75 0 l 1,6,-1
 1087.35 0 l 1,7,-1
 442.05 719 l 1,8,-1
 442.05 0 l 1,9,-1
 260.25 0 l 1,10,-1
 260.25 1493 l 1,0,-1
EndSplineSet
KernsSLIFO: 367 -102 0 0 366 -55 0 0 356 -159 0 0 283 -102 0 0 268 -112 0 0 262 -112 0 0 253 -149 0 0 221 -73 0 0 217 -55 0 0 219 -55 0 0 218 -55 0 0 210 -112 0 0 212 -112 0 0 211 -112 0 0 193 -36 0 0 194 -36 0 0 376 -73 0 0 255 -149 0 0 8221 -63 0 0 8220 -63 0 0 213 -112 0 0 195 -36 0 0 192 -36 0 0 171 -131 0 0 252 -102 0 0 251 -102 0 0 249 -102 0 0 250 -102 0 0 245 -102 0 0 246 -102 0 0 244 -102 0 0 242 -102 0 0 243 -102 0 0 235 -102 0 0 234 -102 0 0 232 -102 0 0 233 -102 0 0 229 -36 0 0 227 -36 0 0 228 -36 0 0 226 -36 0 0 224 -36 0 0 225 -36 0 0 220 -55 0 0 214 -112 0 0 199 -112 0 0 196 -36 0 0 121 -149 0 0 117 -102 0 0 111 -102 0 0 101 -102 0 0 97 -36 0 0 89 -73 0 0 87 -73 0 0 85 -55 0 0 84 -159 0 0 79 -112 0 0 67 -112 0 0 65 -36 0 0 45 -215 0 0
EndChar
StartChar: L
Encoding: 76 76 76
Width: 1093
Flags: W
Fore
247.45 1493 m 1,0,-1
 429.25 1493 l 1,1,-1
 429.25 170 l 1,2,-1
 1083.55 170 l 1,3,-1
 1083.55 0 l 1,4,-1
 247.45 0 l 1,5,-1
 247.45 1493 l 1,0,-1
EndSplineSet
KernsSLIFO: 367 -36 0 0 366 -102 0 0 356 -282 0 0 283 -36 0 0 253 -188 0 0 221 -272 0 0 217 -102 0 0 219 -102 0 0 218 -102 0 0 210 -73 0 0 212 -73 0 0 211 -73 0 0 193 47 0 0 194 47 0 0 376 -272 0 0 255 -188 0 0 8221 -538 0 0 8220 -415 0 0 213 -73 0 0 195 47 0 0 192 47 0 0 252 -36 0 0 251 -36 0 0 249 -36 0 0 250 -36 0 0 245 -36 0 0 246 -36 0 0 244 -36 0 0 242 -36 0 0 243 -36 0 0 235 -36 0 0 234 -36 0 0 232 -36 0 0 233 -36 0 0 220 -102 0 0 214 -73 0 0 196 47 0 0 121 -188 0 0 117 -36 0 0 111 -36 0 0 101 -36 0 0 89 -272 0 0 87 -188 0 0 86 -225 0 0 85 -102 0 0 84 -282 0 0 79 -73 0 0 65 47 0 0 45 -36 0 0
EndChar
StartChar: M
Encoding: 77 77 77
Width: 1678
Flags: W
Fore
269.3 1493 m 1,0,-1
 540.2 1493 l 1,1,-1
 883.1 477 l 1,2,-1
 1227.8 1493 l 1,3,-1
 1498.7 1493 l 1,4,-1
 1498.7 0 l 1,5,-1
 1321.4 0 l 1,6,-1
 1321.4 1311 l 1,7,-1
 974.9 287 l 1,8,-1
 792.2 287 l 1,9,-1
 445.7 1311 l 1,10,-1
 445.7 0 l 1,11,-1
 269.3 0 l 1,12,-1
 269.3 1493 l 1,0,-1
EndSplineSet
EndChar
StartChar: N
Encoding: 78 78 78
Width: 1455
Flags: W
Fore
257.5 1493 m 1,0,-1
 502.3 1493 l 1,1,-1
 1098.1 244 l 1,2,-1
 1098.1 1493 l 1,3,-1
 1274.5 1493 l 1,4,-1
 1274.5 0 l 1,5,-1
 1029.7 0 l 1,6,-1
 433.9 1249 l 1,7,-1
 433.9 0 l 1,8,-1
 257.5 0 l 1,9,-1
 257.5 1493 l 1,0,-1
EndSplineSet
EndChar
StartChar: O
Encoding: 79 79 79
Width: 1531
Flags: W
Fore
806.9 1356 m 0,0,1
 608.9 1356 608.9 1356 492.35 1192 c 128,-1,2
 375.8 1028 375.8 1028 375.8 745 c 0,3,4
 375.8 463 375.8 463 492.35 299 c 128,-1,5
 608.9 135 608.9 135 806.9 135 c 0,6,7
 1004.9 135 1004.9 135 1120.55 299 c 128,-1,8
 1236.2 463 1236.2 463 1236.2 745 c 0,9,10
 1236.2 1028 1236.2 1028 1120.55 1192 c 128,-1,11
 1004.9 1356 1004.9 1356 806.9 1356 c 0,0,1
806.9 1520 m 0,12,13
 1089.5 1520 1089.5 1520 1258.7 1309.5 c 128,-1,14
 1427.9 1099 1427.9 1099 1427.9 745 c 0,15,16
 1427.9 392 1427.9 392 1258.7 181.5 c 128,-1,17
 1089.5 -29 1089.5 -29 806.9 -29 c 0,18,19
 523.4 -29 523.4 -29 353.75 181 c 128,-1,20
 184.1 391 184.1 391 184.1 745 c 0,21,22
 184.1 1099 184.1 1099 353.75 1309.5 c 128,-1,23
 523.4 1520 523.4 1520 806.9 1520 c 0,12,13
EndSplineSet
KernsSLIFO: 221 -112 0 0 193 -36 0 0 194 -36 0 0 8222 -188 0 0 376 -112 0 0 8221 -36 0 0 8220 -45 0 0 195 -36 0 0 192 -36 0 0 171 -36 0 0 196 -36 0 0 89 -112 0 0 88 -131 0 0 86 -36 0 0 65 -36 0 0 58 -36 0 0 46 -83 0 0 45 57 0 0
EndChar
StartChar: P
Encoding: 80 80 80
Width: 1179
Flags: W
Fore
431 1327 m 1,0,-1
 431 766 l 1,1,-1
 659.6 766 l 2,2,3
 786.5 766 786.5 766 855.8 839 c 128,-1,4
 925.1 912 925.1 912 925.1 1047 c 0,5,6
 925.1 1181 925.1 1181 855.8 1254 c 128,-1,7
 786.5 1327 786.5 1327 659.6 1327 c 2,8,-1
 431 1327 l 1,0,-1
249.2 1493 m 1,9,-1
 659.6 1493 l 2,10,11
 885.5 1493 885.5 1493 1001.15 1379.5 c 128,-1,12
 1116.8 1266 1116.8 1266 1116.8 1047 c 0,13,14
 1116.8 826 1116.8 826 1001.15 713 c 128,-1,15
 885.5 600 885.5 600 659.6 600 c 2,16,-1
 431 600 l 1,17,-1
 431 0 l 1,18,-1
 249.2 0 l 1,19,-1
 249.2 1493 l 1,9,-1
EndSplineSet
KernsSLIFO: 252 -36 0 0 229 -92 0 0 242 -73 0 0 45 -45 0 0 8222 -329 0 0 367 -36 0 0 245 -73 0 0 235 -73 0 0 226 -92 0 0 249 -36 0 0 221 -45 0 0 224 -92 0 0 195 -131 0 0 234 -73 0 0 341 -36 0 0 8221 38 0 0 232 -73 0 0 196 -131 0 0 241 -36 0 0 193 -131 0 0 345 -36 0 0 233 -73 0 0 251 -36 0 0 227 -92 0 0 194 -131 0 0 244 -73 0 0 353 -36 0 0 65 -131 0 0 97 -92 0 0 228 -92 0 0 8220 38 0 0 246 -73 0 0 250 -36 0 0 351 -36 0 0 376 -45 0 0 225 -92 0 0 46 -319 0 0 89 -45 0 0 101 -73 0 0 283 -73 0 0 171 -36 0 0 105 -45 0 0 111 -73 0 0 110 -36 0 0 115 -36 0 0 114 -36 0 0 117 -36 0 0 192 -131 0 0 328 -36 0 0 243 -73 0 0
EndChar
StartChar: Q
Encoding: 81 81 81
Width: 1531
Flags: W
Fore
806.9 1356 m 0,0,1
 608.9 1356 608.9 1356 492.35 1192 c 128,-1,2
 375.8 1028 375.8 1028 375.8 745 c 0,3,4
 375.8 463 375.8 463 492.35 299 c 128,-1,5
 608.9 135 608.9 135 806.9 135 c 0,6,7
 1004.9 135 1004.9 135 1120.55 299 c 128,-1,8
 1236.2 463 1236.2 463 1236.2 745 c 0,9,10
 1236.2 1028 1236.2 1028 1120.55 1192 c 128,-1,11
 1004.9 1356 1004.9 1356 806.9 1356 c 0,0,1
1061.6 27 m 1,12,-1
 1301 -264 l 1,13,-1
 1081.4 -264 l 1,14,-1
 882.5 -25 l 1,15,16
 852.8 -27 852.8 -27 837.05 -28 c 128,-1,17
 821.3 -29 821.3 -29 806.9 -29 c 0,18,19
 523.4 -29 523.4 -29 353.75 181.5 c 128,-1,20
 184.1 392 184.1 392 184.1 745 c 0,21,22
 184.1 1099 184.1 1099 353.75 1309.5 c 128,-1,23
 523.4 1520 523.4 1520 806.9 1520 c 0,24,25
 1089.5 1520 1089.5 1520 1258.7 1309.5 c 128,-1,26
 1427.9 1099 1427.9 1099 1427.9 745 c 0,27,28
 1427.9 485 1427.9 485 1333.85 300 c 128,-1,29
 1239.8 115 1239.8 115 1061.6 27 c 1,12,-1
EndSplineSet
KernsSLIFO: 8222 -131 0 0 8221 -36 0 0 8220 -45 0 0 45 57 0 0
EndChar
StartChar: R
Encoding: 82 82 82
Width: 1358
Flags: W
Fore
896.35 700 m 1,0,1
 954.85 678 954.85 678 1010.2 606 c 128,-1,2
 1065.55 534 1065.55 534 1121.35 408 c 1,3,-1
 1305.85 0 l 1,4,-1
 1110.55 0 l 1,5,-1
 938.65 383 l 1,6,7
 872.05 533 872.05 533 809.5 582 c 128,-1,8
 746.95 631 746.95 631 638.95 631 c 2,9,-1
 440.95 631 l 1,10,-1
 440.95 0 l 1,11,-1
 259.15 0 l 1,12,-1
 259.15 1493 l 1,13,-1
 669.55 1493 l 2,14,15
 899.95 1493 899.95 1493 1013.35 1386 c 128,-1,16
 1126.75 1279 1126.75 1279 1126.75 1063 c 0,17,18
 1126.75 922 1126.75 922 1067.8 829 c 128,-1,19
 1008.85 736 1008.85 736 896.35 700 c 1,0,1
440.95 1327 m 1,20,-1
 440.95 797 l 1,21,-1
 669.55 797 l 2,22,23
 800.95 797 800.95 797 868 864.5 c 128,-1,24
 935.05 932 935.05 932 935.05 1063 c 0,25,26
 935.05 1194 935.05 1194 868 1260.5 c 128,-1,27
 800.95 1327 800.95 1327 669.55 1327 c 2,28,-1
 440.95 1327 l 1,20,-1
EndSplineSet
KernsSLIFO: 367 -92 0 0 356 -149 0 0 283 -92 0 0 268 -102 0 0 262 -102 0 0 253 -112 0 0 221 -131 0 0 193 -83 0 0 194 -83 0 0 8222 -36 0 0 376 -131 0 0 255 -112 0 0 8221 -131 0 0 8220 -149 0 0 195 -83 0 0 192 -83 0 0 187 -36 0 0 171 -112 0 0 252 -92 0 0 251 -92 0 0 249 -92 0 0 250 -92 0 0 245 -92 0 0 246 -92 0 0 244 -92 0 0 242 -92 0 0 243 -92 0 0 235 -92 0 0 234 -92 0 0 232 -92 0 0 233 -92 0 0 229 -45 0 0 227 -45 0 0 228 -45 0 0 226 -45 0 0 224 -45 0 0 225 -45 0 0 199 -102 0 0 196 -83 0 0 121 -112 0 0 117 -92 0 0 111 -92 0 0 101 -92 0 0 97 -45 0 0 89 -131 0 0 87 -83 0 0 86 -112 0 0 84 -149 0 0 67 -102 0 0 65 -83 0 0 58 -63 0 0 46 -73 0 0 45 -83 0 0
EndChar
StartChar: S
Encoding: 83 83 83
Width: 1236
Flags: W
Fore
1052.45 1444 m 1,0,-1
 1052.45 1247 l 1,1,2
 948.95 1302 948.95 1302 857.15 1329 c 128,-1,3
 765.35 1356 765.35 1356 679.85 1356 c 0,4,5
 531.35 1356 531.35 1356 450.8 1292 c 128,-1,6
 370.25 1228 370.25 1228 370.25 1110 c 0,7,8
 370.25 1011 370.25 1011 423.8 960.5 c 128,-1,9
 477.35 910 477.35 910 626.75 879 c 1,10,-1
 736.55 854 l 1,11,12
 939.95 811 939.95 811 1036.7 702.5 c 128,-1,13
 1133.45 594 1133.45 594 1133.45 412 c 0,14,15
 1133.45 195 1133.45 195 1002.5 83 c 128,-1,16
 871.55 -29 871.55 -29 618.65 -29 c 0,17,18
 523.25 -29 523.25 -29 415.7 -5 c 128,-1,19
 308.15 19 308.15 19 192.95 66 c 1,20,-1
 192.95 274 l 1,21,22
 303.65 205 303.65 205 409.85 170 c 128,-1,23
 516.05 135 516.05 135 618.65 135 c 0,24,25
 774.35 135 774.35 135 858.95 203 c 128,-1,26
 943.55 271 943.55 271 943.55 397 c 0,27,28
 943.55 507 943.55 507 882.8 569 c 128,-1,29
 822.05 631 822.05 631 683.45 662 c 2,30,-1
 572.75 686 l 2,31,32
 369.35 731 369.35 731 278.45 827 c 128,-1,33
 187.55 923 187.55 923 187.55 1094 c 0,34,35
 187.55 1292 187.55 1292 313.1 1406 c 128,-1,36
 438.65 1520 438.65 1520 659.15 1520 c 0,37,38
 753.65 1520 753.65 1520 851.75 1501 c 128,-1,39
 949.85 1482 949.85 1482 1052.45 1444 c 1,0,-1
EndSplineSet
KernsSLIFO: 193 38 0 0 194 38 0 0 195 38 0 0 192 38 0 0 196 38 0 0 65 38 0 0
EndChar
StartChar: T
Encoding: 84 84 84
Width: 1188
Flags: W
Fore
57.1504 1493 m 1,0,-1
 1193.85 1493 l 1,1,-1
 1193.85 1323 l 1,2,-1
 716.85 1323 l 1,3,-1
 716.85 0 l 1,4,-1
 534.15 0 l 1,5,-1
 534.15 1323 l 1,6,-1
 57.1504 1323 l 1,7,-1
 57.1504 1493 l 1,0,-1
EndSplineSet
KernsSLIFO: 252 -311 0 0 229 -339 0 0 242 -348 0 0 45 -188 0 0 8222 -264 0 0 268 -120 0 0 245 -348 0 0 235 -348 0 0 249 -311 0 0 58 -225 0 0 224 -339 0 0 195 -159 0 0 234 -348 0 0 231 -348 0 0 341 -301 0 0 8221 -45 0 0 232 -348 0 0 196 -159 0 0 262 -120 0 0 193 -159 0 0 269 -348 0 0 345 -301 0 0 233 -348 0 0 251 -311 0 0 253 -319 0 0 227 -339 0 0 194 -159 0 0 367 -311 0 0 244 -348 0 0 353 -339 0 0 65 -159 0 0 283 -348 0 0 67 -120 0 0 351 -339 0 0 228 -339 0 0 119 -339 0 0 246 -348 0 0 250 -311 0 0 263 -348 0 0 225 -339 0 0 46 -243 0 0 187 -112 0 0 84 -36 0 0 226 -339 0 0 101 -348 0 0 356 -36 0 0 97 -339 0 0 99 -348 0 0 171 -188 0 0 105 -63 0 0 255 -319 0 0 111 -348 0 0 115 -339 0 0 114 -301 0 0 117 -311 0 0 192 -159 0 0 121 -319 0 0 199 -120 0 0 243 -348 0 0
EndChar
StartChar: U
Encoding: 85 85 85
Width: 1424
Flags: W
Fore
235.15 1493 m 1,0,-1
 417.85 1493 l 1,1,-1
 417.85 586 l 2,2,3
 417.85 346 417.85 346 496.15 240.5 c 128,-1,4
 574.45 135 574.45 135 749.95 135 c 0,5,6
 924.55 135 924.55 135 1002.85 240.5 c 128,-1,7
 1081.15 346 1081.15 346 1081.15 586 c 2,8,-1
 1081.15 1493 l 1,9,-1
 1263.85 1493 l 1,10,-1
 1263.85 561 l 2,11,12
 1263.85 269 1263.85 269 1133.8 120 c 128,-1,13
 1003.75 -29 1003.75 -29 749.95 -29 c 0,14,15
 495.25 -29 495.25 -29 365.2 120 c 128,-1,16
 235.15 269 235.15 269 235.15 561 c 2,17,-1
 235.15 1493 l 1,0,-1
EndSplineSet
KernsSLIFO: 381 -36 0 0 90 -36 0 0
EndChar
StartChar: V
Encoding: 86 86 86
Width: 1330
Flags: W
Fore
597.4 0 m 1,0,-1
 84.4004 1493 l 1,1,-1
 274.3 1493 l 1,2,-1
 700 236 l 1,3,-1
 1126.6 1493 l 1,4,-1
 1315.6 1493 l 1,5,-1
 803.5 0 l 1,6,-1
 597.4 0 l 1,0,-1
EndSplineSet
KernsSLIFO: 367 -139 0 0 283 -159 0 0 253 -55 0 0 210 -36 0 0 212 -36 0 0 211 -36 0 0 193 -131 0 0 194 -131 0 0 8222 -282 0 0 255 -55 0 0 213 -36 0 0 195 -131 0 0 192 -131 0 0 187 -112 0 0 171 -178 0 0 252 -139 0 0 251 -139 0 0 249 -139 0 0 250 -139 0 0 245 -159 0 0 246 -159 0 0 244 -159 0 0 242 -159 0 0 243 -159 0 0 235 -159 0 0 234 -159 0 0 232 -159 0 0 233 -159 0 0 229 -159 0 0 227 -159 0 0 228 -159 0 0 226 -159 0 0 224 -159 0 0 225 -159 0 0 214 -36 0 0 196 -131 0 0 121 -55 0 0 117 -139 0 0 111 -159 0 0 105 -45 0 0 101 -159 0 0 97 -159 0 0 79 -36 0 0 65 -131 0 0 58 -167 0 0 46 -264 0 0 45 -120 0 0
EndChar
StartChar: W
Encoding: 87 87 87
Width: 1923
Flags: W
Fore
162.5 1493 m 1,0,-1
 346.1 1493 l 1,1,-1
 628.7 231 l 1,2,-1
 910.4 1493 l 1,3,-1
 1114.7 1493 l 1,4,-1
 1397.3 231 l 1,5,-1
 1679 1493 l 1,6,-1
 1863.5 1493 l 1,7,-1
 1526 0 l 1,8,-1
 1297.4 0 l 1,9,-1
 1013.9 1296 l 1,10,-1
 727.7 0 l 1,11,-1
 499.1 0 l 1,12,-1
 162.5 1493 l 1,0,-1
EndSplineSet
KernsSLIFO: 252 -73 0 0 229 -131 0 0 242 -120 0 0 45 -83 0 0 8222 -264 0 0 367 -73 0 0 245 -120 0 0 235 -120 0 0 249 -73 0 0 58 -120 0 0 224 -131 0 0 195 -112 0 0 234 -120 0 0 341 -92 0 0 232 -120 0 0 196 -112 0 0 193 -112 0 0 345 -92 0 0 233 -120 0 0 251 -73 0 0 253 -36 0 0 227 -131 0 0 194 -112 0 0 244 -120 0 0 65 -112 0 0 97 -131 0 0 187 -36 0 0 228 -131 0 0 8220 -36 0 0 246 -120 0 0 250 -73 0 0 225 -131 0 0 46 -235 0 0 226 -131 0 0 101 -120 0 0 283 -120 0 0 171 -112 0 0 105 -45 0 0 255 -36 0 0 111 -120 0 0 114 -92 0 0 117 -73 0 0 192 -112 0 0 121 -36 0 0 243 -120 0 0
EndChar
StartChar: X
Encoding: 88 88 88
Width: 1332
Flags: W
Fore
186.1 1493 m 1,0,-1
 381.4 1493 l 1,1,-1
 715.3 938 l 1,2,-1
 1051 1493 l 1,3,-1
 1246.3 1493 l 1,4,-1
 814.3 776 l 1,5,-1
 1275.1 0 l 1,6,-1
 1079.8 0 l 1,7,-1
 701.8 635 l 1,8,-1
 321.1 0 l 1,9,-1
 124.9 0 l 1,10,-1
 604.6 797 l 1,11,-1
 186.1 1493 l 1,0,-1
EndSplineSet
KernsSLIFO: 356 -36 0 0 283 -92 0 0 268 -149 0 0 262 -149 0 0 210 -131 0 0 212 -131 0 0 211 -131 0 0 8222 -45 0 0 8221 -83 0 0 8220 -159 0 0 213 -131 0 0 171 -112 0 0 235 -92 0 0 234 -92 0 0 232 -92 0 0 233 -92 0 0 214 -131 0 0 199 -149 0 0 101 -92 0 0 84 -36 0 0 79 -131 0 0 67 -149 0 0 45 -102 0 0
EndChar
StartChar: Y
Encoding: 89 89 89
Width: 1188
Flags: W
Fore
58.9502 1493 m 1,0,-1
 254.25 1493 l 1,1,-1
 626.85 879 l 1,2,-1
 996.75 1493 l 1,3,-1
 1192.05 1493 l 1,4,-1
 716.85 711 l 1,5,-1
 716.85 0 l 1,6,-1
 534.15 0 l 1,7,-1
 534.15 711 l 1,8,-1
 58.9502 1493 l 1,0,-1
EndSplineSet
KernsSLIFO: 367 -235 0 0 283 -272 0 0 268 -112 0 0 262 -112 0 0 210 -112 0 0 212 -112 0 0 211 -112 0 0 193 -159 0 0 194 -159 0 0 8222 -264 0 0 8221 -36 0 0 8220 -112 0 0 213 -112 0 0 195 -159 0 0 192 -159 0 0 187 -149 0 0 171 -225 0 0 252 -235 0 0 251 -235 0 0 249 -235 0 0 250 -235 0 0 245 -272 0 0 246 -272 0 0 244 -272 0 0 242 -272 0 0 243 -272 0 0 235 -272 0 0 234 -272 0 0 232 -272 0 0 233 -272 0 0 229 -282 0 0 227 -282 0 0 228 -282 0 0 226 -282 0 0 224 -282 0 0 225 -282 0 0 214 -112 0 0 199 -112 0 0 196 -159 0 0 117 -235 0 0 111 -272 0 0 105 -73 0 0 101 -272 0 0 97 -282 0 0 79 -112 0 0 67 -112 0 0 65 -159 0 0 58 -272 0 0 46 -415 0 0 45 -243 0 0
EndChar
StartChar: Z
Encoding: 90 90 90
Width: 1332
Flags: W
Fore
173.65 1493 m 1,0,-1
 1229.35 1493 l 1,1,-1
 1229.35 1339 l 1,2,-1
 379.75 170 l 1,3,-1
 1250.05 170 l 1,4,-1
 1250.05 0 l 1,5,-1
 152.95 0 l 1,6,-1
 152.95 154 l 1,7,-1
 1002.55 1323 l 1,8,-1
 173.65 1323 l 1,9,-1
 173.65 1493 l 1,0,-1
EndSplineSet
KernsSLIFO: 8222 -36 0 0 8221 -36 0 0 8220 -36 0 0 45 -36 0 0
EndChar
StartChar: bracketleft
Encoding: 91 91 91
Width: 757
Flags: W
Fore
197.2 1556 m 1,0,-1
 578.8 1556 l 1,1,-1
 578.8 1413 l 1,2,-1
 362.8 1413 l 1,3,-1
 362.8 -127 l 1,4,-1
 578.8 -127 l 1,5,-1
 578.8 -270 l 1,6,-1
 197.2 -270 l 1,7,-1
 197.2 1556 l 1,0,-1
EndSplineSet
EndChar
StartChar: backslash
Encoding: 92 92 92
Width: 655
Flags: W
Fore
187.5 1493 m 1,0,-1
 655.5 -190 l 1,1,-1
 502.5 -190 l 1,2,-1
 34.5 1493 l 1,3,-1
 187.5 1493 l 1,0,-1
EndSplineSet
EndChar
StartChar: bracketright
Encoding: 93 93 93
Width: 760
Flags: W
Fore
601.8 1556 m 1,0,-1
 601.8 -270 l 1,1,-1
 220.2 -270 l 1,2,-1
 220.2 -127 l 1,3,-1
 435.3 -127 l 1,4,-1
 435.3 1413 l 1,5,-1
 220.2 1413 l 1,6,-1
 220.2 1556 l 1,7,-1
 601.8 1556 l 1,0,-1
EndSplineSet
EndChar
StartChar: asciicircum
Encoding: 94 94 94
Width: 1630
Flags: W
Fore
946.2 1493 m 1,0,-1
 1434.9 936 l 1,1,-1
 1254 936 l 1,2,-1
 858 1331 l 1,3,-1
 462 936 l 1,4,-1
 281.1 936 l 1,5,-1
 769.8 1493 l 1,6,-1
 946.2 1493 l 1,0,-1
EndSplineSet
EndChar
StartChar: underscore
Encoding: 95 95 95
Width: 972
Flags: W
Fore
990.8 -340 m 1,0,-1
 990.8 -483 l 1,1,-1
 33.2002 -483 l 1,2,-1
 33.2002 -340 l 1,3,-1
 990.8 -340 l 1,0,-1
EndSplineSet
EndChar
StartChar: grave
Encoding: 96 96 96
Width: 962
Flags: W
Fore
371.25 1638 m 1,0,-1
 625.05 1264 l 1,1,-1
 487.35 1264 l 1,2,-1
 193.95 1638 l 1,3,-1
 371.25 1638 l 1,0,-1
EndSplineSet
EndChar
StartChar: a
Encoding: 97 97 97
Width: 1189
Flags: W
Fore
691.4 563 m 2,0,1
 490.7 563 490.7 563 413.3 512 c 128,-1,2
 335.9 461 335.9 461 335.9 338 c 0,3,4
 335.9 240 335.9 240 393.95 182.5 c 128,-1,5
 452 125 452 125 551.9 125 c 0,6,7
 689.6 125 689.6 125 772.85 233.5 c 128,-1,8
 856.1 342 856.1 342 856.1 522 c 2,9,-1
 856.1 563 l 1,10,-1
 691.4 563 l 2,0,1
1021.7 639 m 2,11,-1
 1021.7 0 l 1,12,-1
 856.1 0 l 1,13,-1
 856.1 170 l 1,14,15
 799.4 68 799.4 68 714.8 19.5 c 128,-1,16
 630.2 -29 630.2 -29 507.8 -29 c 0,17,18
 353 -29 353 -29 261.65 67.5 c 128,-1,19
 170.3 164 170.3 164 170.3 326 c 0,20,21
 170.3 515 170.3 515 284.15 611 c 128,-1,22
 398 707 398 707 623.9 707 c 2,23,-1
 856.1 707 l 1,24,-1
 856.1 725 l 2,25,26
 856.1 852 856.1 852 780.95 921.5 c 128,-1,27
 705.8 991 705.8 991 569.9 991 c 0,28,29
 483.5 991 483.5 991 401.6 968 c 128,-1,30
 319.7 945 319.7 945 244.1 899 c 1,31,-1
 244.1 1069 l 1,32,33
 335 1108 335 1108 420.5 1127.5 c 128,-1,34
 506 1147 506 1147 587 1147 c 0,35,36
 805.7 1147 805.7 1147 913.7 1021 c 128,-1,37
 1021.7 895 1021.7 895 1021.7 639 c 2,11,-1
EndSplineSet
EndChar
StartChar: b
Encoding: 98 98 98
Width: 1238
Flags: W
Fore
966 559 m 0,0,1
 966 762 966 762 890.85 877.5 c 128,-1,2
 815.7 993 815.7 993 684.3 993 c 0,3,4
 552.9 993 552.9 993 477.75 877.5 c 128,-1,5
 402.6 762 402.6 762 402.6 559 c 0,6,7
 402.6 356 402.6 356 477.75 240.5 c 128,-1,8
 552.9 125 552.9 125 684.3 125 c 0,9,10
 815.7 125 815.7 125 890.85 240.5 c 128,-1,11
 966 356 966 356 966 559 c 0,0,1
402.6 950 m 1,12,13
 454.8 1050 454.8 1050 534.45 1098.5 c 128,-1,14
 614.1 1147 614.1 1147 724.8 1147 c 0,15,16
 908.4 1147 908.4 1147 1023.15 985 c 128,-1,17
 1137.9 823 1137.9 823 1137.9 559 c 0,18,19
 1137.9 295 1137.9 295 1023.15 133 c 128,-1,20
 908.4 -29 908.4 -29 724.8 -29 c 0,21,22
 614.1 -29 614.1 -29 534.45 19.5 c 128,-1,23
 454.8 68 454.8 68 402.6 168 c 1,24,-1
 402.6 0 l 1,25,-1
 236.1 0 l 1,26,-1
 236.1 1556 l 1,27,-1
 402.6 1556 l 1,28,-1
 402.6 950 l 1,12,13
EndSplineSet
EndChar
StartChar: c
Encoding: 99 99 99
Width: 1069
Flags: W
Fore
954.7 1077 m 1,0,-1
 954.7 905 l 1,1,2
 884.5 948 884.5 948 813.85 969.5 c 128,-1,3
 743.2 991 743.2 991 671.2 991 c 0,4,5
 510.1 991 510.1 991 421 877.5 c 128,-1,6
 331.9 764 331.9 764 331.9 559 c 0,7,8
 331.9 354 331.9 354 421 240.5 c 128,-1,9
 510.1 127 510.1 127 671.2 127 c 0,10,11
 743.2 127 743.2 127 813.85 148.5 c 128,-1,12
 884.5 170 884.5 170 954.7 213 c 1,13,-1
 954.7 43 l 1,14,15
 885.4 7 885.4 7 811.15 -11 c 128,-1,16
 736.9 -29 736.9 -29 653.2 -29 c 0,17,18
 425.5 -29 425.5 -29 291.4 130 c 128,-1,19
 157.3 289 157.3 289 157.3 559 c 0,20,21
 157.3 833 157.3 833 292.75 990 c 128,-1,22
 428.2 1147 428.2 1147 664 1147 c 0,23,24
 740.5 1147 740.5 1147 813.4 1129.5 c 128,-1,25
 886.3 1112 886.3 1112 954.7 1077 c 1,0,-1
EndSplineSet
EndChar
StartChar: d
Encoding: 100 100 100
Width: 1231
Flags: W
Fore
898.35 950 m 1,0,-1
 898.35 1556 l 1,1,-1
 1063.95 1556 l 1,2,-1
 1063.95 0 l 1,3,-1
 898.35 0 l 1,4,-1
 898.35 168 l 1,5,6
 846.15 68 846.15 68 766.5 19.5 c 128,-1,7
 686.85 -29 686.85 -29 575.25 -29 c 0,8,9
 392.55 -29 392.55 -29 277.8 133 c 128,-1,10
 163.05 295 163.05 295 163.05 559 c 0,11,12
 163.05 823 163.05 823 277.8 985 c 128,-1,13
 392.55 1147 392.55 1147 575.25 1147 c 0,14,15
 686.85 1147 686.85 1147 766.5 1098.5 c 128,-1,16
 846.15 1050 846.15 1050 898.35 950 c 1,0,-1
334.05 559 m 0,17,18
 334.05 356 334.05 356 409.2 240.5 c 128,-1,19
 484.35 125 484.35 125 615.75 125 c 0,20,21
 747.15 125 747.15 125 822.75 240.5 c 128,-1,22
 898.35 356 898.35 356 898.35 559 c 0,23,24
 898.35 762 898.35 762 822.75 877.5 c 128,-1,25
 747.15 993 747.15 993 615.75 993 c 0,26,27
 484.35 993 484.35 993 409.2 877.5 c 128,-1,28
 334.05 762 334.05 762 334.05 559 c 0,17,18
EndSplineSet
EndChar
StartChar: e
Encoding: 101 101 101
Width: 1197
Flags: W
Fore
1099.1 606 m 2,0,-1
 1099.1 516 l 1,1,-1
 337.7 516 l 1,2,3
 348.5 326 348.5 326 440.75 226.5 c 128,-1,4
 533 127 533 127 697.7 127 c 0,5,6
 793.1 127 793.1 127 882.65 153 c 128,-1,7
 972.2 179 972.2 179 1060.4 231 c 1,8,-1
 1060.4 57 l 1,9,10
 971.3 15 971.3 15 877.7 -7 c 128,-1,11
 784.1 -29 784.1 -29 687.8 -29 c 0,12,13
 446.6 -29 446.6 -29 305.75 127 c 128,-1,14
 164.9 283 164.9 283 164.9 549 c 0,15,16
 164.9 824 164.9 824 298.55 985.5 c 128,-1,17
 432.2 1147 432.2 1147 659 1147 c 0,18,19
 862.4 1147 862.4 1147 980.75 1001.5 c 128,-1,20
 1099.1 856 1099.1 856 1099.1 606 c 2,0,-1
933.5 660 m 1,21,22
 931.7 811 931.7 811 857.45 901 c 128,-1,23
 783.2 991 783.2 991 660.8 991 c 0,24,25
 522.2 991 522.2 991 438.95 904 c 128,-1,26
 355.7 817 355.7 817 343.1 659 c 1,27,-1
 933.5 660 l 1,21,22
EndSplineSet
KernsSLIFO: 120 -36 0 0
EndChar
StartChar: f
Encoding: 102 102 102
Width: 689
Flags: W
Fore
724.35 1556 m 1,0,-1
 724.35 1403 l 1,1,-1
 565.95 1403 l 2,2,3
 476.85 1403 476.85 1403 442.2 1363 c 128,-1,4
 407.55 1323 407.55 1323 407.55 1219 c 2,5,-1
 407.55 1120 l 1,6,-1
 680.25 1120 l 1,7,-1
 680.25 977 l 1,8,-1
 407.55 977 l 1,9,-1
 407.55 0 l 1,10,-1
 241.05 0 l 1,11,-1
 241.05 977 l 1,12,-1
 82.6504 977 l 1,13,-1
 82.6504 1120 l 1,14,-1
 241.05 1120 l 1,15,-1
 241.05 1198 l 2,16,17
 241.05 1385 241.05 1385 319.35 1470.5 c 128,-1,18
 397.65 1556 397.65 1556 567.75 1556 c 2,19,-1
 724.35 1556 l 1,0,-1
EndSplineSet
KernsSLIFO: 357 -36 0 0 253 -36 0 0 8222 -235 0 0 255 -36 0 0 8220 65 0 0 187 -36 0 0 171 -73 0 0 121 -36 0 0 119 -36 0 0 116 -36 0 0 58 -73 0 0 46 -149 0 0 45 -112 0 0
EndChar
StartChar: g
Encoding: 103 103 103
Width: 1231
Flags: W
Fore
898.35 573 m 0,0,1
 898.35 773 898.35 773 824.1 883 c 128,-1,2
 749.85 993 749.85 993 615.75 993 c 0,3,4
 482.55 993 482.55 993 408.3 883 c 128,-1,5
 334.05 773 334.05 773 334.05 573 c 0,6,7
 334.05 374 334.05 374 408.3 264 c 128,-1,8
 482.55 154 482.55 154 615.75 154 c 0,9,10
 749.85 154 749.85 154 824.1 264 c 128,-1,11
 898.35 374 898.35 374 898.35 573 c 0,0,1
1063.95 139 m 2,12,13
 1063.95 -147 1063.95 -147 949.65 -286.5 c 128,-1,14
 835.35 -426 835.35 -426 599.55 -426 c 0,15,16
 512.25 -426 512.25 -426 434.85 -411.5 c 128,-1,17
 357.45 -397 357.45 -397 284.55 -367 c 1,18,-1
 284.55 -188 l 1,19,20
 357.45 -232 357.45 -232 428.55 -253 c 128,-1,21
 499.65 -274 499.65 -274 573.45 -274 c 0,22,23
 736.35 -274 736.35 -274 817.35 -179.5 c 128,-1,24
 898.35 -85 898.35 -85 898.35 106 c 2,25,-1
 898.35 197 l 1,26,27
 847.05 98 847.05 98 766.95 49 c 128,-1,28
 686.85 0 686.85 0 575.25 0 c 0,29,30
 389.85 0 389.85 0 276.45 157 c 128,-1,31
 163.05 314 163.05 314 163.05 573 c 0,32,33
 163.05 833 163.05 833 276.45 990 c 128,-1,34
 389.85 1147 389.85 1147 575.25 1147 c 0,35,36
 686.85 1147 686.85 1147 766.95 1098 c 128,-1,37
 847.05 1049 847.05 1049 898.35 950 c 1,38,-1
 898.35 1120 l 1,39,-1
 1063.95 1120 l 1,40,-1
 1063.95 139 l 2,12,13
EndSplineSet
EndChar
StartChar: h
Encoding: 104 104 104
Width: 1233
Flags: W
Fore
1077.1 676 m 2,0,-1
 1077.1 0 l 1,1,-1
 911.5 0 l 1,2,-1
 911.5 670 l 2,3,4
 911.5 829 911.5 829 855.7 908 c 128,-1,5
 799.9 987 799.9 987 688.3 987 c 0,6,7
 554.2 987 554.2 987 476.8 892 c 128,-1,8
 399.4 797 399.4 797 399.4 633 c 2,9,-1
 399.4 0 l 1,10,-1
 232.9 0 l 1,11,-1
 232.9 1556 l 1,12,-1
 399.4 1556 l 1,13,-1
 399.4 946 l 1,14,15
 458.8 1047 458.8 1047 539.35 1097 c 128,-1,16
 619.9 1147 619.9 1147 725.2 1147 c 0,17,18
 898.9 1147 898.9 1147 988 1027.5 c 128,-1,19
 1077.1 908 1077.1 908 1077.1 676 c 2,0,-1
EndSplineSet
EndChar
StartChar: i
Encoding: 105 105 105
Width: 540
Flags: W
Fore
202.2 1120 m 1,0,-1
 367.8 1120 l 1,1,-1
 367.8 0 l 1,2,-1
 202.2 0 l 1,3,-1
 202.2 1120 l 1,0,-1
202.2 1556 m 1,4,-1
 367.8 1556 l 1,5,-1
 367.8 1323 l 1,6,-1
 202.2 1323 l 1,7,-1
 202.2 1556 l 1,4,-1
EndSplineSet
EndChar
StartChar: j
Encoding: 106 106 106
Width: 529
Flags: W
Fore
190.7 1120 m 1,0,-1
 356.3 1120 l 1,1,-1
 356.3 -20 l 2,2,3
 356.3 -234 356.3 -234 282.95 -330 c 128,-1,4
 209.6 -426 209.6 -426 46.7002 -426 c 2,5,-1
 -16.2998 -426 l 1,6,-1
 -16.2998 -270 l 1,7,-1
 27.7998 -270 l 2,8,9
 122.3 -270 122.3 -270 156.5 -221.5 c 128,-1,10
 190.7 -173 190.7 -173 190.7 -20 c 2,11,-1
 190.7 1120 l 1,0,-1
190.7 1556 m 1,12,-1
 356.3 1556 l 1,13,-1
 356.3 1323 l 1,14,-1
 190.7 1323 l 1,15,-1
 190.7 1556 l 1,12,-1
EndSplineSet
EndChar
StartChar: k
Encoding: 107 107 107
Width: 1135
Flags: W
Fore
235.7 1556 m 1,0,-1
 402.2 1556 l 1,1,-1
 402.2 637 l 1,2,-1
 896.3 1120 l 1,3,-1
 1107.8 1120 l 1,4,-1
 573.2 596 l 1,5,-1
 1130.3 0 l 1,6,-1
 914.3 0 l 1,7,-1
 402.2 547 l 1,8,-1
 402.2 0 l 1,9,-1
 235.7 0 l 1,10,-1
 235.7 1556 l 1,0,-1
EndSplineSet
KernsSLIFO: 367 -63 0 0 283 -73 0 0 253 -73 0 0 255 -73 0 0 252 -63 0 0 251 -63 0 0 249 -63 0 0 250 -63 0 0 245 -73 0 0 246 -73 0 0 244 -73 0 0 242 -73 0 0 243 -73 0 0 235 -73 0 0 234 -73 0 0 232 -73 0 0 233 -73 0 0 229 -36 0 0 227 -36 0 0 228 -36 0 0 226 -36 0 0 224 -36 0 0 225 -36 0 0 121 -73 0 0 117 -63 0 0 111 -73 0 0 101 -73 0 0 97 -36 0 0
EndChar
StartChar: l
Encoding: 108 108 108
Width: 540
Flags: W
Fore
202.2 1556 m 1,0,-1
 367.8 1556 l 1,1,-1
 367.8 0 l 1,2,-1
 202.2 0 l 1,3,-1
 202.2 1556 l 1,0,-1
EndSplineSet
EndChar
StartChar: m
Encoding: 109 109 109
Width: 1895
Flags: W
Fore
1058.85 905 m 1,0,1
 1120.95 1029 1120.95 1029 1207.35 1088 c 128,-1,2
 1293.75 1147 1293.75 1147 1410.75 1147 c 0,3,4
 1568.25 1147 1568.25 1147 1653.75 1024.5 c 128,-1,5
 1739.25 902 1739.25 902 1739.25 676 c 2,6,-1
 1739.25 0 l 1,7,-1
 1572.75 0 l 1,8,-1
 1572.75 670 l 2,9,10
 1572.75 831 1572.75 831 1521.45 909 c 128,-1,11
 1470.15 987 1470.15 987 1364.85 987 c 0,12,13
 1236.15 987 1236.15 987 1161.45 892 c 128,-1,14
 1086.75 797 1086.75 797 1086.75 633 c 2,15,-1
 1086.75 0 l 1,16,-1
 920.25 0 l 1,17,-1
 920.25 670 l 2,18,19
 920.25 832 920.25 832 868.95 909.5 c 128,-1,20
 817.65 987 817.65 987 710.55 987 c 0,21,22
 583.65 987 583.65 987 508.95 891.5 c 128,-1,23
 434.25 796 434.25 796 434.25 633 c 2,24,-1
 434.25 0 l 1,25,-1
 267.75 0 l 1,26,-1
 267.75 1120 l 1,27,-1
 434.25 1120 l 1,28,-1
 434.25 946 l 1,29,30
 490.95 1049 490.95 1049 570.15 1098 c 128,-1,31
 649.35 1147 649.35 1147 758.25 1147 c 0,32,33
 868.05 1147 868.05 1147 945 1085 c 128,-1,34
 1021.95 1023 1021.95 1023 1058.85 905 c 1,0,1
EndSplineSet
EndChar
StartChar: n
Encoding: 110 110 110
Width: 1233
Flags: W
Fore
1077.1 676 m 2,0,-1
 1077.1 0 l 1,1,-1
 911.5 0 l 1,2,-1
 911.5 670 l 2,3,4
 911.5 829 911.5 829 855.7 908 c 128,-1,5
 799.9 987 799.9 987 688.3 987 c 0,6,7
 554.2 987 554.2 987 476.8 892 c 128,-1,8
 399.4 797 399.4 797 399.4 633 c 2,9,-1
 399.4 0 l 1,10,-1
 232.9 0 l 1,11,-1
 232.9 1120 l 1,12,-1
 399.4 1120 l 1,13,-1
 399.4 946 l 1,14,15
 458.8 1047 458.8 1047 539.35 1097 c 128,-1,16
 619.9 1147 619.9 1147 725.2 1147 c 0,17,18
 898.9 1147 898.9 1147 988 1027.5 c 128,-1,19
 1077.1 908 1077.1 908 1077.1 676 c 2,0,-1
EndSplineSet
KernsSLIFO: 8222 -92 0 0 8221 -112 0 0 8220 -149 0 0
EndChar
StartChar: o
Encoding: 111 111 111
Width: 1190
Flags: W
Fore
627 991 m 0,0,1
 493.8 991 493.8 991 416.4 875.5 c 128,-1,2
 339 760 339 760 339 559 c 0,3,4
 339 358 339 358 415.95 242.5 c 128,-1,5
 492.9 127 492.9 127 627 127 c 0,6,7
 759.3 127 759.3 127 836.7 243 c 128,-1,8
 914.1 359 914.1 359 914.1 559 c 0,9,10
 914.1 758 914.1 758 836.7 874.5 c 128,-1,11
 759.3 991 759.3 991 627 991 c 0,0,1
627 1147 m 0,12,13
 843 1147 843 1147 966.3 991 c 128,-1,14
 1089.6 835 1089.6 835 1089.6 559 c 0,15,16
 1089.6 284 1089.6 284 966.3 127.5 c 128,-1,17
 843 -29 843 -29 627 -29 c 0,18,19
 410.1 -29 410.1 -29 287.25 127.5 c 128,-1,20
 164.4 284 164.4 284 164.4 559 c 0,21,22
 164.4 835 164.4 835 287.25 991 c 128,-1,23
 410.1 1147 410.1 1147 627 1147 c 0,12,13
EndSplineSet
KernsSLIFO: 8222 -131 0 0 8221 -73 0 0 8220 -149 0 0 120 -63 0 0 46 -36 0 0 45 38 0 0
EndChar
StartChar: p
Encoding: 112 112 112
Width: 1238
Flags: W
Fore
402.6 168 m 1,0,-1
 402.6 -426 l 1,1,-1
 236.1 -426 l 1,2,-1
 236.1 1120 l 1,3,-1
 402.6 1120 l 1,4,-1
 402.6 950 l 1,5,6
 454.8 1050 454.8 1050 534.45 1098.5 c 128,-1,7
 614.1 1147 614.1 1147 724.8 1147 c 0,8,9
 908.4 1147 908.4 1147 1023.15 985 c 128,-1,10
 1137.9 823 1137.9 823 1137.9 559 c 0,11,12
 1137.9 295 1137.9 295 1023.15 133 c 128,-1,13
 908.4 -29 908.4 -29 724.8 -29 c 0,14,15
 614.1 -29 614.1 -29 534.45 19.5 c 128,-1,16
 454.8 68 454.8 68 402.6 168 c 1,0,-1
966 559 m 0,17,18
 966 762 966 762 890.85 877.5 c 128,-1,19
 815.7 993 815.7 993 684.3 993 c 0,20,21
 552.9 993 552.9 993 477.75 877.5 c 128,-1,22
 402.6 762 402.6 762 402.6 559 c 0,23,24
 402.6 356 402.6 356 477.75 240.5 c 128,-1,25
 552.9 125 552.9 125 684.3 125 c 0,26,27
 815.7 125 815.7 125 890.85 240.5 c 128,-1,28
 966 356 966 356 966 559 c 0,17,18
EndSplineSet
EndChar
StartChar: q
Encoding: 113 113 113
Width: 1231
Flags: W
Fore
334.05 559 m 0,0,1
 334.05 356 334.05 356 409.2 240.5 c 128,-1,2
 484.35 125 484.35 125 615.75 125 c 0,3,4
 747.15 125 747.15 125 822.75 240.5 c 128,-1,5
 898.35 356 898.35 356 898.35 559 c 0,6,7
 898.35 762 898.35 762 822.75 877.5 c 128,-1,8
 747.15 993 747.15 993 615.75 993 c 0,9,10
 484.35 993 484.35 993 409.2 877.5 c 128,-1,11
 334.05 762 334.05 762 334.05 559 c 0,0,1
898.35 168 m 1,12,13
 846.15 68 846.15 68 766.5 19.5 c 128,-1,14
 686.85 -29 686.85 -29 575.25 -29 c 0,15,16
 392.55 -29 392.55 -29 277.8 133 c 128,-1,17
 163.05 295 163.05 295 163.05 559 c 0,18,19
 163.05 823 163.05 823 277.8 985 c 128,-1,20
 392.55 1147 392.55 1147 575.25 1147 c 0,21,22
 686.85 1147 686.85 1147 766.5 1098.5 c 128,-1,23
 846.15 1050 846.15 1050 898.35 950 c 1,24,-1
 898.35 1120 l 1,25,-1
 1063.95 1120 l 1,26,-1
 1063.95 -426 l 1,27,-1
 898.35 -426 l 1,28,-1
 898.35 168 l 1,12,13
EndSplineSet
EndChar
StartChar: r
Encoding: 114 114 114
Width: 809
Flags: W
Fore
809.2 948 m 1,0,1
 781.3 966 781.3 966 748.45 974.5 c 128,-1,2
 715.6 983 715.6 983 676 983 c 0,3,4
 535.6 983 535.6 983 460.45 881.5 c 128,-1,5
 385.3 780 385.3 780 385.3 590 c 2,6,-1
 385.3 0 l 1,7,-1
 218.8 0 l 1,8,-1
 218.8 1120 l 1,9,-1
 385.3 1120 l 1,10,-1
 385.3 946 l 1,11,12
 437.5 1048 437.5 1048 521.2 1097.5 c 128,-1,13
 604.9 1147 604.9 1147 724.6 1147 c 0,14,15
 741.7 1147 741.7 1147 762.4 1144.5 c 128,-1,16
 783.1 1142 783.1 1142 808.3 1137 c 1,17,-1
 809.2 948 l 1,0,1
EndSplineSet
KernsSLIFO: 242 -45 0 0 45 -131 0 0 8222 -311 0 0 235 -45 0 0 58 -36 0 0 233 -45 0 0 231 -45 0 0 341 -36 0 0 8221 86 0 0 232 -45 0 0 245 -45 0 0 269 -45 0 0 271 72 0 0 345 -36 0 0 241 -36 0 0 244 -45 0 0 287 -36 0 0 234 -45 0 0 246 -45 0 0 263 -45 0 0 46 -188 0 0 120 -55 0 0 101 -45 0 0 283 -45 0 0 99 -45 0 0 171 -73 0 0 100 -36 0 0 103 -36 0 0 104 -36 0 0 109 -36 0 0 111 -45 0 0 110 -36 0 0 113 -36 0 0 114 -36 0 0 328 -36 0 0 243 -45 0 0
EndChar
StartChar: s
Encoding: 115 115 115
Width: 1014
Flags: W
Fore
870.2 1087 m 1,0,-1
 870.2 913 l 1,1,2
 800 953 800 953 724.4 973 c 128,-1,3
 648.8 993 648.8 993 567.8 993 c 0,4,5
 444.5 993 444.5 993 382.85 951 c 128,-1,6
 321.2 909 321.2 909 321.2 825 c 0,7,8
 321.2 761 321.2 761 365.3 724.5 c 128,-1,9
 409.4 688 409.4 688 542.6 655 c 2,10,-1
 599.3 641 l 2,11,12
 775.7 599 775.7 599 849.95 522.5 c 128,-1,13
 924.2 446 924.2 446 924.2 309 c 0,14,15
 924.2 153 924.2 153 813.05 62 c 128,-1,16
 701.9 -29 701.9 -29 507.5 -29 c 0,17,18
 426.5 -29 426.5 -29 338.75 -11.5 c 128,-1,19
 251 6 251 6 153.8 41 c 1,20,-1
 153.8 231 l 1,21,22
 245.6 178 245.6 178 334.7 151.5 c 128,-1,23
 423.8 125 423.8 125 511.1 125 c 0,24,25
 628.1 125 628.1 125 691.1 169.5 c 128,-1,26
 754.1 214 754.1 214 754.1 295 c 0,27,28
 754.1 370 754.1 370 708.65 410 c 128,-1,29
 663.2 450 663.2 450 509.3 487 c 2,30,-1
 451.7 502 l 1,31,32
 297.8 538 297.8 538 229.4 612.5 c 128,-1,33
 161 687 161 687 161 817 c 0,34,35
 161 975 161 975 261.8 1061 c 128,-1,36
 362.6 1147 362.6 1147 548 1147 c 0,37,38
 639.8 1147 639.8 1147 720.8 1132 c 128,-1,39
 801.8 1117 801.8 1117 870.2 1087 c 1,0,-1
EndSplineSet
EndChar
StartChar: t
Encoding: 116 116 116
Width: 763
Flags: W
Fore
377.95 1438 m 1,0,-1
 377.95 1120 l 1,1,-1
 719.05 1120 l 1,2,-1
 719.05 977 l 1,3,-1
 377.95 977 l 1,4,-1
 377.95 369 l 2,5,6
 377.95 232 377.95 232 411.7 193 c 128,-1,7
 445.45 154 445.45 154 548.95 154 c 2,8,-1
 719.05 154 l 1,9,-1
 719.05 0 l 1,10,-1
 548.95 0 l 2,11,12
 357.25 0 357.25 0 284.35 79.5 c 128,-1,13
 211.45 159 211.45 159 211.45 369 c 2,14,-1
 211.45 977 l 1,15,-1
 89.9502 977 l 1,16,-1
 89.9502 1120 l 1,17,-1
 211.45 1120 l 1,18,-1
 211.45 1438 l 1,19,-1
 377.95 1438 l 1,0,-1
EndSplineSet
EndChar
StartChar: u
Encoding: 117 117 117
Width: 1232
Flags: W
Fore
220.9 442 m 2,0,-1
 220.9 1120 l 1,1,-1
 386.5 1120 l 1,2,-1
 386.5 449 l 2,3,4
 386.5 290 386.5 290 442.3 210.5 c 128,-1,5
 498.1 131 498.1 131 609.7 131 c 0,6,7
 743.8 131 743.8 131 821.65 226 c 128,-1,8
 899.5 321 899.5 321 899.5 485 c 2,9,-1
 899.5 1120 l 1,10,-1
 1065.1 1120 l 1,11,-1
 1065.1 0 l 1,12,-1
 899.5 0 l 1,13,-1
 899.5 172 l 1,14,15
 839.2 70 839.2 70 759.55 20.5 c 128,-1,16
 679.9 -29 679.9 -29 574.6 -29 c 0,17,18
 400.9 -29 400.9 -29 310.9 91 c 128,-1,19
 220.9 211 220.9 211 220.9 442 c 2,0,-1
EndSplineSet
EndChar
StartChar: v
Encoding: 118 118 118
Width: 1151
Flags: W
Fore
115.5 1120 m 1,0,-1
 291 1120 l 1,1,-1
 606 180 l 1,2,-1
 921 1120 l 1,3,-1
 1096.5 1120 l 1,4,-1
 718.5 0 l 1,5,-1
 493.5 0 l 1,6,-1
 115.5 1120 l 1,0,-1
EndSplineSet
KernsSLIFO: 8222 -272 0 0 8221 -36 0 0 187 -36 0 0 171 -36 0 0 58 -112 0 0 46 -159 0 0 45 -55 0 0
EndChar
StartChar: w
Encoding: 119 119 119
Width: 1591
Flags: W
Fore
161.15 1120 m 1,0,-1
 326.75 1120 l 1,1,-1
 533.75 246 l 1,2,-1
 739.85 1120 l 1,3,-1
 935.15 1120 l 1,4,-1
 1142.15 246 l 1,5,-1
 1348.25 1120 l 1,6,-1
 1513.85 1120 l 1,7,-1
 1250.15 0 l 1,8,-1
 1054.85 0 l 1,9,-1
 837.95 918 l 1,10,-1
 620.15 0 l 1,11,-1
 424.85 0 l 1,12,-1
 161.15 1120 l 1,0,-1
EndSplineSet
KernsSLIFO: 8222 -215 0 0 187 -36 0 0 171 -36 0 0 58 -112 0 0 46 -188 0 0
EndChar
StartChar: x
Encoding: 120 120 120
Width: 1151
Flags: W
Fore
1071.8 1120 m 1,0,-1
 707.3 575 l 1,1,-1
 1090.7 0 l 1,2,-1
 895.4 0 l 1,3,-1
 602 440 l 1,4,-1
 308.6 0 l 1,5,-1
 113.3 0 l 1,6,-1
 504.8 586 l 1,7,-1
 146.6 1120 l 1,8,-1
 341.9 1120 l 1,9,-1
 609.2 721 l 1,10,-1
 876.5 1120 l 1,11,-1
 1071.8 1120 l 1,0,-1
EndSplineSet
KernsSLIFO: 283 -63 0 0 269 -36 0 0 263 -36 0 0 245 -63 0 0 246 -63 0 0 244 -63 0 0 242 -63 0 0 243 -63 0 0 235 -63 0 0 234 -63 0 0 232 -63 0 0 233 -63 0 0 231 -36 0 0 111 -63 0 0 101 -63 0 0 99 -36 0 0
EndChar
StartChar: y
Encoding: 121 121 121
Width: 1151
Flags: W
Fore
653.7 -104 m 1,0,1
 583.5 -304 583.5 -304 516.9 -365 c 128,-1,2
 450.3 -426 450.3 -426 338.7 -426 c 2,3,-1
 206.4 -426 l 1,4,-1
 206.4 -272 l 1,5,-1
 303.6 -272 l 2,6,7
 372 -272 372 -272 409.8 -236 c 128,-1,8
 447.6 -200 447.6 -200 493.5 -66 c 1,9,-1
 523.2 18 l 1,10,-1
 115.5 1120 l 1,11,-1
 291 1120 l 1,12,-1
 606 244 l 1,13,-1
 921 1120 l 1,14,-1
 1096.5 1120 l 1,15,-1
 653.7 -104 l 1,0,1
EndSplineSet
KernsSLIFO: 8222 -301 0 0 187 -36 0 0 171 -36 0 0 58 -149 0 0 46 -292 0 0 45 -36 0 0
EndChar
StartChar: z
Encoding: 122 122 122
Width: 1021
Flags: W
Fore
155.45 1120 m 1,0,-1
 942.05 1120 l 1,1,-1
 942.05 952 l 1,2,-1
 319.25 147 l 1,3,-1
 942.05 147 l 1,4,-1
 942.05 0 l 1,5,-1
 132.95 0 l 1,6,-1
 132.95 168 l 1,7,-1
 755.75 973 l 1,8,-1
 155.45 973 l 1,9,-1
 155.45 1120 l 1,0,-1
EndSplineSet
EndChar
StartChar: braceleft
Encoding: 123 123 123
Width: 1237
Flags: W
Fore
1007.45 -190 m 1,0,-1
 1007.45 -334 l 1,1,-1
 951.65 -334 l 2,2,3
 727.55 -334 727.55 -334 651.5 -260 c 128,-1,4
 575.45 -186 575.45 -186 575.45 35 c 2,5,-1
 575.45 274 l 2,6,7
 575.45 425 575.45 425 526.85 483 c 128,-1,8
 478.25 541 478.25 541 350.45 541 c 2,9,-1
 295.55 541 l 1,10,-1
 295.55 684 l 1,11,-1
 350.45 684 l 2,12,13
 479.15 684 479.15 684 527.3 741.5 c 128,-1,14
 575.45 799 575.45 799 575.45 948 c 2,15,-1
 575.45 1188 l 2,16,17
 575.45 1409 575.45 1409 651.5 1482.5 c 128,-1,18
 727.55 1556 727.55 1556 951.65 1556 c 2,19,-1
 1007.45 1556 l 1,20,-1
 1007.45 1413 l 1,21,-1
 946.25 1413 l 2,22,23
 819.35 1413 819.35 1413 780.65 1369 c 128,-1,24
 741.95 1325 741.95 1325 741.95 1184 c 2,25,-1
 741.95 936 l 2,26,27
 741.95 779 741.95 779 701 708 c 128,-1,28
 660.05 637 660.05 637 561.05 612 c 1,29,30
 660.95 585 660.95 585 701.45 514 c 128,-1,31
 741.95 443 741.95 443 741.95 287 c 2,32,-1
 741.95 39 l 2,33,34
 741.95 -102 741.95 -102 780.65 -146 c 128,-1,35
 819.35 -190 819.35 -190 946.25 -190 c 2,36,-1
 1007.45 -190 l 1,0,-1
EndSplineSet
EndChar
StartChar: bar
Encoding: 124 124 124
Width: 655
Flags: W
Fore
421.5 1565 m 1,0,-1
 421.5 -483 l 1,1,-1
 268.5 -483 l 1,2,-1
 268.5 1565 l 1,3,-1
 421.5 1565 l 1,0,-1
EndSplineSet
EndChar
StartChar: braceright
Encoding: 125 125 125
Width: 1237
Flags: W
Fore
295.55 -190 m 1,0,-1
 358.55 -190 l 2,1,2
 484.55 -190 484.55 -190 522.8 -147 c 128,-1,3
 561.05 -104 561.05 -104 561.05 39 c 2,4,-1
 561.05 287 l 2,5,6
 561.05 443 561.05 443 601.55 514 c 128,-1,7
 642.05 585 642.05 585 741.95 612 c 1,8,9
 642.05 637 642.05 637 601.55 708 c 128,-1,10
 561.05 779 561.05 779 561.05 936 c 2,11,-1
 561.05 1184 l 2,12,13
 561.05 1326 561.05 1326 522.8 1369.5 c 128,-1,14
 484.55 1413 484.55 1413 358.55 1413 c 2,15,-1
 295.55 1413 l 1,16,-1
 295.55 1556 l 1,17,-1
 352.25 1556 l 2,18,19
 576.35 1556 576.35 1556 651.5 1482.5 c 128,-1,20
 726.65 1409 726.65 1409 726.65 1188 c 2,21,-1
 726.65 948 l 2,22,23
 726.65 799 726.65 799 775.25 741.5 c 128,-1,24
 823.85 684 823.85 684 951.65 684 c 2,25,-1
 1007.45 684 l 1,26,-1
 1007.45 541 l 1,27,-1
 951.65 541 l 2,28,29
 823.85 541 823.85 541 775.25 483 c 128,-1,30
 726.65 425 726.65 425 726.65 274 c 2,31,-1
 726.65 35 l 2,32,33
 726.65 -186 726.65 -186 651.5 -260 c 128,-1,34
 576.35 -334 576.35 -334 352.25 -334 c 2,35,-1
 295.55 -334 l 1,36,-1
 295.55 -190 l 1,0,-1
EndSplineSet
EndChar
StartChar: asciitilde
Encoding: 126 126 126
Width: 1630
Flags: W
Fore
1434.9 817 m 1,0,-1
 1434.9 639 l 1,1,2
 1340.4 560 1340.4 560 1259.85 526 c 128,-1,3
 1179.3 492 1179.3 492 1092 492 c 0,4,5
 993 492 993 492 861.6 551 c 0,6,7
 851.7 555 851.7 555 847.2 557 c 0,8,9
 840.9 560 840.9 560 827.4 565 c 0,10,11
 687.9 627 687.9 627 603.3 627 c 0,12,13
 524.1 627 524.1 627 446.7 588.5 c 128,-1,14
 369.3 550 369.3 550 281.1 467 c 1,15,-1
 281.1 645 l 1,16,17
 375.6 724 375.6 724 456.15 758.5 c 128,-1,18
 536.7 793 536.7 793 624 793 c 0,19,20
 723 793 723 793 855.3 733 c 0,21,22
 864.3 729 864.3 729 868.8 727 c 0,23,24
 876 724 876 724 888.6 719 c 0,25,26
 1028.1 657 1028.1 657 1112.7 657 c 0,27,28
 1190.1 657 1190.1 657 1266.15 695 c 128,-1,29
 1342.2 733 1342.2 733 1434.9 817 c 1,0,-1
EndSplineSet
EndChar
StartChar: exclamdown
Encoding: 161 161 161
Width: 779
Flags: W
Fore
501.85 1239 m 1,0,-1
 319.15 1239 l 1,1,-1
 319.15 1493 l 1,2,-1
 501.85 1493 l 1,3,-1
 501.85 1239 l 1,0,-1
501.85 0 m 1,4,-1
 319.15 0 l 1,5,-1
 319.15 655 l 1,6,-1
 338.05 1012 l 1,7,-1
 483.85 1012 l 1,8,-1
 501.85 655 l 1,9,-1
 501.85 0 l 1,4,-1
EndSplineSet
EndChar
StartChar: cent
Encoding: 162 162 162
Width: 1234
Flags: W
Fore
671.75 131 m 1,0,-1
 671.75 987 l 1,1,2
 539.45 969 539.45 969 465.65 856 c 128,-1,3
 391.85 743 391.85 743 391.85 559 c 0,4,5
 391.85 374 391.85 374 465.65 261 c 128,-1,6
 539.45 148 539.45 148 671.75 131 c 1,0,-1
1014.65 1077 m 1,7,-1
 1014.65 905 l 1,8,9
 948.05 946 948.05 946 886.85 967 c 128,-1,10
 825.65 988 825.65 988 764.45 991 c 1,11,-1
 763.55 127 l 1,12,13
 826.55 132 826.55 132 888.2 153 c 128,-1,14
 949.85 174 949.85 174 1014.65 213 c 1,15,-1
 1014.65 43 l 1,16,17
 956.15 13 956.15 13 894.5 -4.5 c 128,-1,18
 832.85 -22 832.85 -22 763.55 -29 c 1,19,-1
 763.55 -313 l 1,20,-1
 671.75 -313 l 1,21,-1
 671.75 -25 l 1,22,23
 454.85 -5 454.85 -5 335.6 148.5 c 128,-1,24
 216.35 302 216.35 302 216.35 559 c 0,25,26
 216.35 817 216.35 817 335.6 970 c 128,-1,27
 454.85 1123 454.85 1123 671.75 1145 c 1,28,-1
 671.75 1432 l 1,29,-1
 763.55 1432 l 1,30,-1
 764.45 1145 l 1,31,32
 830.15 1141 830.15 1141 891.8 1124.5 c 128,-1,33
 953.45 1108 953.45 1108 1014.65 1077 c 1,7,-1
EndSplineSet
EndChar
StartChar: sterling
Encoding: 163 163 163
Width: 1235
Flags: W
Fore
1054.35 1460 m 1,0,-1
 1054.35 1278 l 1,1,2
 985.95 1319 985.95 1319 924.75 1339.5 c 128,-1,3
 863.55 1360 863.55 1360 808.65 1360 c 0,4,5
 675.45 1360 675.45 1360 623.25 1282.5 c 128,-1,6
 571.05 1205 571.05 1205 571.05 993 c 2,7,-1
 571.05 778 l 1,8,-1
 922.95 778 l 1,9,-1
 922.95 635 l 1,10,-1
 571.05 635 l 1,11,-1
 571.05 170 l 1,12,-1
 1072.35 170 l 1,13,-1
 1072.35 0 l 1,14,-1
 178.65 0 l 1,15,-1
 178.65 170 l 1,16,-1
 391.05 170 l 1,17,-1
 391.05 635 l 1,18,-1
 211.95 635 l 1,19,-1
 211.95 778 l 1,20,-1
 391.05 778 l 1,21,-1
 391.05 1016 l 2,22,23
 391.05 1277 391.05 1277 487.35 1398.5 c 128,-1,24
 583.65 1520 583.65 1520 792.45 1520 c 0,25,26
 847.35 1520 847.35 1520 915.3 1504.5 c 128,-1,27
 983.25 1489 983.25 1489 1054.35 1460 c 1,0,-1
EndSplineSet
EndChar
StartChar: currency
Encoding: 164 164 164
Width: 1238
Flags: W
Fore
867.2 993 m 1,0,-1
 1053.5 1202 l 1,1,-1
 1156.1 1087 l 1,2,-1
 970.7 881 l 1,3,4
 1004 822 1004 822 1020.2 762.5 c 128,-1,5
 1036.4 703 1036.4 703 1036.4 641 c 0,6,7
 1036.4 578 1036.4 578 1019.3 520.5 c 128,-1,8
 1002.2 463 1002.2 463 966.2 406 c 1,9,-1
 1154.3 199 l 1,10,-1
 1051.7 86 l 1,11,-1
 865.4 293 l 1,12,13
 812.3 253 812.3 253 760.1 234 c 128,-1,14
 707.9 215 707.9 215 653 215 c 0,15,16
 600.8 215 600.8 215 546.8 233.5 c 128,-1,17
 492.8 252 492.8 252 437.9 289 c 1,18,-1
 251.6 82 l 1,19,-1
 149.9 197 l 1,20,-1
 336.2 403 l 1,21,22
 302.9 465 302.9 465 286.25 524 c 128,-1,23
 269.6 583 269.6 583 269.6 641 c 0,24,25
 269.6 705 269.6 705 286.7 763 c 128,-1,26
 303.8 821 303.8 821 338 877 c 1,27,-1
 151.7 1083 l 1,28,-1
 255.2 1198 l 1,29,-1
 441.5 991 l 1,30,31
 491 1030 491 1030 543.2 1048.5 c 128,-1,32
 595.4 1067 595.4 1067 653 1067 c 0,33,34
 707 1067 707 1067 759.65 1049 c 128,-1,35
 812.3 1031 812.3 1031 867.2 993 c 1,0,-1
895.1 643 m 0,36,37
 895.1 755 895.1 755 825.35 832 c 128,-1,38
 755.6 909 755.6 909 653 909 c 0,39,40
 552.2 909 552.2 909 481.1 832 c 128,-1,41
 410 755 410 755 410 643 c 0,42,43
 410 529 410 529 480.65 451 c 128,-1,44
 551.3 373 551.3 373 653 373 c 0,45,46
 754.7 373 754.7 373 824.9 451.5 c 128,-1,47
 895.1 530 895.1 530 895.1 643 c 0,36,37
EndSplineSet
EndChar
StartChar: yen
Encoding: 165 165 165
Width: 1237
Flags: W
Fore
1113.55 455 m 1,0,-1
 741.85 455 l 1,1,-1
 741.85 0 l 1,2,-1
 560.95 0 l 1,3,-1
 560.95 455 l 1,4,-1
 186.55 455 l 1,5,-1
 186.55 578 l 1,6,-1
 560.95 578 l 1,7,-1
 560.95 629 l 1,8,-1
 485.35 784 l 1,9,-1
 186.55 784 l 1,10,-1
 186.55 907 l 1,11,-1
 424.15 907 l 1,12,-1
 138.85 1493 l 1,13,-1
 309.85 1493 l 1,14,-1
 650.95 793 l 1,15,-1
 990.25 1493 l 1,16,-1
 1162.15 1493 l 1,17,-1
 875.95 907 l 1,18,-1
 1113.55 907 l 1,19,-1
 1113.55 784 l 1,20,-1
 815.65 784 l 1,21,-1
 740.05 629 l 1,22,-1
 740.05 578 l 1,23,-1
 1113.55 578 l 1,24,-1
 1113.55 455 l 1,0,-1
EndSplineSet
EndChar
StartChar: brokenbar
Encoding: 166 166 166
Width: 655
Flags: W
Fore
421.5 408 m 1,0,-1
 421.5 -350 l 1,1,-1
 268.5 -350 l 1,2,-1
 268.5 408 l 1,3,-1
 421.5 408 l 1,0,-1
421.5 1432 m 1,4,-1
 421.5 674 l 1,5,-1
 268.5 674 l 1,6,-1
 268.5 1432 l 1,7,-1
 421.5 1432 l 1,4,-1
EndSplineSet
EndChar
StartChar: section
Encoding: 167 167 167
Width: 972
Flags: W
Fore
392.2 936 m 1,0,1
 335.5 890 335.5 890 307.6 845 c 128,-1,2
 279.7 800 279.7 800 279.7 754 c 0,3,4
 279.7 678 279.7 678 342.25 611.5 c 128,-1,5
 404.8 545 404.8 545 629.8 410 c 1,6,7
 686.5 455 686.5 455 714.4 500.5 c 128,-1,8
 742.3 546 742.3 546 742.3 592 c 0,9,10
 742.3 667 742.3 667 677.95 735 c 128,-1,11
 613.6 803 613.6 803 392.2 936 c 1,0,1
797.2 1462 m 1,12,-1
 797.2 1298 l 1,13,14
 722.5 1337 722.5 1337 658.15 1356.5 c 128,-1,15
 593.8 1376 593.8 1376 543.4 1376 c 0,16,17
 456.1 1376 456.1 1376 407.5 1336 c 128,-1,18
 358.9 1296 358.9 1296 358.9 1225 c 0,19,20
 358.9 1135 358.9 1135 544.3 1020 c 0,21,22
 567.7 1005 567.7 1005 580.3 997 c 0,23,24
 770.2 878 770.2 878 829.15 801 c 128,-1,25
 888.1 724 888.1 724 888.1 623 c 0,26,27
 888.1 533 888.1 533 846.7 463 c 128,-1,28
 805.3 393 805.3 393 721.6 340 c 1,29,30
 777.4 288 777.4 288 803.05 233.5 c 128,-1,31
 828.7 179 828.7 179 828.7 115 c 0,32,33
 828.7 -27 828.7 -27 736.9 -111 c 128,-1,34
 645.1 -195 645.1 -195 489.4 -195 c 0,35,36
 423.7 -195 423.7 -195 354.4 -180.5 c 128,-1,37
 285.1 -166 285.1 -166 205.9 -137 c 1,38,-1
 205.9 27 l 1,39,40
 284.2 -12 284.2 -12 350.8 -31.5 c 128,-1,41
 417.4 -51 417.4 -51 469.6 -51 c 0,42,43
 561.4 -51 561.4 -51 612.25 -9 c 128,-1,44
 663.1 33 663.1 33 663.1 109 c 0,45,46
 663.1 211 663.1 211 464.2 334 c 2,47,-1
 441.7 348 l 2,48,49
 249.1 468 249.1 468 191.5 544.5 c 128,-1,50
 133.9 621 133.9 621 133.9 723 c 0,51,52
 133.9 814 133.9 814 175.75 885.5 c 128,-1,53
 217.6 957 217.6 957 299.5 1006 c 1,54,55
 246.4 1050 246.4 1050 219.85 1106 c 128,-1,56
 193.3 1162 193.3 1162 193.3 1231 c 0,57,58
 193.3 1361 193.3 1361 283.3 1440.5 c 128,-1,59
 373.3 1520 373.3 1520 522.7 1520 c 0,60,61
 588.4 1520 588.4 1520 657.25 1505.5 c 128,-1,62
 726.1 1491 726.1 1491 797.2 1462 c 1,12,-1
EndSplineSet
EndChar
StartChar: dieresis
Encoding: 168 168 168
Width: 972
Flags: W
Fore
596.6 1552 m 1,0,-1
 779.3 1552 l 1,1,-1
 779.3 1350 l 1,2,-1
 596.6 1350 l 1,3,-1
 596.6 1552 l 1,0,-1
244.7 1552 m 1,4,-1
 427.4 1552 l 1,5,-1
 427.4 1350 l 1,6,-1
 244.7 1350 l 1,7,-1
 244.7 1552 l 1,4,-1
EndSplineSet
Ligature: 0 1 'liga' space uni0308
EndChar
StartChar: copyright
Encoding: 169 169 169
Width: 1945
Flags: W
Fore
1024 1485 m 0,0,1
 1160.8 1485 1160.8 1485 1279.15 1430 c 128,-1,2
 1397.5 1375 1397.5 1375 1495.6 1266 c 0,3,4
 1593.7 1157 1593.7 1157 1642.3 1026 c 128,-1,5
 1690.9 895 1690.9 895 1690.9 741 c 0,6,7
 1690.9 589 1690.9 589 1642.3 458.5 c 128,-1,8
 1593.7 328 1593.7 328 1495.6 219 c 0,9,10
 1397.5 110 1397.5 110 1279.15 55 c 128,-1,11
 1160.8 0 1160.8 0 1024 0 c 0,12,13
 887.2 0 887.2 0 768.85 55 c 128,-1,14
 650.5 110 650.5 110 552.4 219 c 0,15,16
 454.3 328 454.3 328 405.7 458.5 c 128,-1,17
 357.1 589 357.1 589 357.1 741 c 0,18,19
 357.1 895 357.1 895 405.7 1026 c 128,-1,20
 454.3 1157 454.3 1157 552.4 1266 c 0,21,22
 650.5 1375 650.5 1375 768.85 1430 c 128,-1,23
 887.2 1485 887.2 1485 1024 1485 c 0,0,1
1024 1382 m 0,24,25
 906.1 1382 906.1 1382 804.4 1335 c 128,-1,26
 702.7 1288 702.7 1288 618.1 1194 c 0,27,28
 533.5 1100 533.5 1100 490.3 985.5 c 128,-1,29
 447.1 871 447.1 871 447.1 741 c 0,30,31
 447.1 612 447.1 612 490.3 498.5 c 128,-1,32
 533.5 385 533.5 385 618.1 291 c 0,33,34
 702.7 197 702.7 197 804.4 149.5 c 128,-1,35
 906.1 102 906.1 102 1024 102 c 0,36,37
 1142.8 102 1142.8 102 1244.95 149.5 c 128,-1,38
 1347.1 197 1347.1 197 1431.7 291 c 0,39,40
 1515.4 384 1515.4 384 1557.25 497 c 128,-1,41
 1599.1 610 1599.1 610 1599.1 741 c 0,42,43
 1599.1 874 1599.1 874 1556.8 987.5 c 128,-1,44
 1514.5 1101 1514.5 1101 1431.7 1194 c 0,45,46
 1347.1 1288 1347.1 1288 1244.95 1335 c 128,-1,47
 1142.8 1382 1142.8 1382 1024 1382 c 0,24,25
1293.1 1137 m 1,48,-1
 1293.1 1008 l 1,49,50
 1233.7 1041 1233.7 1041 1175.2 1057 c 128,-1,51
 1116.7 1073 1116.7 1073 1057.3 1073 c 0,52,53
 923.2 1073 923.2 1073 848.05 985.5 c 128,-1,54
 772.9 898 772.9 898 772.9 741 c 0,55,56
 772.9 582 772.9 582 849.85 495 c 128,-1,57
 926.8 408 926.8 408 1066.3 408 c 0,58,59
 1123.9 408 1123.9 408 1178.8 423.5 c 128,-1,60
 1233.7 439 1233.7 439 1293.1 473 c 1,61,-1
 1293.1 346 l 1,62,63
 1232.8 317 1232.8 317 1171.15 303 c 128,-1,64
 1109.5 289 1109.5 289 1046.5 289 c 0,65,66
 852.1 289 852.1 289 739.15 411 c 128,-1,67
 626.2 533 626.2 533 626.2 741 c 0,68,69
 626.2 950 626.2 950 739.15 1071 c 128,-1,70
 852.1 1192 852.1 1192 1046.5 1192 c 0,71,72
 1112.2 1192 1112.2 1192 1173.4 1178 c 128,-1,73
 1234.6 1164 1234.6 1164 1293.1 1137 c 1,48,-1
EndSplineSet
EndChar
StartChar: ordfeminine
Encoding: 170 170 170
Width: 915
Flags: W
Fore
172.2 592 m 1,0,-1
 791.4 592 l 1,1,-1
 791.4 469 l 1,2,-1
 172.2 469 l 1,3,-1
 172.2 592 l 1,0,-1
789.6 1165 m 2,4,-1
 789.6 717 l 1,5,-1
 655.5 717 l 1,6,-1
 655.5 829 l 1,7,8
 615.9 766 615.9 766 551.1 732 c 128,-1,9
 486.3 698 486.3 698 402.6 698 c 0,10,11
 287.4 698 287.4 698 219 765.5 c 128,-1,12
 150.6 833 150.6 833 150.6 946 c 0,13,14
 150.6 1081 150.6 1081 236.55 1150 c 128,-1,15
 322.5 1219 322.5 1219 491.7 1219 c 2,16,-1
 655.5 1219 l 1,17,-1
 655.5 1223 l 2,18,19
 655.5 1314 655.5 1314 602.85 1359.5 c 128,-1,20
 550.2 1405 550.2 1405 444.9 1405 c 0,21,22
 389.1 1405 389.1 1405 327.9 1388 c 128,-1,23
 266.7 1371 266.7 1371 205.5 1337 c 1,24,-1
 205.5 1464 l 1,25,26
 271.2 1492 271.2 1492 336.45 1506 c 128,-1,27
 401.7 1520 401.7 1520 463.8 1520 c 0,28,29
 628.5 1520 628.5 1520 709.05 1432 c 128,-1,30
 789.6 1344 789.6 1344 789.6 1165 c 2,4,-1
541.2 1104 m 2,31,32
 396.3 1104 396.3 1104 339.6 1070.5 c 128,-1,33
 282.9 1037 282.9 1037 282.9 958 c 0,34,35
 282.9 894 282.9 894 327 855.5 c 128,-1,36
 371.1 817 371.1 817 444.9 817 c 0,37,38
 538.5 817 538.5 817 597 889 c 128,-1,39
 655.5 961 655.5 961 655.5 1075 c 2,40,-1
 655.5 1104 l 1,41,-1
 541.2 1104 l 2,31,32
EndSplineSet
EndChar
StartChar: guillemotleft
Encoding: 171 171 171
Width: 1188
Flags: W
Fore
1015.85 1059 m 1,0,-1
 1015.85 868 l 1,1,-1
 744.95 600 l 1,2,-1
 1015.85 332 l 1,3,-1
 1015.85 141 l 1,4,-1
 593.75 559 l 1,5,-1
 593.75 641 l 1,6,-1
 1015.85 1059 l 1,0,-1
625.25 1059 m 1,7,-1
 625.25 868 l 1,8,-1
 354.35 600 l 1,9,-1
 625.25 332 l 1,10,-1
 625.25 141 l 1,11,-1
 203.15 559 l 1,12,-1
 203.15 641 l 1,13,-1
 625.25 1059 l 1,7,-1
EndSplineSet
KernsSLIFO: 356 -112 0 0 270 -36 0 0 268 -36 0 0 262 -36 0 0 286 -36 0 0 253 -36 0 0 221 -149 0 0 376 -149 0 0 255 -36 0 0 198 151 0 0 199 -36 0 0 121 -36 0 0 119 -36 0 0 118 -36 0 0 89 -149 0 0 87 -36 0 0 86 -112 0 0 84 -112 0 0 74 -36 0 0 71 -36 0 0 68 -36 0 0 67 -36 0 0 66 -36 0 0
EndChar
StartChar: logicalnot
Encoding: 172 172 172
Width: 1630
Flags: W
Fore
281.1 862 m 1,0,-1
 1434.9 862 l 1,1,-1
 1434.9 287 l 1,2,-1
 1283.7 287 l 1,3,-1
 1283.7 692 l 1,4,-1
 281.1 692 l 1,5,-1
 281.1 862 l 1,0,-1
EndSplineSet
EndChar
StartChar: sfthyphen
Encoding: 173 173 173
Width: 702
Flags: W
Fore
126.95 643 m 1,0,-1
 612.05 643 l 1,1,-1
 612.05 479 l 1,2,-1
 126.95 479 l 1,3,-1
 126.95 643 l 1,0,-1
EndSplineSet
EndChar
StartChar: registered
Encoding: 174 174 174
Width: 1945
Flags: W
Fore
1024 1382 m 0,0,1
 906.1 1382 906.1 1382 804.4 1335 c 128,-1,2
 702.7 1288 702.7 1288 618.1 1194 c 0,3,4
 533.5 1100 533.5 1100 490.3 985.5 c 128,-1,5
 447.1 871 447.1 871 447.1 741 c 0,6,7
 447.1 612 447.1 612 490.3 498.5 c 128,-1,8
 533.5 385 533.5 385 618.1 291 c 0,9,10
 702.7 197 702.7 197 804.4 149.5 c 128,-1,11
 906.1 102 906.1 102 1024 102 c 0,12,13
 1142.8 102 1142.8 102 1244.95 149.5 c 128,-1,14
 1347.1 197 1347.1 197 1431.7 291 c 0,15,16
 1515.4 384 1515.4 384 1557.25 497 c 128,-1,17
 1599.1 610 1599.1 610 1599.1 741 c 0,18,19
 1599.1 874 1599.1 874 1556.8 987.5 c 128,-1,20
 1514.5 1101 1514.5 1101 1431.7 1194 c 0,21,22
 1347.1 1288 1347.1 1288 1244.95 1335 c 128,-1,23
 1142.8 1382 1142.8 1382 1024 1382 c 0,0,1
1024 1485 m 0,24,25
 1160.8 1485 1160.8 1485 1279.15 1430 c 128,-1,26
 1397.5 1375 1397.5 1375 1495.6 1266 c 0,27,28
 1593.7 1157 1593.7 1157 1642.3 1026 c 128,-1,29
 1690.9 895 1690.9 895 1690.9 741 c 0,30,31
 1690.9 589 1690.9 589 1642.3 458.5 c 128,-1,32
 1593.7 328 1593.7 328 1495.6 219 c 0,33,34
 1397.5 110 1397.5 110 1279.15 55 c 128,-1,35
 1160.8 0 1160.8 0 1024 0 c 0,36,37
 887.2 0 887.2 0 768.85 55 c 128,-1,38
 650.5 110 650.5 110 552.4 219 c 0,39,40
 454.3 328 454.3 328 405.7 458.5 c 128,-1,41
 357.1 589 357.1 589 357.1 741 c 0,42,43
 357.1 895 357.1 895 405.7 1026 c 128,-1,44
 454.3 1157 454.3 1157 552.4 1266 c 0,45,46
 650.5 1375 650.5 1375 768.85 1430 c 128,-1,47
 887.2 1485 887.2 1485 1024 1485 c 0,24,25
999.7 1071 m 2,48,-1
 889 1071 l 1,49,-1
 889 795 l 1,50,-1
 999.7 795 l 2,51,52
 1098.7 795 1098.7 795 1137.85 826 c 128,-1,53
 1177 857 1177 857 1177 932 c 0,54,55
 1177 1008 1177 1008 1137.4 1039.5 c 128,-1,56
 1097.8 1071 1097.8 1071 999.7 1071 c 2,48,-1
1006 1174 m 2,57,58
 1164.4 1174 1164.4 1174 1242.7 1114.5 c 128,-1,59
 1321 1055 1321 1055 1321 934 c 0,60,61
 1321 848 1321 848 1273.75 792 c 128,-1,62
 1226.5 736 1226.5 736 1140.1 719 c 1,63,64
 1161.7 711 1161.7 711 1191.85 672.5 c 128,-1,65
 1222 634 1222 634 1263.4 561 c 1,66,-1
 1386.7 338 l 1,67,-1
 1231.9 338 l 1,68,-1
 1115.8 547 l 2,69,70
 1062.7 643 1062.7 643 1029.85 668.5 c 128,-1,71
 997 694 997 694 948.4 694 c 2,72,-1
 889 694 l 1,73,-1
 889 338 l 1,74,-1
 749.5 338 l 1,75,-1
 749.5 1174 l 1,76,-1
 1006 1174 l 2,57,58
EndSplineSet
EndChar
StartChar: macron
Encoding: 175 175 175
Width: 972
Flags: W
Fore
242.9 1526 m 1,0,-1
 781.1 1526 l 1,1,-1
 781.1 1378 l 1,2,-1
 242.9 1378 l 1,3,-1
 242.9 1526 l 1,0,-1
EndSplineSet
Ligature: 0 1 'liga' space uni0304
EndChar
StartChar: degree
Encoding: 176 176 176
Width: 972
Flags: W
Fore
512 1391 m 0,0,1
 440 1391 440 1391 390.5 1335.5 c 128,-1,2
 341 1280 341 1280 341 1200 c 0,3,4
 341 1121 341 1121 390.5 1066.5 c 128,-1,5
 440 1012 440 1012 512 1012 c 0,6,7
 584 1012 584 1012 633.5 1066.5 c 128,-1,8
 683 1121 683 1121 683 1200 c 0,9,10
 683 1279 683 1279 633.05 1335 c 128,-1,11
 583.1 1391 583.1 1391 512 1391 c 0,0,1
512 1520 m 0,12,13
 569.6 1520 569.6 1520 622.7 1495.5 c 128,-1,14
 675.8 1471 675.8 1471 714.5 1425 c 1,15,16
 755.9 1380 755.9 1380 776.6 1323 c 128,-1,17
 797.3 1266 797.3 1266 797.3 1200 c 0,18,19
 797.3 1068 797.3 1068 714.05 976.5 c 128,-1,20
 630.8 885 630.8 885 510.2 885 c 0,21,22
 388.7 885 388.7 885 307.7 975 c 128,-1,23
 226.7 1065 226.7 1065 226.7 1200 c 0,24,25
 226.7 1334 226.7 1334 309.5 1427 c 128,-1,26
 392.3 1520 392.3 1520 512 1520 c 0,12,13
EndSplineSet
EndChar
StartChar: plusminus
Encoding: 177 177 177
Width: 1630
Flags: W
Fore
933.6 1284 m 1,0,-1
 933.6 897 l 1,1,-1
 1434.9 897 l 1,2,-1
 1434.9 727 l 1,3,-1
 933.6 727 l 1,4,-1
 933.6 340 l 1,5,-1
 782.4 340 l 1,6,-1
 782.4 727 l 1,7,-1
 281.1 727 l 1,8,-1
 281.1 897 l 1,9,-1
 782.4 897 l 1,10,-1
 782.4 1284 l 1,11,-1
 933.6 1284 l 1,0,-1
281.1 170 m 1,12,-1
 1434.9 170 l 1,13,-1
 1434.9 0 l 1,14,-1
 281.1 0 l 1,15,-1
 281.1 170 l 1,12,-1
EndSplineSet
EndChar
StartChar: twosuperior
Encoding: 178 178 178
Width: 778
Flags: W
Fore
280.5 782 m 1,0,-1
 662.1 782 l 1,1,-1
 662.1 668 l 1,2,-1
 123.9 668 l 1,3,-1
 123.9 778 l 1,4,5
 154.5 809 154.5 809 211.2 865 c 0,6,7
 520.8 1170 520.8 1170 520.8 1264 c 0,8,9
 520.8 1330 520.8 1330 474 1370.5 c 128,-1,10
 427.2 1411 427.2 1411 350.7 1411 c 0,11,12
 303.9 1411 303.9 1411 249 1393.5 c 128,-1,13
 194.1 1376 194.1 1376 129.3 1341 c 1,14,-1
 129.3 1464 l 1,15,16
 198.6 1492 198.6 1492 258.45 1506 c 128,-1,17
 318.3 1520 318.3 1520 369.6 1520 c 0,18,19
 500.1 1520 500.1 1520 578.4 1454 c 128,-1,20
 656.7 1388 656.7 1388 656.7 1280 c 0,21,22
 656.7 1141 656.7 1141 358.8 857 c 0,23,24
 308.4 809 308.4 809 280.5 782 c 1,0,-1
EndSplineSet
EndChar
StartChar: threesuperior
Encoding: 179 179 179
Width: 779
Flags: W
Fore
512.35 1120 m 1,0,1
 595.15 1102 595.15 1102 640.6 1047.5 c 128,-1,2
 686.05 993 686.05 993 686.05 911 c 0,3,4
 686.05 787 686.05 787 600.55 720 c 128,-1,5
 515.05 653 515.05 653 355.75 653 c 0,6,7
 304.45 653 304.45 653 248.2 663.5 c 128,-1,8
 191.95 674 191.95 674 128.95 694 c 1,9,-1
 128.95 815 l 1,10,11
 175.75 788 175.75 788 229.3 775 c 128,-1,12
 282.85 762 282.85 762 343.15 762 c 0,13,14
 441.25 762 441.25 762 495.25 801.5 c 128,-1,15
 549.25 841 549.25 841 549.25 911 c 0,16,17
 549.25 985 549.25 985 499.3 1023 c 128,-1,18
 449.35 1061 449.35 1061 352.15 1061 c 2,19,-1
 274.75 1061 l 1,20,-1
 274.75 1169 l 1,21,-1
 359.35 1169 l 2,22,23
 443.95 1169 443.95 1169 487.6 1200.5 c 128,-1,24
 531.25 1232 531.25 1232 531.25 1292 c 0,25,26
 531.25 1350 531.25 1350 486.25 1380.5 c 128,-1,27
 441.25 1411 441.25 1411 355.75 1411 c 0,28,29
 319.75 1411 319.75 1411 273.85 1402 c 128,-1,30
 227.95 1393 227.95 1393 155.05 1370 c 1,31,-1
 155.05 1485 l 1,32,33
 220.75 1502 220.75 1502 278.35 1511 c 128,-1,34
 335.95 1520 335.95 1520 385.45 1520 c 0,35,36
 515.05 1520 515.05 1520 591.1 1461 c 128,-1,37
 667.15 1402 667.15 1402 667.15 1303 c 0,38,39
 667.15 1234 667.15 1234 626.65 1186 c 128,-1,40
 586.15 1138 586.15 1138 512.35 1120 c 1,0,1
EndSplineSet
EndChar
StartChar: acute
Encoding: 180 180 180
Width: 982
Flags: W
Fore
646.95 1638 m 1,0,-1
 826.05 1638 l 1,1,-1
 532.65 1262 l 1,2,-1
 394.95 1262 l 1,3,-1
 646.95 1638 l 1,0,-1
EndSplineSet
LCarets: 0 65535 '    ' 1 0 
Ligature: 0 1 'liga' space acutecomb
EndChar
StartChar: mu
Encoding: 181 181 181
Width: 1244
Flags: W
Fore
227.95 -426 m 1,0,-1
 227.95 1120 l 1,1,-1
 393.55 1120 l 1,2,-1
 393.55 424 l 2,3,4
 393.55 279 393.55 279 455.65 205 c 128,-1,5
 517.75 131 517.75 131 639.25 131 c 0,6,7
 772.45 131 772.45 131 839.5 215 c 128,-1,8
 906.55 299 906.55 299 906.55 467 c 2,9,-1
 906.55 1120 l 1,10,-1
 1072.15 1120 l 1,11,-1
 1072.15 258 l 2,12,13
 1072.15 198 1072.15 198 1087.9 169.5 c 128,-1,14
 1103.65 141 1103.65 141 1136.95 141 c 0,15,16
 1145.05 141 1145.05 141 1159.45 146.5 c 128,-1,17
 1173.85 152 1173.85 152 1199.05 164 c 1,18,-1
 1199.05 16 l 1,19,20
 1162.15 -7 1162.15 -7 1129.3 -18 c 128,-1,21
 1096.45 -29 1096.45 -29 1064.95 -29 c 0,22,23
 1002.85 -29 1002.85 -29 965.95 10 c 128,-1,24
 929.05 49 929.05 49 915.55 129 c 1,25,26
 870.55 50 870.55 50 805.3 10.5 c 128,-1,27
 740.05 -29 740.05 -29 651.85 -29 c 0,28,29
 560.05 -29 560.05 -29 495.7 10 c 128,-1,30
 431.35 49 431.35 49 393.55 127 c 1,31,-1
 393.55 -426 l 1,32,-1
 227.95 -426 l 1,0,-1
EndSplineSet
EndChar
StartChar: paragraph
Encoding: 182 182 182
Width: 1234
Flags: W
Fore
631.65 1493 m 2,0,-1
 1034.85 1493 l 1,1,-1
 1034.85 -197 l 1,2,-1
 907.95 -197 l 1,3,-1
 907.95 1370 l 1,4,-1
 736.95 1370 l 1,5,-1
 736.95 -197 l 1,6,-1
 609.15 -197 l 1,7,-1
 609.15 649 l 1,8,9
 415.65 666 415.65 666 309.9 776.5 c 128,-1,10
 204.15 887 204.15 887 204.15 1071 c 0,11,12
 204.15 1261 204.15 1261 321.15 1377 c 128,-1,13
 438.15 1493 438.15 1493 631.65 1493 c 2,0,-1
EndSplineSet
EndChar
StartChar: periodcentered
Encoding: 183 183 183
Width: 618
Flags: W
Fore
229.55 838 m 1,0,-1
 419.45 838 l 1,1,-1
 419.45 584 l 1,2,-1
 229.55 584 l 1,3,-1
 229.55 838 l 1,0,-1
EndSplineSet
EndChar
StartChar: cedilla
Encoding: 184 184 184
Width: 971
Flags: W
Fore
586.2 0 m 1,0,1
 635.7 -62 635.7 -62 660 -114.5 c 128,-1,2
 684.3 -167 684.3 -167 684.3 -215 c 0,3,4
 684.3 -304 684.3 -304 630.3 -349.5 c 128,-1,5
 576.3 -395 576.3 -395 470.1 -395 c 0,6,7
 428.7 -395 428.7 -395 389.55 -389 c 128,-1,8
 350.4 -383 350.4 -383 311.7 -371 c 1,9,-1
 311.7 -240 l 1,10,11
 342.3 -257 342.3 -257 375.6 -264.5 c 128,-1,12
 408.9 -272 408.9 -272 451.2 -272 c 0,13,14
 504.3 -272 504.3 -272 531.3 -248 c 128,-1,15
 558.3 -224 558.3 -224 558.3 -178 c 0,16,17
 558.3 -148 558.3 -148 538.95 -104.5 c 128,-1,18
 519.6 -61 519.6 -61 479.1 0 c 1,19,-1
 586.2 0 l 1,0,1
EndSplineSet
LCarets: 0 65535 '    ' 1 0 
Ligature: 0 1 'liga' space uni0327
EndChar
StartChar: onesuperior
Encoding: 185 185 185
Width: 781
Flags: W
Fore
182.7 778 m 1,0,-1
 366.3 778 l 1,1,-1
 366.3 1389 l 1,2,-1
 165.6 1348 l 1,3,-1
 165.6 1464 l 1,4,-1
 372.6 1503 l 1,5,-1
 495.9 1503 l 1,6,-1
 495.9 778 l 1,7,-1
 680.4 778 l 1,8,-1
 680.4 668 l 1,9,-1
 182.7 668 l 1,10,-1
 182.7 778 l 1,0,-1
EndSplineSet
EndChar
StartChar: ordmasculine
Encoding: 186 186 186
Width: 916
Flags: W
Fore
173.3 592 m 1,0,-1
 792.5 592 l 1,1,-1
 792.5 469 l 1,2,-1
 173.3 469 l 1,3,-1
 173.3 592 l 1,0,-1
482.9 1520 m 0,4,5
 644 1520 644 1520 736.7 1409.5 c 128,-1,6
 829.4 1299 829.4 1299 829.4 1108 c 0,7,8
 829.4 917 829.4 917 736.7 807.5 c 128,-1,9
 644 698 644 698 482.9 698 c 0,10,11
 321.8 698 321.8 698 228.2 808 c 128,-1,12
 134.6 918 134.6 918 134.6 1108 c 0,13,14
 134.6 1299 134.6 1299 228.2 1409.5 c 128,-1,15
 321.8 1520 321.8 1520 482.9 1520 c 0,4,5
482.9 1405 m 0,16,17
 388.4 1405 388.4 1405 331.7 1324.5 c 128,-1,18
 275 1244 275 1244 275 1108 c 0,19,20
 275 975 275 975 332.15 895 c 128,-1,21
 389.3 815 389.3 815 482.9 815 c 0,22,23
 577.4 815 577.4 815 633.65 895 c 128,-1,24
 689.9 975 689.9 975 689.9 1108 c 0,25,26
 689.9 1245 689.9 1245 634.1 1325 c 128,-1,27
 578.3 1405 578.3 1405 482.9 1405 c 0,16,17
EndSplineSet
EndChar
StartChar: guillemotright
Encoding: 187 187 187
Width: 1192
Flags: W
Fore
238.15 1059 m 1,0,-1
 660.25 641 l 1,1,-1
 660.25 559 l 1,2,-1
 238.15 141 l 1,3,-1
 238.15 332 l 1,4,-1
 509.05 600 l 1,5,-1
 238.15 868 l 1,6,-1
 238.15 1059 l 1,0,-1
628.75 1059 m 1,7,-1
 1050.85 641 l 1,8,-1
 1050.85 559 l 1,9,-1
 628.75 141 l 1,10,-1
 628.75 332 l 1,11,-1
 899.65 600 l 1,12,-1
 628.75 868 l 1,13,-1
 628.75 1059 l 1,7,-1
EndSplineSet
KernsSLIFO: 356 -188 0 0 270 -36 0 0 268 -36 0 0 262 -36 0 0 253 -36 0 0 221 -225 0 0 210 -36 0 0 212 -36 0 0 211 -36 0 0 193 -73 0 0 194 -73 0 0 376 -225 0 0 255 -36 0 0 213 -36 0 0 195 -73 0 0 192 -73 0 0 214 -36 0 0 199 -36 0 0 196 -73 0 0 121 -36 0 0 119 -36 0 0 118 -36 0 0 89 -225 0 0 88 -112 0 0 87 -112 0 0 86 -178 0 0 84 -188 0 0 79 -36 0 0 74 -36 0 0 68 -36 0 0 67 -36 0 0 66 -73 0 0 65 -73 0 0
EndChar
StartChar: questiondown
Encoding: 191 191 191
Width: 1032
Flags: W
Fore
504.15 1092 m 1,0,-1
 675.15 1092 l 1,1,-1
 675.15 936 l 2,2,3
 675.15 835 675.15 835 650.4 770 c 128,-1,4
 625.65 705 625.65 705 544.65 618 c 2,5,-1
 463.65 530 l 1,6,7
 411.45 477 411.45 477 388.5 430 c 128,-1,8
 365.55 383 365.55 383 365.55 334 c 0,9,10
 365.55 245 365.55 245 424.5 190 c 128,-1,11
 483.45 135 483.45 135 581.55 135 c 0,12,13
 651.75 135 651.75 135 732.75 170 c 128,-1,14
 813.75 205 813.75 205 900.15 272 c 1,15,-1
 900.15 84 l 1,16,17
 815.55 27 815.55 27 729.15 -1 c 128,-1,18
 642.75 -29 642.75 -29 550.05 -29 c 0,19,20
 384.45 -29 384.45 -29 283.65 68 c 128,-1,21
 182.85 165 182.85 165 182.85 324 c 0,22,23
 182.85 400 182.85 400 215.7 468.5 c 128,-1,24
 248.55 537 248.55 537 328.65 623 c 2,25,-1
 407.85 709 l 2,26,27
 451.05 756 451.05 756 468.15 782.5 c 128,-1,28
 485.25 809 485.25 809 492.45 834 c 0,29,30
 498.75 855 498.75 855 501.45 885 c 128,-1,31
 504.15 915 504.15 915 504.15 969 c 2,32,-1
 504.15 1092 l 1,0,-1
680.55 1239 m 1,33,-1
 498.75 1239 l 1,34,-1
 498.75 1493 l 1,35,-1
 680.55 1493 l 1,36,-1
 680.55 1239 l 1,33,-1
EndSplineSet
EndChar
StartChar: Aring
Encoding: 197 197 197
Width: 1330
Flags: W
Fore
836.8 1626 m 0,0,1
 836.8 1689 836.8 1689 796.75 1733.5 c 128,-1,2
 756.7 1778 756.7 1778 700 1778 c 0,3,4
 642.4 1778 642.4 1778 603.25 1734.5 c 128,-1,5
 564.1 1691 564.1 1691 564.1 1626 c 0,6,7
 564.1 1563 564.1 1563 603.7 1519 c 128,-1,8
 643.3 1475 643.3 1475 700 1475 c 0,9,10
 756.7 1475 756.7 1475 796.75 1519 c 128,-1,11
 836.8 1563 836.8 1563 836.8 1626 c 0,0,1
700 1294 m 1,12,-1
 455.2 551 l 1,13,-1
 945.7 551 l 1,14,-1
 700 1294 l 1,12,-1
564.1 1397 m 1,15,16
 509.2 1438 509.2 1438 481.3 1495.5 c 128,-1,17
 453.4 1553 453.4 1553 453.4 1626 c 0,18,19
 453.4 1741 453.4 1741 524.95 1821 c 128,-1,20
 596.5 1901 596.5 1901 700 1901 c 0,21,22
 802.6 1901 802.6 1901 875.05 1820.5 c 128,-1,23
 947.5 1740 947.5 1740 947.5 1626 c 0,24,25
 947.5 1556 947.5 1556 919.15 1497 c 128,-1,26
 890.8 1438 890.8 1438 836.8 1397 c 1,27,-1
 1315.6 0 l 1,28,-1
 1126.6 0 l 1,29,-1
 1004.2 383 l 1,30,-1
 398.5 383 l 1,31,-1
 276.1 0 l 1,32,-1
 84.4004 0 l 1,33,-1
 564.1 1397 l 1,15,16
EndSplineSet
Ligature: 0 0 'liga' A uni030A
EndChar
StartChar: AE
Encoding: 198 198 198
Width: 1889
Flags: W
Fore
1754.1 1493 m 1,0,-1
 1754.1 1323 l 1,1,-1
 1087.2 1323 l 1,2,-1
 1087.2 881 l 1,3,-1
 1727.1 881 l 1,4,-1
 1727.1 711 l 1,5,-1
 1087.2 711 l 1,6,-1
 1087.2 170 l 1,7,-1
 1771.2 170 l 1,8,-1
 1771.2 0 l 1,9,-1
 904.5 0 l 1,10,-1
 904.5 383 l 1,11,-1
 429.3 383 l 1,12,-1
 285.3 0 l 1,13,-1
 100.8 0 l 1,14,-1
 663.3 1493 l 1,15,-1
 1754.1 1493 l 1,0,-1
788.4 1335 m 1,16,-1
 491.4 551 l 1,17,-1
 904.5 551 l 1,18,-1
 904.5 1335 l 1,19,-1
 788.4 1335 l 1,16,-1
EndSplineSet
KernsSLIFO: 8222 -112 0 0 8221 -92 0 0 8220 -83 0 0
EndChar
StartChar: Eth
Encoding: 208 208 208
Width: 1502
Flags: W
Fore
263.7 1493 m 1,0,-1
 638.1 1493 l 2,1,2
 1027.8 1493 1027.8 1493 1210.5 1312.5 c 128,-1,3
 1393.2 1132 1393.2 1132 1393.2 748 c 0,4,5
 1393.2 362 1393.2 362 1210.05 181 c 128,-1,6
 1026.9 0 1026.9 0 638.1 0 c 2,7,-1
 263.7 0 l 1,8,-1
 263.7 700 l 1,9,-1
 82.7998 700 l 1,10,-1
 82.7998 844 l 1,11,-1
 263.7 844 l 1,12,-1
 263.7 1493 l 1,0,-1
446.4 1327 m 1,13,-1
 446.4 844 l 1,14,-1
 748.8 844 l 1,15,-1
 748.8 700 l 1,16,-1
 446.4 700 l 1,17,-1
 446.4 166 l 1,18,-1
 665.1 166 l 2,19,20
 943.2 166 943.2 166 1072.35 306 c 128,-1,21
 1201.5 446 1201.5 446 1201.5 748 c 0,22,23
 1201.5 1048 1201.5 1048 1072.35 1187.5 c 128,-1,24
 943.2 1327 943.2 1327 665.1 1327 c 2,25,-1
 446.4 1327 l 1,13,-1
EndSplineSet
KernsSLIFO: 7922 -112 0 0 562 -112 0 0 374 -112 0 0 260 -36 0 0 258 -36 0 0 256 -36 0 0 221 -112 0 0 193 -36 0 0 194 -36 0 0 8222 -188 0 0 376 -112 0 0 8221 -55 0 0 8220 -45 0 0 195 -36 0 0 192 -36 0 0 187 -36 0 0 171 -36 0 0 196 -36 0 0 89 -112 0 0 86 -36 0 0 65 -36 0 0
EndChar
StartChar: multiply
Encoding: 215 215 215
Width: 1630
Flags: W
Fore
1378.25 1100 m 1,0,-1
 966.95 641 l 1,1,-1
 1378.25 184 l 1,2,-1
 1271.15 63 l 1,3,-1
 858.05 522 l 1,4,-1
 444.95 63 l 1,5,-1
 338.75 184 l 1,6,-1
 749.15 641 l 1,7,-1
 338.75 1100 l 1,8,-1
 444.95 1221 l 1,9,-1
 858.05 762 l 1,10,-1
 1271.15 1221 l 1,11,-1
 1378.25 1100 l 1,0,-1
EndSplineSet
EndChar
StartChar: Oslash
Encoding: 216 216 216
Width: 1531
Flags: W
Fore
1165.95 1112 m 1,0,-1
 520.65 266 l 1,1,2
 576.45 202 576.45 202 648.9 168.5 c 128,-1,3
 721.35 135 721.35 135 806.85 135 c 0,4,5
 1004.85 135 1004.85 135 1120.5 299 c 128,-1,6
 1236.15 463 1236.15 463 1236.15 745 c 0,7,8
 1236.15 857 1236.15 857 1218.6 949 c 128,-1,9
 1201.05 1041 1201.05 1041 1165.95 1112 c 1,0,-1
1092.15 1225 m 1,10,11
 1037.25 1289 1037.25 1289 964.8 1322.5 c 128,-1,12
 892.35 1356 892.35 1356 806.85 1356 c 0,13,14
 608.85 1356 608.85 1356 492.3 1192 c 128,-1,15
 375.75 1028 375.75 1028 375.75 745 c 0,16,17
 375.75 633 375.75 633 393.3 539 c 128,-1,18
 410.85 445 410.85 445 445.95 377 c 1,19,-1
 1092.15 1225 l 1,10,11
325.35 219 m 1,20,21
 255.15 321 255.15 321 219.6 453 c 128,-1,22
 184.05 585 184.05 585 184.05 745 c 0,23,24
 184.05 1099 184.05 1099 353.7 1309.5 c 128,-1,25
 523.35 1520 523.35 1520 806.85 1520 c 0,26,27
 923.85 1520 923.85 1520 1023.3 1481.5 c 128,-1,28
 1122.75 1443 1122.75 1443 1201.05 1368 c 1,29,-1
 1346.85 1559 l 1,30,-1
 1438.65 1470 l 1,31,-1
 1285.65 1272 l 1,32,33
 1355.85 1169 1355.85 1169 1391.85 1036 c 128,-1,34
 1427.85 903 1427.85 903 1427.85 745 c 0,35,36
 1427.85 392 1427.85 392 1258.65 181.5 c 128,-1,37
 1089.45 -29 1089.45 -29 806.85 -29 c 0,38,39
 691.65 -29 691.65 -29 592.2 8.5 c 128,-1,40
 492.75 46 492.75 46 410.85 121 c 1,41,-1
 265.05 -70 l 1,42,-1
 172.35 18 l 1,43,-1
 325.35 219 l 1,20,21
EndSplineSet
EndChar
StartChar: Thorn
Encoding: 222 222 222
Width: 1183
Flags: W
Fore
249.2 1493 m 1,0,-1
 431 1493 l 1,1,-1
 431 1229 l 1,2,-1
 659.6 1229 l 2,3,4
 885.5 1229 885.5 1229 1001.15 1116.5 c 128,-1,5
 1116.8 1004 1116.8 1004 1116.8 784 c 0,6,7
 1116.8 564 1116.8 564 1001.15 451 c 128,-1,8
 885.5 338 885.5 338 659.6 338 c 2,9,-1
 431 338 l 1,10,-1
 431 0 l 1,11,-1
 249.2 0 l 1,12,-1
 249.2 1493 l 1,0,-1
431 1063 m 1,13,-1
 431 504 l 1,14,-1
 659.6 504 l 2,15,16
 786.5 504 786.5 504 855.8 577 c 128,-1,17
 925.1 650 925.1 650 925.1 784 c 0,18,19
 925.1 918 925.1 918 856.25 990.5 c 128,-1,20
 787.4 1063 787.4 1063 659.6 1063 c 2,21,-1
 431 1063 l 1,13,-1
EndSplineSet
KernsSLIFO: 8222 -188 0 0 8220 -36 0 0 58 -73 0 0 46 -149 0 0
EndChar
StartChar: germandbls
Encoding: 223 223 223
Width: 1230
Flags: W
Fore
236.5 1137 m 2,0,1
 236.5 1337 236.5 1337 344.05 1446.5 c 128,-1,2
 451.6 1556 451.6 1556 647.8 1556 c 0,3,4
 835 1556 835 1556 933.55 1440 c 128,-1,5
 1032.1 1324 1032.1 1324 1034.8 1100 c 1,6,7
 898.9 1092 898.9 1092 823.3 1034.5 c 128,-1,8
 747.7 977 747.7 977 747.7 881 c 0,9,10
 747.7 834 747.7 834 773.8 793.5 c 128,-1,11
 799.9 753 799.9 753 858.4 711 c 2,12,-1
 909.7 674 l 2,13,14
 1059.1 568 1059.1 568 1102.3 497 c 128,-1,15
 1145.5 426 1145.5 426 1145.5 326 c 0,16,17
 1145.5 154 1145.5 154 1044.25 62.5 c 128,-1,18
 943 -29 943 -29 753.1 -29 c 0,19,20
 695.5 -29 695.5 -29 634.3 -16.5 c 128,-1,21
 573.1 -4 573.1 -4 507.4 20 c 1,22,-1
 507.4 184 l 1,23,24
 579.4 154 579.4 154 642.4 139.5 c 128,-1,25
 705.4 125 705.4 125 763.9 125 c 0,26,27
 868.3 125 868.3 125 922.3 172.5 c 128,-1,28
 976.3 220 976.3 220 976.3 311 c 0,29,30
 976.3 374 976.3 374 949.75 416 c 128,-1,31
 923.2 458 923.2 458 832.3 520 c 2,32,-1
 749.5 575 l 2,33,34
 663.1 634 663.1 634 623.95 701.5 c 128,-1,35
 584.8 769 584.8 769 584.8 860 c 0,36,37
 584.8 987 584.8 987 659.95 1073 c 128,-1,38
 735.1 1159 735.1 1159 871 1188 c 1,39,40
 863.8 1291 863.8 1291 804.85 1347 c 128,-1,41
 745.9 1403 745.9 1403 644.2 1403 c 0,42,43
 527.2 1403 527.2 1403 466 1333.5 c 128,-1,44
 404.8 1264 404.8 1264 404.8 1133 c 2,45,-1
 404.8 0 l 1,46,-1
 236.5 0 l 1,47,-1
 236.5 1137 l 2,0,1
EndSplineSet
KernsSLIFO: 8222 -83 0 0 8221 -112 0 0 8220 -112 0 0 45 38 0 0
EndChar
StartChar: ae
Encoding: 230 230 230
Width: 1911
Flags: W
Fore
1647.5 660 m 1,0,1
 1646.6 811 1646.6 811 1572.35 901 c 128,-1,2
 1498.1 991 1498.1 991 1374.8 991 c 0,3,4
 1237.1 991 1237.1 991 1153.85 904 c 128,-1,5
 1070.6 817 1070.6 817 1058 659 c 1,6,-1
 1647.5 660 l 1,0,1
996.8 963 m 1,7,8
 1063.4 1053 1063.4 1053 1158.8 1100 c 128,-1,9
 1254.2 1147 1254.2 1147 1373 1147 c 0,10,11
 1576.4 1147 1576.4 1147 1695.2 1001.5 c 128,-1,12
 1814 856 1814 856 1814 606 c 2,13,-1
 1814 516 l 1,14,-1
 1052.6 516 l 1,15,16
 1063.4 325 1063.4 325 1155.2 225 c 128,-1,17
 1247 125 1247 125 1411.7 125 c 0,18,19
 1505.3 125 1505.3 125 1595.3 151.5 c 128,-1,20
 1685.3 178 1685.3 178 1775.3 231 c 1,21,-1
 1775.3 57 l 1,22,23
 1685.3 15 1685.3 15 1591.7 -7 c 128,-1,24
 1498.1 -29 1498.1 -29 1402.7 -29 c 0,25,26
 1252.4 -29 1252.4 -29 1140.8 31.5 c 128,-1,27
 1029.2 92 1029.2 92 959.9 211 c 1,28,29
 894.2 91 894.2 91 797 31 c 128,-1,30
 699.8 -29 699.8 -29 571.1 -29 c 0,31,32
 401 -29 401 -29 306.5 64.5 c 128,-1,33
 212 158 212 158 212 326 c 0,34,35
 212 515 212 515 325.85 611 c 128,-1,36
 439.7 707 439.7 707 665.6 707 c 2,37,-1
 897.8 707 l 1,38,-1
 897.8 725 l 2,39,40
 897.8 852 897.8 852 822.65 921.5 c 128,-1,41
 747.5 991 747.5 991 611.6 991 c 0,42,43
 525.2 991 525.2 991 443.3 968 c 128,-1,44
 361.4 945 361.4 945 285.8 899 c 1,45,-1
 285.8 1069 l 1,46,47
 376.7 1108 376.7 1108 462.2 1127.5 c 128,-1,48
 547.7 1147 547.7 1147 628.7 1147 c 0,49,50
 756.5 1147 756.5 1147 852.35 1099 c 128,-1,51
 948.2 1051 948.2 1051 996.8 963 c 1,7,8
733.1 563 m 2,52,53
 532.4 563 532.4 563 455 512 c 128,-1,54
 377.6 461 377.6 461 377.6 338 c 0,55,56
 377.6 240 377.6 240 435.65 182.5 c 128,-1,57
 493.7 125 493.7 125 593.6 125 c 0,58,59
 731.3 125 731.3 125 814.55 233.5 c 128,-1,60
 897.8 342 897.8 342 897.8 522 c 2,61,-1
 897.8 563 l 1,62,-1
 733.1 563 l 2,52,53
EndSplineSet
EndChar
StartChar: eth
Encoding: 240 240 240
Width: 1190
Flags: W
Fore
816.9 915 m 1,0,1
 771.9 932 771.9 932 732.3 940 c 128,-1,2
 692.7 948 692.7 948 655.8 948 c 0,3,4
 505.5 948 505.5 948 422.25 840 c 128,-1,5
 339 732 339 732 339 537 c 0,6,7
 339 349 339 349 417.3 238 c 128,-1,8
 495.6 127 495.6 127 627 127 c 0,9,10
 757.5 127 757.5 127 835.8 238 c 128,-1,11
 914.1 349 914.1 349 914.1 537 c 0,12,13
 914.1 659 914.1 659 889.8 753 c 128,-1,14
 865.5 847 865.5 847 816.9 915 c 1,0,1
873.6 1141 m 2,15,16
 987 998 987 998 1038.3 854 c 128,-1,17
 1089.6 710 1089.6 710 1089.6 537 c 0,18,19
 1089.6 282 1089.6 282 961.8 126.5 c 128,-1,20
 834 -29 834 -29 627 -29 c 0,21,22
 419.1 -29 419.1 -29 291.75 126.5 c 128,-1,23
 164.4 282 164.4 282 164.4 537 c 0,24,25
 164.4 787 164.4 787 288.6 942.5 c 128,-1,26
 412.8 1098 412.8 1098 611.7 1098 c 0,27,28
 627.9 1098 627.9 1098 651.3 1095.5 c 128,-1,29
 674.7 1093 674.7 1093 712.5 1088 c 1,30,-1
 569.4 1268 l 1,31,-1
 282.3 1161 l 1,32,-1
 252.6 1260 l 1,33,-1
 505.5 1352 l 1,34,-1
 342.6 1556 l 1,35,-1
 547.8 1556 l 1,36,-1
 662.1 1411 l 1,37,-1
 961.8 1522 l 1,38,-1
 991.5 1425 l 1,39,-1
 726 1327 l 1,40,-1
 873.6 1141 l 2,15,16
EndSplineSet
KernsSLIFO: 8222 -73 0 0 8221 -112 0 0 8220 -92 0 0
EndChar
StartChar: divide
Encoding: 247 247 247
Width: 1630
Flags: W
Fore
747.3 1135 m 1,0,-1
 968.7 1135 l 1,1,-1
 968.7 889 l 1,2,-1
 747.3 889 l 1,3,-1
 747.3 1135 l 1,0,-1
747.3 395 m 1,4,-1
 968.7 395 l 1,5,-1
 968.7 150 l 1,6,-1
 747.3 150 l 1,7,-1
 747.3 395 l 1,4,-1
281.1 727 m 1,8,-1
 1434.9 727 l 1,9,-1
 1434.9 557 l 1,10,-1
 281.1 557 l 1,11,-1
 281.1 727 l 1,8,-1
EndSplineSet
EndChar
StartChar: oslash
Encoding: 248 248 248
Width: 1190
Flags: W
Fore
877.1 801 m 1,0,-1
 438.8 209 l 1,1,2
 475.7 167 475.7 167 522.05 147 c 128,-1,3
 568.4 127 568.4 127 626.9 127 c 0,4,5
 759.2 127 759.2 127 836.6 243 c 128,-1,6
 914 359 914 359 914 559 c 0,7,8
 914 638 914 638 905 696.5 c 128,-1,9
 896 755 896 755 877.1 801 c 1,0,-1
813.2 909 m 1,10,11
 775.4 950 775.4 950 729.05 970.5 c 128,-1,12
 682.7 991 682.7 991 626.9 991 c 0,13,14
 491 991 491 991 414.95 873.5 c 128,-1,15
 338.9 756 338.9 756 338.9 545 c 0,16,17
 338.9 473 338.9 473 347.45 418 c 128,-1,18
 356 363 356 363 374 317 c 1,19,-1
 813.2 909 l 1,10,11
261.5 166 m 1,20,21
 212.9 243 212.9 243 188.6 341.5 c 128,-1,22
 164.3 440 164.3 440 164.3 559 c 0,23,24
 164.3 835 164.3 835 287.15 991 c 128,-1,25
 410 1147 410 1147 626.9 1147 c 0,26,27
 710.6 1147 710.6 1147 782.15 1121.5 c 128,-1,28
 853.7 1096 853.7 1096 914 1044 c 1,29,-1
 1039.1 1212 l 1,30,-1
 1124.6 1133 l 1,31,-1
 993.2 954 l 1,32,33
 1040.9 877 1040.9 877 1065.2 778 c 128,-1,34
 1089.5 679 1089.5 679 1089.5 559 c 0,35,36
 1089.5 284 1089.5 284 966.2 127.5 c 128,-1,37
 842.9 -29 842.9 -29 626.9 -29 c 0,38,39
 540.5 -29 540.5 -29 468.05 -3 c 128,-1,40
 395.6 23 395.6 23 338.9 74 c 1,41,-1
 213.8 -94 l 1,42,-1
 127.4 -16 l 1,43,-1
 261.5 166 l 1,20,21
EndSplineSet
EndChar
StartChar: thorn
Encoding: 254 254 254
Width: 1238
Flags: W
Fore
402.6 168 m 1,0,-1
 402.6 -426 l 1,1,-1
 236.1 -426 l 1,2,-1
 236.1 1556 l 1,3,-1
 402.6 1556 l 1,4,-1
 402.6 950 l 1,5,6
 454.8 1050 454.8 1050 534.45 1098.5 c 128,-1,7
 614.1 1147 614.1 1147 724.8 1147 c 0,8,9
 908.4 1147 908.4 1147 1023.15 985 c 128,-1,10
 1137.9 823 1137.9 823 1137.9 559 c 0,11,12
 1137.9 295 1137.9 295 1023.15 133 c 128,-1,13
 908.4 -29 908.4 -29 724.8 -29 c 0,14,15
 614.1 -29 614.1 -29 534.45 19.5 c 128,-1,16
 454.8 68 454.8 68 402.6 168 c 1,0,-1
966 559 m 0,17,18
 966 762 966 762 890.85 877.5 c 128,-1,19
 815.7 993 815.7 993 684.3 993 c 0,20,21
 552.9 993 552.9 993 477.75 877.5 c 128,-1,22
 402.6 762 402.6 762 402.6 559 c 0,23,24
 402.6 356 402.6 356 477.75 240.5 c 128,-1,25
 552.9 125 552.9 125 684.3 125 c 0,26,27
 815.7 125 815.7 125 890.85 240.5 c 128,-1,28
 966 356 966 356 966 559 c 0,17,18
EndSplineSet
EndChar
StartChar: Dcroat
Encoding: 272 272 272
Width: 1502
Flags: W
Fore
263.7 1493 m 1,0,-1
 638.1 1493 l 2,1,2
 1027.8 1493 1027.8 1493 1210.5 1312.5 c 128,-1,3
 1393.2 1132 1393.2 1132 1393.2 748 c 0,4,5
 1393.2 362 1393.2 362 1210.05 181 c 128,-1,6
 1026.9 0 1026.9 0 638.1 0 c 2,7,-1
 263.7 0 l 1,8,-1
 263.7 700 l 1,9,-1
 82.7998 700 l 1,10,-1
 82.7998 844 l 1,11,-1
 263.7 844 l 1,12,-1
 263.7 1493 l 1,0,-1
446.4 1327 m 1,13,-1
 446.4 844 l 1,14,-1
 748.8 844 l 1,15,-1
 748.8 700 l 1,16,-1
 446.4 700 l 1,17,-1
 446.4 166 l 1,18,-1
 665.1 166 l 2,19,20
 943.2 166 943.2 166 1072.35 306 c 128,-1,21
 1201.5 446 1201.5 446 1201.5 748 c 0,22,23
 1201.5 1048 1201.5 1048 1072.35 1187.5 c 128,-1,24
 943.2 1327 943.2 1327 665.1 1327 c 2,25,-1
 446.4 1327 l 1,13,-1
EndSplineSet
KernsSLIFO: 221 -112 0 0 193 -36 0 0 194 -36 0 0 8222 -188 0 0 376 -112 0 0 8221 -55 0 0 8220 -45 0 0 195 -36 0 0 192 -36 0 0 187 -36 0 0 171 -36 0 0 196 -36 0 0 89 -112 0 0 86 -36 0 0 65 -36 0 0
EndChar
StartChar: dcroat
Encoding: 273 273 273
Width: 1239
Flags: W
Fore
906.05 950 m 1,0,-1
 906.05 1284 l 1,1,-1
 612.65 1284 l 1,2,-1
 612.65 1409 l 1,3,-1
 906.05 1409 l 1,4,-1
 906.05 1556 l 1,5,-1
 1071.65 1556 l 1,6,-1
 1071.65 1409 l 1,7,-1
 1210.25 1409 l 1,8,-1
 1210.25 1284 l 1,9,-1
 1071.65 1284 l 1,10,-1
 1071.65 0 l 1,11,-1
 906.05 0 l 1,12,-1
 906.05 168 l 1,13,14
 853.85 68 853.85 68 774.2 19.5 c 128,-1,15
 694.55 -29 694.55 -29 582.95 -29 c 0,16,17
 400.25 -29 400.25 -29 285.5 133 c 128,-1,18
 170.75 295 170.75 295 170.75 559 c 0,19,20
 170.75 823 170.75 823 285.5 985 c 128,-1,21
 400.25 1147 400.25 1147 582.95 1147 c 0,22,23
 694.55 1147 694.55 1147 774.2 1098.5 c 128,-1,24
 853.85 1050 853.85 1050 906.05 950 c 1,0,-1
341.75 559 m 0,25,26
 341.75 356 341.75 356 416.9 240.5 c 128,-1,27
 492.05 125 492.05 125 623.45 125 c 0,28,29
 754.85 125 754.85 125 830.45 240.5 c 128,-1,30
 906.05 356 906.05 356 906.05 559 c 0,31,32
 906.05 762 906.05 762 830.45 877.5 c 128,-1,33
 754.85 993 754.85 993 623.45 993 c 0,34,35
 492.05 993 492.05 993 416.9 877.5 c 128,-1,36
 341.75 762 341.75 762 341.75 559 c 0,25,26
EndSplineSet
EndChar
StartChar: Hbar
Encoding: 294 294 294
Width: 1782
Flags: W
Fore
425.9 1493 m 1,0,-1
 607.7 1493 l 1,1,-1
 607.7 1269 l 1,0,0
 1268.3 1269 l 1,0,0
 1268.3 1493 l 1,4,-1
 1450.1 1493 l 1,5,-1
 1450.1 1269 l 1,0,0
 1601.3 1269 l 1,1,-1
 1601.3 1105 l 1,2,-1
 1450.1 1105 l 1,0,0
 1450.1 0 l 1,6,-1
 1268.3 0 l 1,7,-1
 1268.3 711 l 1,8,-1
 607.7 711 l 1,9,-1
 607.7 0 l 1,10,-1
 425.9 0 l 1,11,-1
 425.9 1105 l 1,0,0
 274.7 1105 l 1,3,-1
 274.7 1269 l 1,0,-1
 425.9 1269 l 1,0,0
 425.9 1493 l 1,0,-1
607.7 1105 m 1,0,0
 607.7 881 l 1,2,-1
 1268.3 881 l 1,3,-1
 1268.3 1105 l 1,0,0
 607.7 1105 l 1,0,0
EndSplineSet
EndChar
StartChar: hbar
Encoding: 295 295 295
Width: 1345
Flags: W
Fore
1129.85 676 m 2,0,-1
 1129.85 0 l 1,1,-1
 964.25 0 l 1,2,-1
 964.25 670 l 2,3,4
 964.25 829 964.25 829 908.45 908 c 128,-1,5
 852.65 987 852.65 987 741.05 987 c 0,6,7
 606.95 987 606.95 987 529.55 892 c 128,-1,8
 452.15 797 452.15 797 452.15 633 c 2,9,-1
 452.15 0 l 1,10,-1
 285.65 0 l 1,11,-1
 285.65 1270 l 1,0,0
 173.15 1270 l 1,3,-1
 173.15 1434 l 1,0,-1
 285.65 1434 l 1,0,0
 285.65 1556 l 1,12,-1
 452.15 1556 l 1,13,-1
 452.15 1434 l 1,0,0
 768.95 1434 l 1,1,-1
 768.95 1270 l 1,2,-1
 452.15 1270 l 1,0,0
 452.15 946 l 1,14,15
 511.55 1047 511.55 1047 592.1 1097 c 128,-1,16
 672.65 1147 672.65 1147 777.95 1147 c 0,17,18
 951.65 1147 951.65 1147 1040.75 1027.5 c 128,-1,19
 1129.85 908 1129.85 908 1129.85 676 c 2,0,-1
EndSplineSet
EndChar
StartChar: dotlessi
Encoding: 305 305 305
Width: 540
Flags: W
Fore
202.2 1120 m 1,0,-1
 367.8 1120 l 1,1,-1
 367.8 0 l 1,2,-1
 202.2 0 l 1,3,-1
 202.2 1120 l 1,0,-1
EndSplineSet
EndChar
StartChar: kgreenlandic
Encoding: 312 312 312
Width: 1135
Flags: W
Fore
235.7 1120 m 1,0,-1
 402.2 1120 l 1,1,-1
 402.2 635 l 1,2,-1
 896.3 1120 l 1,3,-1
 1107.8 1120 l 1,4,-1
 573.2 594 l 1,5,-1
 1130.3 0 l 1,6,-1
 914.3 0 l 1,7,-1
 402.2 545 l 1,8,-1
 402.2 0 l 1,9,-1
 235.7 0 l 1,10,-1
 235.7 1120 l 1,0,-1
EndSplineSet
EndChar
StartChar: Lslash
Encoding: 321 321 321
Width: 1092
Flags: W
Fore
246.25 1493 m 1,0,-1
 428.95 1493 l 1,1,-1
 428.95 877 l 1,2,-1
 710.65 1096 l 1,3,-1
 782.65 985 l 1,4,-1
 428.95 711 l 1,5,-1
 428.95 170 l 1,6,-1
 1083.25 170 l 1,7,-1
 1083.25 0 l 1,8,-1
 246.25 0 l 1,9,-1
 246.25 571 l 1,10,-1
 113.05 465 l 1,11,-1
 43.75 575 l 1,12,-1
 246.25 733 l 1,13,-1
 246.25 1493 l 1,0,-1
EndSplineSet
EndChar
StartChar: lslash
Encoding: 322 322 322
Width: 553
Flags: W
Fore
208.4 1556 m 1,0,-1
 374 1556 l 1,1,-1
 374 954 l 1,2,-1
 486.5 1044 l 1,3,-1
 554.9 938 l 1,4,-1
 374 797 l 1,5,-1
 374 0 l 1,6,-1
 208.4 0 l 1,7,-1
 208.4 666 l 1,8,-1
 97.7002 578 l 1,9,-1
 31.0996 684 l 1,10,-1
 208.4 825 l 1,11,-1
 208.4 1556 l 1,0,-1
EndSplineSet
EndChar
StartChar: Eng
Encoding: 330 330 330
Width: 1455
Flags: W
Fore
268.3 1493 m 1,0,-1
 433.9 1493 l 1,1,-1
 1098.1 344 l 1,2,-1
 1098.1 1493 l 1,3,-1
 1263.7 1493 l 1,4,-1
 1263.7 -20 l 18,5,-1
 1263.7 -234 1263.7 -234 1189.9 -330 c 128,-1,4
 1117 -426 1117 -426 954.1 -426 c 2,5,-1
 725.5 -426 l 1,6,-1
 725.5 -270 l 1,7,-1
 935.2 -270 l 2,8,9
 1029.7 -270 1029.7 -270 1063.9 -222 c 128,-1,10
 1098.1 -173 1098.1 -173 1098.1 0 c 1,6,-1
 433.9 1149 l 1,7,-1
 433.9 0 l 1,8,-1
 268.3 0 l 1,9,-1
 268.3 1493 l 1,0,-1
EndSplineSet
EndChar
StartChar: eng
Encoding: 331 331 331
Width: 1233
Flags: W
Fore
1077.1 676 m 2,0,-1
 1077.1 -20 l 2,2,3
 1077.1 -234 1077.1 -234 1003.3 -330 c 128,-1,4
 930.4 -426 930.4 -426 767.5 -426 c 2,5,-1
 538.9 -426 l 1,6,-1
 538.9 -270 l 1,7,-1
 748.6 -270 l 2,8,9
 843.1 -270 843.1 -270 877.3 -222 c 128,-1,10
 911.5 -173 911.5 -173 911.5 -20 c 2,11,-1
 911.5 670 l 2,3,4
 911.5 829 911.5 829 855.7 908 c 128,-1,5
 799.9 987 799.9 987 688.3 987 c 0,6,7
 554.2 987 554.2 987 476.8 892 c 128,-1,8
 399.4 797 399.4 797 399.4 633 c 2,9,-1
 399.4 0 l 1,10,-1
 232.9 0 l 1,11,-1
 232.9 1120 l 1,12,-1
 399.4 1120 l 1,13,-1
 399.4 946 l 1,14,15
 458.8 1047 458.8 1047 538.9 1097 c 128,-1,16
 619.9 1147 619.9 1147 725.2 1147 c 0,17,18
 898.9 1147 898.9 1147 988 1028 c 128,-1,19
 1077.1 908 1077.1 908 1077.1 676 c 2,0,-1
EndSplineSet
EndChar
StartChar: OE
Encoding: 338 338 338
Width: 2080
Flags: W
Fore
1946.55 1493 m 1,0,-1
 1946.55 1323 l 1,1,-1
 1278.75 1323 l 1,2,-1
 1278.75 881 l 1,3,-1
 1918.65 881 l 1,4,-1
 1918.65 711 l 1,5,-1
 1278.75 711 l 1,6,-1
 1278.75 170 l 1,7,-1
 1962.75 170 l 1,8,-1
 1962.75 0 l 1,9,-1
 1004.25 0 l 2,10,11
 614.55 0 614.55 0 413.4 190 c 128,-1,12
 212.25 380 212.25 380 212.25 748 c 0,13,14
 212.25 1113 212.25 1113 413.4 1303 c 128,-1,15
 614.55 1493 614.55 1493 1004.25 1493 c 2,16,-1
 1946.55 1493 l 1,0,-1
1096.95 1323 m 1,17,-1
 980.85 1323 l 2,18,19
 691.95 1323 691.95 1323 547.95 1179.5 c 128,-1,20
 403.95 1036 403.95 1036 403.95 748 c 0,21,22
 403.95 459 403.95 459 547.95 314.5 c 128,-1,23
 691.95 170 691.95 170 980.85 170 c 2,24,-1
 1096.95 170 l 1,25,-1
 1096.95 1323 l 1,17,-1
EndSplineSet
EndChar
StartChar: oe
Encoding: 339 339 339
Width: 1990
Flags: W
Fore
1726.8 660 m 1,0,1
 1725 812 1725 812 1651.2 901.5 c 128,-1,2
 1577.4 991 1577.4 991 1454.1 991 c 0,3,4
 1316.4 991 1316.4 991 1233.15 904 c 128,-1,5
 1149.9 817 1149.9 817 1137.3 659 c 1,6,-1
 1726.8 660 l 1,0,1
1893.3 606 m 2,7,-1
 1893.3 516 l 1,8,-1
 1131.9 516 l 1,9,10
 1142.7 326 1142.7 326 1234.5 226.5 c 128,-1,11
 1326.3 127 1326.3 127 1491 127 c 0,12,13
 1586.4 127 1586.4 127 1676.4 153 c 128,-1,14
 1766.4 179 1766.4 179 1854.6 231 c 1,15,-1
 1854.6 57 l 1,16,17
 1764.6 15 1764.6 15 1671 -7 c 128,-1,18
 1577.4 -29 1577.4 -29 1482 -29 c 0,19,20
 1338 -29 1338 -29 1229.1 26 c 128,-1,21
 1120.2 81 1120.2 81 1047.3 190 c 1,22,23
 983.4 80 983.4 80 889.35 25.5 c 128,-1,24
 795.3 -29 795.3 -29 669.3 -29 c 0,25,26
 452.4 -29 452.4 -29 329.55 127.5 c 128,-1,27
 206.7 284 206.7 284 206.7 559 c 0,28,29
 206.7 835 206.7 835 329.55 991 c 128,-1,30
 452.4 1147 452.4 1147 669.3 1147 c 0,31,32
 795.3 1147 795.3 1147 890.25 1091.5 c 128,-1,33
 985.2 1036 985.2 1036 1044.6 928 c 1,34,35
 1114.8 1035 1114.8 1035 1219.2 1091 c 128,-1,36
 1323.6 1147 1323.6 1147 1452.3 1147 c 0,37,38
 1655.7 1147 1655.7 1147 1774.5 1001.5 c 128,-1,39
 1893.3 856 1893.3 856 1893.3 606 c 2,7,-1
669.3 991 m 0,40,41
 536.1 991 536.1 991 458.7 875.5 c 128,-1,42
 381.3 760 381.3 760 381.3 559 c 0,43,44
 381.3 358 381.3 358 458.25 242.5 c 128,-1,45
 535.2 127 535.2 127 669.3 127 c 0,46,47
 801.6 127 801.6 127 879 243 c 128,-1,48
 956.4 359 956.4 359 956.4 559 c 0,49,50
 956.4 758 956.4 758 879 874.5 c 128,-1,51
 801.6 991 801.6 991 669.3 991 c 0,40,41
EndSplineSet
EndChar
StartChar: Tbar
Encoding: 358 358 358
Width: 1188
Flags: W
TeX: 0 0 0 0
Fore
57.1504 1493 m 1,0,-1
 1193.85 1493 l 1,1,-1
 1193.85 1323 l 1,2,-1
 716.85 1323 l 1,3,-1
 716.85 747 l 1,4,-1
 955.35 747 l 1,5,-1
 955.35 577 l 1,6,-1
 716.85 577 l 1,7,-1
 716.85 0 l 1,8,-1
 534.15 0 l 1,9,-1
 534.15 577 l 1,10,-1
 295.65 577 l 1,11,-1
 295.65 747 l 1,12,-1
 534.15 747 l 1,13,-1
 534.15 1323 l 1,14,-1
 57.1504 1323 l 1,15,-1
 57.1504 1493 l 1,0,-1
EndSplineSet
EndChar
StartChar: tbar
Encoding: 359 359 359
Width: 763
Flags: W
TeX: 0 0 0 0
Fore
377.95 1438 m 1,0,-1
 377.95 1120 l 1,1,-1
 719.05 1120 l 1,2,-1
 719.05 977 l 1,3,-1
 377.95 977 l 1,4,-1
 377.95 744 l 1,0,0
 548.95 744 l 1,0,0
 548.95 602 l 1,0,0
 377.95 602 l 1,0,0
 377.95 369 l 2,5,6
 377.95 232 377.95 232 411.25 193 c 128,-1,7
 445.45 154 445.45 154 548.95 154 c 2,8,-1
 719.05 154 l 1,9,-1
 719.05 0 l 1,10,-1
 548.95 0 l 2,11,12
 357.25 0 357.25 0 284.35 80 c 128,-1,13
 211.45 159 211.45 159 211.45 369 c 2,14,-1
 211.45 602 l 1,0,0
 89.9502 602 l 1,0,0
 89.9502 744 l 1,0,0
 211.45 744 l 1,0,0
 211.45 977 l 1,15,-1
 89.9502 977 l 1,16,-1
 89.9502 1120 l 1,17,-1
 211.45 1120 l 1,18,-1
 211.45 1438 l 1,19,-1
 377.95 1438 l 1,0,-1
EndSplineSet
EndChar
StartChar: longs
Encoding: 383 383 383
Width: 689
Flags: W
TeX: 0 0 0 0
Fore
407.55 0 m 1,10,-1
 241.05 0 l 1,11,-1
 241.05 977 l 1,12,-1
 82.6504 977 l 1,13,-1
 82.6504 1120 l 1,14,-1
 241.05 1120 l 1,15,-1
 241.05 1198 l 2,16,17
 241.05 1385 241.05 1385 319.35 1470.5 c 128,-1,18
 397.65 1556 397.65 1556 567.75 1556 c 2,19,-1
 724.35 1556 l 1,0,-1
 724.35 1403 l 1,1,-1
 565.95 1403 l 2,2,3
 476.85 1403 476.85 1403 442.2 1363 c 128,-1,4
 407.55 1321.93 407.55 1321.93 407.55 1219 c 2,5,-1
 407.55 0 l 1,10,-1
EndSplineSet
EndChar
StartChar: uni0180
Encoding: 384 384 384
Width: 1231
Flags: W
TeX: 117 0 0 0
Fore
958.3 559 m 0,0,1
 958.3 762 958.3 762 883.15 877.5 c 0,2,3
 808 993 808 993 676.6 993 c 0,4,5
 545.2 993 545.2 993 470.05 877.5 c 0,6,7
 394.9 762 394.9 762 394.9 559 c 0,8,9
 394.9 356 394.9 356 470.05 240.5 c 0,10,11
 545.2 125 545.2 125 676.6 125 c 0,12,13
 808 125 808 125 883.15 240.5 c 0,14,15
 958.3 356 958.3 356 958.3 559 c 0,0,1
394.9 950 m 1,16,17
 447.1 1050.01 447.1 1050.01 526.75 1098.5 c 0,18,19
 606.408 1147 606.408 1147 717.1 1147 c 0,20,21
 900.7 1147 900.7 1147 1015.45 985 c 0,22,23
 1130.2 823 1130.2 823 1130.2 559 c 0,24,25
 1130.2 295 1130.2 295 1015.45 133 c 0,26,27
 900.7 -29 900.7 -29 717.1 -29 c 0,28,29
 606.4 -29 606.4 -29 526.75 19.5 c 0,30,31
 447.1 68 447.1 68 394.9 168 c 1,32,-1
 394.9 0 l 1,33,-1
 228.4 0 l 1,34,-1
 228.4 1284 l 1,35,-1
 89.7998 1284 l 1,36,-1
 89.7998 1409 l 1,37,-1
 228.4 1409 l 1,38,-1
 228.4 1556 l 1,39,-1
 394.9 1556 l 1,40,-1
 394.9 1409 l 1,41,-1
 687.4 1409 l 1,42,-1
 687.4 1284 l 1,43,-1
 394.9 1284 l 1,44,-1
 394.9 950 l 1,16,17
EndSplineSet
EndChar
StartChar: uni0186
Encoding: 390 390 390
Width: 1358
Flags: W
TeX: 117 0 0 0
Fore
175.2 1378 m 1,0,-1
 268.8 1449 268.8 1449 375.45 1484.5 c 128,-1,25
 482.1 1520 482.1 1520 602.7 1520 c 0,23,24
 907.8 1520 907.8 1520 1083.3 1312.5 c 128,-1,22
 1258.8 1105 1258.8 1105 1258.8 745 c 0,20,21
 1258.8 386 1258.8 386 1083.3 178.5 c 128,-1,19
 907.8 -29 907.8 -29 602.7 -29 c 0,17,18
 483.9 -29 483.9 -29 377.25 7 c 128,-1,16
 270.6 43 270.6 43 175.2 115 c 1,14,15
 175.2 326 l 1,13,-1
 267 231 267 231 370.95 184 c 128,-1,12
 474.9 137 474.9 137 591.9 137 c 0,10,11
 822.3 137 822.3 137 944.7 293.5 c 128,-1,9
 1067.1 450 1067.1 450 1067.1 745 c 0,7,8
 1067.1 1041 1067.1 1041 944.7 1197.5 c 128,-1,6
 822.3 1354 822.3 1354 591.9 1354 c 0,4,5
 474.9 1354 474.9 1354 370.95 1307 c 128,-1,3
 267 1260 267 1260 175.2 1165 c 1,1,2
 175.2 1378 l 1,0,-1
EndSplineSet
EndChar
StartChar: uni0190
Encoding: 400 400 400
Width: 1237
Flags: W
TeX: 117 0 0 0
Fore
482.35 805 m 1,0,1
 364.45 838 364.45 838 300.55 923.5 c 128,-1,40
 236.65 1009 236.65 1009 236.65 1133 c 0,38,39
 236.65 1311 236.65 1311 357.25 1415.5 c 128,-1,37
 477.85 1520 477.85 1520 684.85 1520 c 0,35,36
 764.95 1520 764.95 1520 855.4 1504 c 128,-1,34
 945.85 1488 945.85 1488 1049.35 1456 c 1,32,33
 1049.35 1276 l 1,31,-1
 946.75 1314 946.75 1314 861.25 1332 c 128,-1,30
 775.75 1350 775.75 1350 701.05 1350 c 0,28,29
 564.25 1350 564.25 1350 490.9 1288.5 c 128,-1,27
 417.55 1227 417.55 1227 417.55 1112 c 0,25,26
 417.55 1000 417.55 1000 488.65 940.5 c 128,-1,24
 559.75 881 559.75 881 693.85 881 c 2,22,23
 857.65 881 l 1,21,-1
 857.65 715 l 1,20,-1
 701.05 715 l 2,19,-1
 552.55 715 552.55 715 469.3 640.5 c 128,-1,18
 386.05 566 386.05 566 386.05 434 c 0,16,17
 386.05 291 386.05 291 475.6 216 c 128,-1,15
 565.15 141 565.15 141 736.15 141 c 0,13,14
 834.25 141 834.25 141 924.25 166 c 128,-1,12
 1014.25 191 1014.25 191 1089.85 240 c 1,10,11
 1089.85 45 l 1,9,-1
 994.45 8 994.45 8 904.9 -10.5 c 128,-1,8
 815.35 -29 815.35 -29 730.75 -29 c 0,6,7
 478.75 -29 478.75 -29 341.95 92 c 128,-1,5
 205.15 213 205.15 213 205.15 434 c 0,3,4
 205.15 578 205.15 578 278.5 676 c 128,-1,2
 351.85 774 351.85 774 482.35 805 c 1,0,1
EndSplineSet
EndChar
StartChar: florin
Encoding: 402 402 402
Width: 1238
Flags: W
Fore
1219.45 1520 m 1,0,-1
 1219.45 1356 l 1,1,2
 1185.25 1385 1185.25 1385 1149.25 1399 c 128,-1,3
 1113.25 1413 1113.25 1413 1073.65 1413 c 0,4,5
 987.25 1413 987.25 1413 935.95 1352 c 128,-1,6
 884.65 1291 884.65 1291 862.15 1159 c 1,7,-1
 808.15 848 l 1,8,-1
 1066.45 848 l 1,9,-1
 1066.45 705 l 1,10,-1
 781.15 705 l 1,11,-1
 666.85 70 l 1,12,13
 614.65 -215 614.65 -215 530.05 -320.5 c 128,-1,14
 445.45 -426 445.45 -426 278.05 -426 c 0,15,16
 225.85 -426 225.85 -426 180.85 -415.5 c 128,-1,17
 135.85 -405 135.85 -405 93.5498 -383 c 1,18,-1
 93.5498 -217 l 1,19,20
 140.35 -250 140.35 -250 184 -266.5 c 128,-1,21
 227.65 -283 227.65 -283 269.95 -283 c 0,22,23
 357.25 -283 357.25 -283 406.3 -214.5 c 128,-1,24
 455.35 -146 455.35 -146 485.95 20 c 1,25,-1
 609.25 705 l 1,26,-1
 386.05 705 l 1,27,-1
 386.05 848 l 1,28,-1
 637.15 848 l 1,29,-1
 693.85 1178 l 1,30,31
 726.25 1361 726.25 1361 815.35 1458.5 c 128,-1,32
 904.45 1556 904.45 1556 1040.35 1556 c 0,33,34
 1088.05 1556 1088.05 1556 1133.05 1547 c 128,-1,35
 1178.05 1538 1178.05 1538 1219.45 1520 c 1,0,-1
EndSplineSet
EndChar
StartChar: uni0194
Encoding: 404 404 404
Width: 1334
Flags: W
TeX: 0 0 0 0
Fore
820.6 650 m 1,0,1
 1114.9 201 1114.9 201 1112.2 -194 c 8,2,3
 1109.5 -430 1109.5 -430 737.8 -430 c 8,4,5
 370.6 -430 370.6 -430 341.8 -194 c 16,6,7
 297.7 172 297.7 172 606.4 657 c 1,8,-1
 187.9 1353 l 1,9,-1
 383.2 1353 l 1,10,-1
 717.1 798 l 1,11,-1
 1052.8 1353 l 1,12,-1
 1248.1 1353 l 1,13,-1
 820.6 650 l 1,0,1
703.6 495 m 1,14,15
 518.2 194 518.2 194 524.5 -130 c 8,16,17
 527.2 -268 527.2 -268 718.9 -268 c 16,18,19
 903.4 -268 903.4 -268 902.5 -130 c 16,20,21
 899.8 200 899.8 200 703.6 495 c 1,14,15
EndSplineSet
EndChar
StartChar: dotlessj
Encoding: 567 567 567
Width: 529
Flags: W
Fore
190.7 1120 m 1,0,-1
 356.3 1120 l 1,1,-1
 356.3 -20 l 2,2,3
 356.3 -234 356.3 -234 282.95 -330 c 128,-1,4
 209.6 -426 209.6 -426 46.7002 -426 c 2,5,-1
 -16.2998 -426 l 1,6,-1
 -16.2998 -270 l 1,7,-1
 27.7998 -270 l 2,8,9
 122.3 -270 122.3 -270 156.5 -221.5 c 128,-1,10
 190.7 -173 190.7 -173 190.7 -20 c 2,11,-1
 190.7 1120 l 1,0,-1
EndSplineSet
EndChar
StartChar: uni0250
Encoding: 592 592 592
Width: 1189
Flags: W
Fore
500.6 555 m 2,0,1
 701.3 555 701.3 555 778.7 606 c 128,-1,2
 856.1 657 856.1 657 856.1 780 c 0,3,4
 856.1 878 856.1 878 797.6 936 c 0,5,6
 740 993 740 993 640.1 993 c 0,7,8
 502.4 993 502.4 993 419.6 884 c 0,9,10
 335.9 776 335.9 776 335.9 596 c 2,11,-1
 335.9 555 l 1,12,-1
 500.6 555 l 2,0,1
170.3 479 m 2,13,-1
 170.3 1118 l 1,14,-1
 335.9 1118 l 1,15,-1
 335.9 948 l 1,16,17
 392.6 1050 392.6 1050 477.2 1098 c 0,18,19
 561.8 1147 561.8 1147 684.2 1147 c 0,20,21
 839 1147 839 1147 930.8 1050 c 0,22,23
 1021.7 954 1021.7 954 1021.7 792 c 0,24,25
 1021.7 603 1021.7 603 907.4 507 c 0,26,27
 794 411 794 411 568.1 411 c 2,28,-1
 335.9 411 l 1,29,-1
 335.9 393 l 2,30,31
 335.9 266 335.9 266 410.6 196 c 0,32,33
 486.2 127 486.2 127 622.1 127 c 0,34,35
 708.5 127 708.5 127 790.4 150 c 128,-1,36
 872.3 173 872.3 173 947.9 219 c 1,37,-1
 947.9 49 l 1,38,39
 857 10 857 10 771.5 -10 c 0,40,41
 686 -29 686 -29 605 -29 c 0,42,43
 386.3 -29 386.3 -29 278.3 97 c 128,-1,44
 170.3 223 170.3 223 170.3 479 c 2,13,-1
EndSplineSet
EndChar
StartChar: uni0251
Encoding: 593 593 593
Width: 1231
Flags: W
TeX: 0 0 0 0
Fore
898.35 950 m 1,0,-1
 898.35 1120 l 1,1,-1
 1063.95 1120 l 1,2,-1
 1063.95 0 l 1,3,-1
 898.35 0 l 1,4,-1
 898.35 168 l 1,5,6
 846.15 68 846.15 68 766.95 20 c 0,7,8
 686.85 -29 686.85 -29 575.25 -29 c 0,9,10
 392.55 -29 392.55 -29 277.35 133 c 0,11,12
 163.05 295 163.05 295 163.05 559 c 128,-1,13
 163.05 823 163.05 823 277.35 985 c 0,14,15
 392.55 1147 392.55 1147 575.25 1147 c 0,16,17
 686.85 1147 686.85 1147 766.95 1098 c 0,18,19
 846.15 1050 846.15 1050 898.35 950 c 1,0,-1
334.05 559 m 0,20,21
 334.05 356 334.05 356 408.75 240 c 0,22,23
 484.35 125 484.35 125 615.75 125 c 128,-1,24
 747.15 125 747.15 125 822.75 240 c 0,25,26
 898.35 356 898.35 356 898.35 559 c 128,-1,27
 898.35 762 898.35 762 822.75 878 c 0,28,29
 747.15 993 747.15 993 615.75 993 c 128,-1,30
 484.35 993 484.35 993 408.75 878 c 0,31,32
 334.05 762 334.05 762 334.05 559 c 0,20,21
EndSplineSet
EndChar
StartChar: uni0252
Encoding: 594 594 594
Width: 1231
Flags: W
TeX: 0 0 0 0
Fore
328.65 168 m 1,0,-1
 328.65 -2 l 1,1,-1
 163.05 -2 l 1,2,-1
 163.05 1118 l 1,3,-1
 328.65 1118 l 1,4,-1
 328.65 950 l 1,5,6
 380.85 1050 380.85 1050 460.95 1098 c 0,7,8
 540.15 1147 540.15 1147 651.75 1147 c 0,9,10
 834.45 1147 834.45 1147 948.75 985 c 0,11,12
 1063.95 823 1063.95 823 1063.95 559 c 128,-1,13
 1063.95 295 1063.95 295 948.75 133 c 0,14,15
 834.45 -29 834.45 -29 651.75 -29 c 0,16,17
 540.15 -29 540.15 -29 460.95 20 c 0,18,19
 380.85 68 380.85 68 328.65 168 c 1,0,-1
892.95 559 m 0,20,21
 892.95 762 892.95 762 817.35 878 c 0,22,23
 742.65 993 742.65 993 611.25 993 c 128,-1,24
 479.85 993 479.85 993 404.25 878 c 0,25,26
 328.65 762 328.65 762 328.65 559 c 128,-1,27
 328.65 356 328.65 356 404.25 240 c 0,28,29
 479.85 125 479.85 125 611.25 125 c 128,-1,30
 742.65 125 742.65 125 817.35 240 c 0,31,32
 892.95 356 892.95 356 892.95 559 c 0,20,21
EndSplineSet
EndChar
StartChar: uni0253
Encoding: 595 595 595
Width: 1238
Flags: W
TeX: 0 0 0 0
Fore
966 559 m 0,0,1
 966 762 966 762 891.3 878 c 0,2,3
 815.7 993 815.7 993 684.3 993 c 128,-1,4
 552.9 993 552.9 993 477.3 878 c 0,5,6
 402.6 762 402.6 762 402.6 559 c 128,-1,7
 402.6 356 402.6 356 477.3 240 c 0,8,9
 552.9 125 552.9 125 684.3 125 c 128,-1,10
 815.7 125 815.7 125 891.3 240 c 0,11,12
 966 356 966 356 966 559 c 0,0,1
401.7 950 m 1,13,14
 453.9 1050 453.9 1050 534.9 1098 c 0,15,16
 614.1 1147 614.1 1147 724.8 1147 c 0,17,18
 908.4 1147 908.4 1147 1022.7 985 c 0,19,20
 1137.9 823 1137.9 823 1137.9 559 c 128,-1,21
 1137.9 295 1137.9 295 1022.7 133 c 0,22,23
 908.4 -29 908.4 -29 724.8 -29 c 0,24,25
 614.1 -29 614.1 -29 534.9 20 c 0,26,27
 454.8 68 454.8 68 402.6 168 c 1,28,-1
 402.6 0 l 1,29,-1
 236.1 0 l 1,30,-1
 236.1 1002 l 1,31,-1
 236.1 1150 l 2,32,33
 236.1 1364 236.1 1364 309.9 1460 c 0,34,35
 382.8 1556 382.8 1556 545.7 1556 c 2,36,-1
 774.3 1556 l 1,37,-1
 774.3 1400 l 1,38,-1
 564.6 1400 l 2,39,40
 466.5 1400 466.5 1400 435.9 1352 c 0,41,42
 401.7 1300 401.7 1300 401.7 1150 c 2,43,-1
 401.7 1002 l 1,44,-1
 401.7 950 l 1,13,14
EndSplineSet
EndChar
StartChar: uni0254
Encoding: 596 596 596
Width: 1069
Flags: W
Fore
157.3 1077 m 1,0,1
 225.7 1112 225.7 1112 298.6 1130 c 0,2,3
 371.5 1147 371.5 1147 448 1147 c 0,4,5
 683.8 1147 683.8 1147 818.8 990 c 0,6,7
 954.7 833 954.7 833 954.7 559 c 0,8,9
 954.7 289 954.7 289 820.6 130 c 128,-1,10
 686.5 -29 686.5 -29 458.8 -29 c 0,11,12
 375.1 -29 375.1 -29 300.4 -11 c 0,13,14
 226.6 7 226.6 7 157.3 43 c 1,15,-1
 157.3 213 l 1,16,17
 227.5 170 227.5 170 298.6 148 c 0,18,19
 368.8 127 368.8 127 440.8 127 c 0,20,21
 601.9 127 601.9 127 691 240 c 0,22,23
 780.1 354 780.1 354 780.1 559 c 128,-1,24
 780.1 764 780.1 764 691 878 c 0,25,26
 601.9 991 601.9 991 440.8 991 c 0,27,28
 368.8 991 368.8 991 298.6 970 c 0,29,30
 227.5 948 227.5 948 157.3 905 c 1,31,-1
 157.3 1077 l 1,0,1
EndSplineSet
EndChar
StartChar: uni0255
Encoding: 597 597 597
Width: 1069
Flags: W
TeX: 0 0 0 0
Fore
549.7 146 m 1,0,1
 602.316 127 602.316 127 671.2 127 c 0,2,3
 802.601 127 802.601 127 802.601 184 c 0,4,5
 801.25 259 801.25 259 683.801 259 c 0,6,7
 593.092 259 593.092 259 549.7 146 c 1,0,1
517.301 -16 m 1,8,9
 511.9 -73 511.9 -73 511.9 -141 c 1,10,-1
 374.2 -144 l 1,11,12
 374.2 -40 374.2 -40 385 44 c 1,13,14
 333.612 78.5596 333.612 78.5596 291.4 130 c 0,15,16
 157.301 291.04 157.301 291.04 157.301 559 c 0,17,18
 157.301 833.02 157.301 833.02 293.2 990 c 0,19,20
 427.771 1147 427.771 1147 664 1147 c 0,21,22
 738.291 1147 738.291 1147 813.4 1130 c 0,23,24
 883.446 1112.7 883.446 1112.7 954.7 1077 c 1,25,-1
 954.7 905 l 1,26,27
 887.312 946.757 887.312 946.757 813.4 970 c 0,28,29
 743.2 991 743.2 991 671.2 991 c 0,30,31
 510.496 991 510.496 991 421 878 c 0,32,33
 331.9 764 331.9 764 331.9 559 c 0,34,35
 331.9 354 331.9 354 421 240 c 0,36,37
 424.601 235 424.601 235 432.7 226 c 1,38,39
 508.516 402 508.516 402 684.7 402 c 0,40,41
 953.351 402 953.351 402 954.7 156 c 0,42,43
 956.051 -33 956.051 -33 655 -33 c 0,44,45
 582.673 -33 582.673 -33 517.301 -16 c 1,8,9
EndSplineSet
EndChar
StartChar: uni0256
Encoding: 598 598 598
Width: 1242
Flags: W
TeX: 0 0 0 0
Fore
345.55 559 m 0,0,1
 345.55 356 345.55 356 420.25 240 c 0,2,3
 495.851 125 495.851 125 627.25 125 c 0,4,5
 758.649 125 758.649 125 834.25 240 c 0,6,7
 909.85 356.001 909.85 356.001 909.85 559 c 0,8,9
 909.85 761.999 909.85 761.999 834.25 878 c 0,10,11
 758.649 993 758.649 993 627.25 993 c 0,12,13
 495.851 993 495.851 993 420.25 878 c 0,14,15
 345.55 762 345.55 762 345.55 559 c 0,0,1
909.85 950 m 1,16,-1
 909.85 1556 l 1,17,-1
 1075.45 1556 l 1,18,-1
 1075.45 -20 l 2,19,20
 1075.45 -173.002 1075.45 -173.002 1109.65 -222 c 0,21,22
 1143.85 -270 1143.85 -270 1238.35 -270 c 2,23,-1
 1282.45 -270 l 1,24,-1
 1282.45 -426 l 1,25,-1
 1219.45 -426 l 2,26,27
 1056.55 -426 1056.55 -426 983.65 -330 c 0,28,29
 909.85 -233.999 909.85 -233.999 909.85 -20 c 2,30,-1
 909.85 128 l 1,31,-1
 909.85 168 l 1,32,33
 857.65 68.001 857.65 68.001 778.45 20 c 0,34,35
 698.348 -29 698.348 -29 586.75 -29 c 0,36,37
 404.051 -29 404.051 -29 288.85 133 c 0,38,39
 174.55 295.001 174.55 295.001 174.55 559 c 0,40,41
 174.55 822.999 174.55 822.999 288.85 985 c 0,42,43
 404.051 1147 404.051 1147 586.75 1147 c 0,44,45
 698.348 1147 698.348 1147 778.45 1098 c 0,46,47
 857.65 1050 857.65 1050 909.85 950 c 1,16,-1
EndSplineSet
EndChar
StartChar: uni0257
Encoding: 599 599 599
Width: 1422
Flags: W
TeX: 0 0 0 0
Fore
1084.65 1002 m 1,0,-1
 1084.65 0 l 1,1,-1
 919.05 0 l 1,2,-1
 919.05 168 l 1,3,4
 866.85 68 866.85 68 787.65 20 c 0,5,6
 707.55 -29 707.55 -29 595.95 -29 c 0,7,8
 413.25 -29 413.25 -29 298.05 133 c 0,9,10
 183.75 295 183.75 295 183.75 559 c 128,-1,11
 183.75 823 183.75 823 298.05 985 c 0,12,13
 413.25 1147 413.25 1147 595.95 1147 c 0,14,15
 707.55 1147 707.55 1147 787.65 1098 c 0,16,17
 866.85 1050 866.85 1050 919.05 950 c 1,18,-1
 919.05 1002 l 1,19,-1
 919.05 1150 l 2,20,21
 919.05 1364 919.05 1364 992.85 1460 c 0,22,23
 1065.75 1556 1065.75 1556 1228.65 1556 c 2,24,-1
 1457.25 1556 l 1,25,-1
 1457.25 1400 l 1,26,-1
 1247.55 1400 l 2,27,28
 1149.45 1400 1149.45 1400 1118.85 1352 c 0,29,30
 1084.65 1300 1084.65 1300 1084.65 1150 c 2,31,-1
 1084.65 1002 l 1,0,-1
354.75 559 m 0,32,33
 354.75 356 354.75 356 429.45 240 c 0,34,35
 505.05 125 505.05 125 636.45 125 c 128,-1,36
 767.85 125 767.85 125 843.45 240 c 0,37,38
 919.05 356 919.05 356 919.05 559 c 128,-1,39
 919.05 762 919.05 762 843.45 878 c 0,40,41
 767.85 993 767.85 993 636.45 993 c 128,-1,42
 505.05 993 505.05 993 429.45 878 c 0,43,44
 354.75 762 354.75 762 354.75 559 c 0,32,33
EndSplineSet
EndChar
StartChar: uni0258
Encoding: 600 600 600
Width: 1197
Flags: W
Fore
164.9 606 m 2,0,1
 164.9 856 164.9 856 282.8 1002 c 0,2,3
 401.6 1147 401.6 1147 605 1147 c 0,4,5
 831.8 1147 831.8 1147 965 986 c 0,6,7
 1099.1 824 1099.1 824 1099.1 549 c 0,8,9
 1099.1 283 1099.1 283 957.8 127 c 0,10,11
 817.4 -29 817.4 -29 576.2 -29 c 0,12,13
 479.9 -29 479.9 -29 386.3 -7 c 128,-1,14
 292.7 15 292.7 15 203.6 57 c 1,15,-1
 203.6 231 l 1,16,17
 291.8 179 291.8 179 381.8 153 c 0,18,19
 470.9 127 470.9 127 566.3 127 c 0,20,21
 731 127 731 127 822.8 226 c 0,22,23
 915.5 326 915.5 326 926.3 516 c 1,24,-1
 164.9 516 l 1,25,-1
 164.9 606 l 2,0,1
330.5 660 m 1,26,-1
 920.9 659 l 1,27,28
 908.3 817 908.3 817 824.6 904 c 0,29,30
 741.8 991 741.8 991 603.2 991 c 0,31,32
 480.8 991 480.8 991 407 901 c 0,33,34
 332.3 811 332.3 811 330.5 660 c 1,26,-1
EndSplineSet
EndChar
StartChar: uni0259
Encoding: 601 601 601
Width: 1197
Flags: W
Fore
164.9 512 m 2,0,-1
 164.9 602 l 1,1,-1
 926.3 602 l 1,2,3
 915.5 792 915.5 792 822.8 892 c 0,4,5
 731 991 731 991 566.3 991 c 0,6,7
 470.9 991 470.9 991 381.8 965 c 0,8,9
 291.8 939 291.8 939 203.6 887 c 1,10,-1
 203.6 1061 l 1,11,12
 292.7 1103 292.7 1103 386.3 1125 c 128,-1,13
 479.9 1147 479.9 1147 576.2 1147 c 0,14,15
 817.4 1147 817.4 1147 957.8 991 c 0,16,17
 1099.1 835 1099.1 835 1099.1 569 c 0,18,19
 1099.1 294 1099.1 294 965 132 c 0,20,21
 831.8 -29 831.8 -29 605 -29 c 0,22,23
 401.6 -29 401.6 -29 282.8 116 c 0,24,25
 164.9 262 164.9 262 164.9 512 c 2,0,-1
330.5 458 m 1,26,27
 332.3 307 332.3 307 407 217 c 0,28,29
 480.8 127 480.8 127 603.2 127 c 0,30,31
 741.8 127 741.8 127 824.6 214 c 0,32,33
 908.3 301 908.3 301 920.9 459 c 1,34,-1
 330.5 458 l 1,26,27
EndSplineSet
EndChar
StartChar: uni025A
Encoding: 602 602 602
Width: 1555
Flags: W
TeX: 0 0 0 0
Fore
851.019 214 m 1,0,1
 942.819 352.001 942.819 352.001 941.019 559 c 0,2,3
 941.587 621.088 941.587 621.088 932.678 677.116 c 1,4,-1
 377.449 320.668 l 1,5,6
 404.365 252.429 404.365 252.429 433.419 217 c 0,7,8
 507.218 127 507.218 127 629.619 127 c 0,9,10
 780.519 127 780.519 127 851.019 214 c 1,0,1
1097.78 783.111 m 1,11,12
 1125.52 686.852 1125.52 686.852 1125.52 569 c 0,13,14
 1125.52 293.999 1125.52 293.999 991.419 132 c 0,15,16
 858.221 -29 858.221 -29 631.419 -29 c 0,17,18
 426.311 -29 426.311 -29 309.219 116 c 0,19,20
 226.093 219.33 226.093 219.33 201.557 375.314 c 1,21,-1
 890.943 818.253 l 1,22,23
 873.217 857.132 873.217 857.132 849.219 892 c 0,24,25
 781.123 991.984 781.123 991.984 592.719 991 c 0,26,27
 495.581 990.493 495.581 990.493 408.219 965 c 0,28,29
 318.22 938.999 318.22 938.999 230.019 887 c 1,30,-1
 230.019 1061 l 1,31,32
 319.124 1103 319.124 1103 412.719 1125 c 0,33,34
 506.324 1147 506.324 1147 602.619 1147 c 0,35,36
 843.818 1147 843.818 1147 984.219 991 c 0,37,38
 1016.23 955.655 1016.23 955.655 1040.99 914.662 c 1,39,-1
 1223.62 1032 l 1,40,-1
 1389.22 1032 l 1,41,-1
 1389.22 884 l 2,42,43
 1389.22 730.998 1389.22 730.998 1423.42 682 c 0,44,45
 1457.62 634 1457.62 634 1552.12 634 c 2,46,-1
 1590.82 634 l 1,47,-1
 1590.82 478 l 1,48,-1
 1533.22 478 l 2,49,50
 1376.14 478 1376.14 478 1297.42 574 c 0,51,52
 1223.62 664 1223.62 664 1223.78 864 c 1,53,-1
 1097.78 783.111 l 1,11,12
EndSplineSet
EndChar
StartChar: uni025B
Encoding: 603 603 603
Width: 1060
Flags: W
TeX: 0 0 0 0
Fore
409.75 607 m 1,0,1
 302.65 632 302.65 632 244.15 697 c 0,2,3
 186.55 761 186.55 761 186.55 855 c 0,4,5
 186.55 989 186.55 989 296.35 1068 c 128,-1,6
 406.15 1147 406.15 1147 594.25 1147 c 0,7,8
 667.15 1147 667.15 1147 749.05 1135 c 0,9,10
 831.85 1123 831.85 1123 926.35 1099 c 1,11,-1
 926.35 932 l 1,12,13
 832.75 959 832.75 959 754.45 972 c 0,14,15
 677.05 984 677.05 984 608.65 984 c 0,16,17
 484.45 984 484.45 984 417.85 941 c 128,-1,18
 351.25 898 351.25 898 351.25 824 c 0,19,20
 351.25 763 351.25 763 416.05 720 c 0,21,22
 480.85 676 480.85 676 602.35 676 c 2,23,-1
 751.75 676 l 1,24,-1
 751.75 532 l 1,25,-1
 608.65 532 l 2,26,27
 473.65 532 473.65 532 398.05 477 c 128,-1,28
 322.45 422 322.45 422 322.45 341 c 0,29,30
 322.45 243 322.45 243 403.45 190 c 0,31,32
 485.35 138 485.35 138 641.05 138 c 0,33,34
 730.15 138 730.15 138 812.05 156 c 0,35,36
 893.95 173 893.95 173 963.25 207 c 1,37,-1
 963.25 34 l 1,38,39
 875.95 6 875.95 6 794.95 -8 c 0,40,41
 713.05 -22 713.05 -22 635.65 -22 c 0,42,43
 407.05 -22 407.05 -22 281.95 69 c 0,44,45
 157.75 161 157.75 161 157.75 327 c 0,46,47
 157.75 436 157.75 436 224.35 510 c 128,-1,48
 290.95 584 290.95 584 409.75 607 c 1,0,1
EndSplineSet
EndChar
StartChar: uni025C
Encoding: 604 604 604
Width: 1060
Flags: W
TeX: 0 0 0 0
Fore
710.35 607 m 1,0,1
 829.15 584 829.15 584 895.75 510 c 0,2,3
 963.25 436 963.25 436 963.25 327 c 0,4,5
 963.25 161 963.25 161 838.15 69 c 0,6,7
 713.95 -22 713.95 -22 484.45 -22 c 0,8,9
 407.95 -22 407.95 -22 326.05 -8 c 128,-1,10
 244.15 6 244.15 6 157.75 34 c 1,11,-1
 157.75 207 l 1,12,13
 226.15 173 226.15 173 308.05 156 c 0,14,15
 389.95 138 389.95 138 479.95 138 c 0,16,17
 635.65 138 635.65 138 716.65 190 c 0,18,19
 798.55 243 798.55 243 798.55 341 c 0,20,21
 798.55 422 798.55 422 722.05 477 c 0,22,23
 646.45 532 646.45 532 511.45 532 c 2,24,-1
 369.25 532 l 1,25,-1
 369.25 676 l 1,26,-1
 517.75 676 l 2,27,28
 640.15 676 640.15 676 704.95 720 c 0,29,30
 769.75 763 769.75 763 769.75 824 c 0,31,32
 769.75 898 769.75 898 703.15 941 c 0,33,34
 635.65 984 635.65 984 511.45 984 c 0,35,36
 443.95 984 443.95 984 365.65 972 c 0,37,38
 288.25 959 288.25 959 194.65 932 c 1,39,-1
 194.65 1099 l 1,40,41
 289.15 1123 289.15 1123 371.05 1135 c 0,42,43
 453.85 1147 453.85 1147 525.85 1147 c 0,44,45
 714.85 1147 714.85 1147 824.65 1068 c 128,-1,46
 934.45 989 934.45 989 934.45 855 c 0,47,48
 934.45 761 934.45 761 875.95 697 c 0,49,50
 817.45 632 817.45 632 710.35 607 c 1,0,1
EndSplineSet
EndChar
StartChar: uni025D
Encoding: 605 605 605
Width: 1496
Flags: W
TeX: 0 0 0 0
Fore
740.25 607 m 1,0,1
 859.051 583.999 859.051 583.999 925.65 510 c 0,2,3
 993.15 435.999 993.15 435.999 993.15 327 c 0,4,5
 993.15 161.002 993.15 161.002 868.05 69 c 0,6,7
 743.85 -22 743.85 -22 514.35 -22 c 0,8,9
 437.844 -22 437.844 -22 355.95 -8 c 0,10,11
 274.049 6.00098 274.049 6.00098 187.65 34 c 1,12,-1
 187.65 207 l 1,13,14
 256.048 173.002 256.048 173.002 337.95 156 c 0,15,16
 419.849 138 419.849 138 509.85 138 c 0,17,18
 665.548 138 665.548 138 746.55 190 c 0,19,20
 828.45 243.002 828.45 243.002 828.45 341 c 0,21,22
 828.45 422 828.45 422 751.95 477 c 0,23,24
 676.35 532 676.35 532 541.35 532 c 2,25,-1
 399.15 532 l 1,26,-1
 399.15 676 l 1,27,-1
 547.65 676 l 2,28,29
 670.052 676 670.052 676 734.85 720 c 0,30,31
 799.65 762.999 799.65 762.999 799.65 824 c 0,32,33
 799.65 898.002 799.65 898.002 733.05 941 c 0,34,35
 665.548 984 665.548 984 541.35 984 c 0,36,37
 473.85 984 473.85 984 395.55 972 c 0,38,39
 318.162 959.003 318.162 959.003 224.55 932 c 1,40,-1
 224.55 1099 l 1,41,42
 319.049 1123 319.049 1123 400.95 1135 c 0,43,44
 483.751 1147 483.751 1147 555.75 1147 c 0,45,46
 744.747 1147 744.747 1147 854.55 1068 c 0,47,48
 944.634 1003.19 944.634 1003.19 960.81 901.352 c 1,49,-1
 1164.15 1032 l 1,50,-1
 1329.75 1032 l 1,51,-1
 1329.75 884 l 2,52,53
 1329.75 730.998 1329.75 730.998 1363.95 682 c 0,54,55
 1398.15 634 1398.15 634 1492.65 634 c 2,56,-1
 1531.35 634 l 1,57,-1
 1531.35 478 l 1,58,-1
 1473.75 478 l 2,59,60
 1316.67 478 1316.67 478 1237.95 574 c 0,61,62
 1164.15 664 1164.15 664 1164.31 864 c 1,63,-1
 912.15 702.115 l 1,64,-1
 911.49 703.401 l 1,65,-1
 905.85 697 l 2,66,67
 847.349 631.998 847.349 631.998 740.25 607 c 1,0,1
EndSplineSet
EndChar
StartChar: uni025E
Encoding: 606 606 606
Width: 1326
Flags: W
TeX: 0 0 0 0
Fore
765.8 984 m 0,0,1
 359 984 359 984 358.1 566 c 1,2,3
 358.1 120 358.1 120 765.8 119 c 0,4,5
 907.1 119 907.1 119 972.8 173 c 0,6,7
 1049.3 237 1049.3 237 1049.3 311 c 0,8,9
 1049.3 389 1049.3 389 978.2 443 c 0,10,11
 939.5 473 939.5 473 773 473 c 2,12,-1
 609.2 473 l 9,13,-1
 609.2 630 l 1,14,-1
 773 630 l 2,15,16
 939.5 630 939.5 630 978.2 660 c 0,17,18
 1049.3 715 1049.3 715 1049.3 792 c 128,-1,19
 1049.3 869 1049.3 869 972.8 930 c 0,20,21
 904.4 984 904.4 984 765.8 984 c 0,0,1
502.1 1099 m 0,22,23
 602.9 1144 602.9 1144 782 1145 c 0,24,25
 989 1145 989 1145 1109.6 1059 c 0,26,27
 1230.2 972 1230.2 972 1230.2 824 c 0,28,29
 1230.2 721 1230.2 721 1166.3 650 c 128,-1,30
 1102.4 579 1102.4 579 984.5 552 c 1,31,32
 1102.4 524 1102.4 524 1166.3 453 c 128,-1,33
 1230.2 382 1230.2 382 1230.2 279 c 0,34,35
 1230.2 131 1230.2 131 1109.6 45 c 0,36,37
 989 -42 989 -42 782 -42 c 0,38,39
 605.6 -44 605.6 -44 502.1 18 c 0,40,41
 171.8 212 171.8 212 171.8 556 c 0,42,43
 171.8 953 171.8 953 502.1 1099 c 0,22,23
EndSplineSet
EndChar
StartChar: uni025F
Encoding: 607 607 607
Width: 695
Flags: W
Fore
199.498 0 m 1,0,-1
 36.5986 0 l 1,1,-1
 36.8369 143 l 1,2,-1
 199.737 143 l 1,3,-1
 199.498 1120 l 1,4,-1
 365.099 1120 l 1,5,-1
 365.069 143 l 1,6,-1
 523.47 143 l 1,7,-1
 523.231 0 l 1,8,-1
 365.069 0 l 1,9,-1
 365.099 0 l 1,10,-1
 365.099 -20 l 2,11,12
 365.099 -234 365.099 -234 292.198 -330 c 0,13,14
 218.399 -426 218.399 -426 55.498 -426 c 2,15,-1
 -7.50195 -426 l 1,16,-1
 -7.50195 -270 l 1,17,-1
 36.5986 -270 l 2,18,19
 131.098 -270 131.098 -270 165.299 -222 c 0,20,21
 199.498 -172 199.498 -172 199.498 -20 c 2,22,-1
 199.498 -0 l 1,23,-1
 199.498 0 l 1,0,-1
EndSplineSet
EndChar
StartChar: uni0260
Encoding: 608 608 608
Width: 1247
Flags: W
TeX: 0 0 0 0
Fore
909.85 573 m 2,0,-1
 909.85 993 l 1,1,-1
 627.25 993 l 2,2,3
 494.05 993 494.05 993 420.25 883 c 0,4,5
 345.55 773 345.55 773 345.55 573 c 0,6,7
 345.55 374 345.55 374 420.25 264 c 0,8,9
 494.05 154 494.05 154 627.25 154 c 0,10,11
 761.35 154 761.35 154 836.05 264 c 0,12,13
 909.85 374 909.85 374 909.85 573 c 2,0,-1
909.85 1120 m 1,14,-1
 909.85 1150 l 2,15,16
 909.85 1364 909.85 1364 983.65 1460 c 0,17,18
 1056.55 1556 1056.55 1556 1219.45 1556 c 2,19,-1
 1282.45 1556 l 1,20,-1
 1282.45 1400 l 1,21,-1
 1238.35 1400 l 2,22,23
 1143.85 1400 1143.85 1400 1109.65 1352 c 0,24,25
 1075.45 1303 1075.45 1303 1075.45 1150 c 2,26,-1
 1075.45 1120 l 1,27,-1
 1075.45 1077 l 1,28,-1
 1075.45 139 l 2,29,30
 1075.45 -146.501 1075.45 -146.501 961.15 -286 c 0,31,32
 846.439 -426 846.439 -426 611.05 -426 c 0,33,34
 523.75 -426 523.75 -426 446.35 -412 c 0,35,36
 368.95 -397 368.95 -397 296.05 -367 c 1,37,-1
 296.05 -188 l 1,38,39
 368.95 -232 368.95 -232 440.05 -253 c 0,40,41
 511.15 -274 511.15 -274 584.95 -274 c 0,42,43
 747.85 -274 747.85 -274 828.85 -180 c 0,44,45
 909.85 -85 909.85 -85 909.85 106 c 2,46,-1
 909.85 197 l 1,47,48
 858.55 98 858.55 98 778.45 49 c 0,49,50
 698.35 0 698.35 0 586.75 0 c 0,51,52
 401.35 0 401.35 0 287.95 157 c 0,53,54
 174.55 314 174.55 314 174.55 573 c 0,55,56
 174.55 805.999 174.55 805.999 287.95 963 c 0,57,58
 401.349 1120 401.349 1120 586.75 1120 c 2,59,-1
 909.85 1120 l 1,14,-1
EndSplineSet
EndChar
StartChar: uni0261
Encoding: 609 609 609
Width: 1231
Flags: W
TeX: 0 0 0 0
Fore
898.35 573 m 1,0,-1
 898.35 993 l 1,1,-1
 615.75 993 l 1,2,3
 482.55 993 482.55 993 408.75 883 c 0,4,5
 334.05 773 334.05 773 334.05 573 c 0,6,7
 334.05 374 334.05 374 408.75 264 c 0,8,9
 482.55 154 482.55 154 615.75 154 c 0,10,11
 749.85 154 749.85 154 824.55 264 c 0,12,13
 898.35 374 898.35 374 898.35 573 c 1,0,-1
1063.95 1120 m 1,14,-1
 1063.95 139 l 2,15,16
 1063.95 -147 1063.95 -147 949.65 -286 c 0,17,18
 835.35 -426 835.35 -426 599.55 -426 c 0,19,20
 512.25 -426 512.25 -426 434.85 -412 c 0,21,22
 357.45 -397 357.45 -397 284.55 -367 c 1,23,-1
 284.55 -188 l 1,24,25
 357.45 -232 357.45 -232 428.55 -253 c 128,-1,26
 499.65 -274 499.65 -274 573.45 -274 c 0,27,28
 736.35 -274 736.35 -274 817.35 -180 c 0,29,30
 898.35 -85 898.35 -85 898.35 106 c 2,31,-1
 898.35 197 l 1,32,33
 847.05 98 847.05 98 766.95 49 c 128,-1,34
 686.85 0 686.85 0 575.25 0 c 0,35,36
 389.85 0 389.85 0 276.45 157 c 128,-1,37
 163.05 314 163.05 314 163.05 573 c 0,38,39
 163.05 806 163.05 806 276.45 963 c 0,40,41
 389.849 1120 389.849 1120 575.25 1120 c 2,42,-1
 1063.95 1120 l 1,14,-1
EndSplineSet
EndChar
StartChar: uni0262
Encoding: 610 610 610
Width: 1220
Flags: W
TeX: 0 0 0 0
Fore
904.1 178 m 0,1,-1
 904.1 460 l 1,2,-1
 764.6 460 l 1,3,-1
 764.6 600 l 1,4,-1
 1053.5 600 l 1,5,-1
 1053.5 72 l 1,6,7
 988.7 38 988.7 38 910.4 18 c 0,8,9
 840.2 0 840.2 0 658.4 0 c 0,10,11
 430.7 0 430.7 0 296.6 159 c 128,-1,12
 162.5 318 162.5 318 162.5 588 c 0,13,14
 162.5 862 162.5 862 298.4 1019 c 0,15,16
 433.4 1176 433.4 1176 669.2 1176 c 0,17,18
 725 1176 725 1176 818.6 1158 c 0,19,20
 912.2 1141 912.2 1141 1026.5 1066 c 1,21,-1
 1026.5 894 l 1,22,23
 918.5 971 918.5 971 818.6 998 c 0,24,25
 740.3 1020 740.3 1020 676.4 1020 c 0,26,27
 515.3 1020 515.3 1020 426.2 906 c 0,28,29
 337.1 793 337.1 793 337.1 588 c 128,-1,30
 337.1 383 337.1 383 426.2 270 c 0,31,32
 515.3 156 515.3 156 676.4 156 c 0,33,34
 832.1 156 832.1 156 904.1 178 c 0,1,-1
EndSplineSet
EndChar
StartChar: uni0263
Encoding: 611 611 611
Width: 1334
Flags: W
TeX: 0 0 0 0
Fore
828.9 572 m 1,0,1
 1083.6 126.136 1083.6 126.136 1083.6 -194 c 0,2,3
 1083.6 -425.749 1083.6 -425.749 738 -430 c 0,4,5
 357.679 -434.857 357.679 -434.857 356.4 -194 c 0,6,7
 354.467 147.713 354.467 147.713 614.7 579 c 1,8,-1
 257.4 1120 l 1,9,-1
 452.7 1120 l 1,10,-1
 725.4 720 l 1,11,-1
 987.3 1120 l 1,12,-1
 1182.6 1120 l 1,13,-1
 828.9 572 l 1,0,1
720 452 m 1,14,15
 522 144 522 144 524.7 -130 c 0,16,17
 526.941 -268.01 526.941 -268.01 719.1 -268 c 16,18,19
 902.203 -267.986 902.203 -267.986 902.7 -130 c 0,20,21
 903.6 120 903.6 120 720 452 c 1,14,15
EndSplineSet
EndChar
StartChar: uni0264
Encoding: 612 612 612
Width: 1151
Flags: W
TeX: 0 0 0 0
Fore
505.6 586 m 1,0,-1
 147.4 1120 l 1,1,-1
 342.7 1120 l 1,2,-1
 610 721 l 1,3,-1
 877.3 1120 l 1,4,-1
 1072.6 1120 l 1,5,-1
 708.1 575 l 1,6,7
 869.2 334 869.2 334 869.2 167.25 c 0,8,9
 870.459 0.000976562 870.459 0.000976562 612.025 0 c 0,10,11
 340 0 340 0 340 167.25 c 0,12,13
 340 344 340 344 505.6 586 c 1,0,-1
602.8 440 m 1,14,15
 496.938 282 496.938 282 496.938 222.75 c 0,16,17
 496.513 119.241 496.513 119.241 607.3 119.25 c 16,18,19
 709.562 119.25 709.562 119.25 709.562 222.75 c 0,20,21
 709.562 286 709.562 286 602.8 440 c 1,14,15
EndSplineSet
EndChar
StartChar: uni0265
Encoding: 613 613 613
Width: 1232
Flags: W
Fore
220.9 442 m 2,0,-1
 220.9 1120 l 1,1,-1
 386.5 1120 l 1,2,-1
 386.5 449 l 2,3,4
 386.5 290 386.5 290 442.3 210 c 0,5,6
 498.1 131 498.1 131 609.7 131 c 0,7,8
 743.8 131 743.8 131 822.1 226 c 0,9,10
 899.5 321 899.5 321 899.5 485 c 2,11,-1
 899.5 1120 l 1,12,-1
 1065.1 1120 l 1,13,-1
 1065.1 -426 l 1,14,-1
 899.5 -426 l 1,15,-1
 899.5 172 l 1,16,17
 839.2 70 839.2 70 759.1 20 c 0,18,19
 679.9 -29 679.9 -29 574.6 -29 c 0,20,21
 400.9 -29 400.9 -29 310.9 91 c 128,-1,22
 220.9 211 220.9 211 220.9 442 c 2,0,-1
EndSplineSet
EndChar
StartChar: uni0266
Encoding: 614 614 614
Width: 1233
Flags: W
Fore
398.5 946 m 1,0,-1
 399.4 946 l 1,1,2
 458.8 1047 458.8 1047 538.9 1097 c 0,3,4
 619.9 1147 619.9 1147 725.2 1147 c 0,5,6
 898.9 1147 898.9 1147 988 1028 c 0,7,8
 1077.1 908 1077.1 908 1077.1 676 c 2,9,-1
 1077.1 0 l 1,10,-1
 911.5 0 l 1,11,-1
 911.5 670 l 2,12,13
 911.5 829 911.5 829 855.7 908 c 128,-1,14
 799.9 987 799.9 987 688.3 987 c 0,15,16
 554.2 987 554.2 987 476.8 892 c 128,-1,17
 399.4 797 399.4 797 399.4 633 c 2,18,-1
 399.4 0 l 1,19,-1
 232.9 0 l 1,20,-1
 232.9 1002 l 1,21,-1
 232.9 1150 l 2,22,23
 232.9 1364 232.9 1364 306.7 1460 c 0,24,25
 379.6 1556 379.6 1556 542.5 1556 c 2,26,-1
 771.1 1556 l 1,27,-1
 771.1 1400 l 1,28,-1
 561.4 1400 l 2,29,30
 466.9 1400 466.9 1400 432.7 1352 c 0,31,32
 398.5 1303 398.5 1303 398.5 1150 c 2,33,-1
 398.5 946 l 1,0,-1
EndSplineSet
EndChar
StartChar: uni0267
Encoding: 615 615 615
Width: 1233
Flags: W
Fore
398.5 946 m 1,0,-1
 399.4 946 l 1,1,2
 458.799 1047 458.799 1047 538.9 1097 c 0,3,4
 619.898 1147 619.898 1147 725.2 1147 c 0,5,6
 898.9 1147 898.9 1147 988 1028 c 0,7,8
 1077.1 908 1077.1 908 1077.1 676 c 2,9,-1
 1077.1 -20 l 2,10,11
 1077.1 -233.999 1077.1 -233.999 1003.3 -330 c 0,12,13
 930.4 -426 930.4 -426 767.5 -426 c 2,14,-1
 538.9 -426 l 1,15,-1
 538.9 -270 l 1,16,-1
 748.6 -270 l 2,17,18
 843.099 -270 843.099 -270 877.3 -222 c 0,19,20
 911.5 -173.002 911.5 -173.002 911.5 -20 c 2,21,-1
 911.5 670 l 2,22,23
 911.5 829.002 911.5 829.002 855.7 908 c 0,24,25
 799.898 987 799.898 987 688.3 987 c 0,26,27
 554.2 987 554.2 987 476.8 892 c 0,28,29
 399.4 797 399.4 797 399.4 633 c 2,30,-1
 399.4 0 l 1,31,-1
 232.9 0 l 1,32,-1
 232.9 1002 l 1,33,-1
 232.9 1150 l 2,34,35
 232.9 1364 232.9 1364 306.7 1460 c 0,36,37
 379.6 1556 379.6 1556 542.5 1556 c 2,38,-1
 771.1 1556 l 1,39,-1
 771.1 1400 l 1,40,-1
 561.4 1400 l 2,41,42
 466.901 1400 466.901 1400 432.7 1352 c 0,43,44
 398.5 1303 398.5 1303 398.5 1150 c 2,45,-1
 398.5 946 l 1,0,-1
EndSplineSet
EndChar
StartChar: uni0268
Encoding: 616 616 616
Width: 722
Flags: W
Fore
142.9 452 m 1,0,-1
 142.9 616 l 1,1,-1
 304.9 616 l 1,2,-1
 304.9 1120 l 1,3,-1
 470.5 1120 l 1,4,-1
 470.5 616 l 1,5,-1
 618.1 616 l 1,6,-1
 618.1 452 l 1,7,-1
 470.5 452 l 1,8,-1
 470.5 0 l 1,9,-1
 304.9 0 l 1,10,-1
 304.9 452 l 1,11,-1
 142.9 452 l 1,0,-1
304.9 1556 m 1,12,-1
 470.5 1556 l 1,13,-1
 470.5 1323 l 1,14,-1
 304.9 1323 l 1,15,-1
 304.9 1556 l 1,12,-1
EndSplineSet
EndChar
StartChar: uni0269
Encoding: 617 617 617
Width: 753
Flags: W
TeX: 0 0 0 0
Fore
379.3 1120 m 1,0,-1
 379.3 406 l 2,13,-1
 379.3 253 379.3 253 413.5 204 c 0,11,12
 447.7 156 447.7 156 542.2 156 c 2,9,10
 586.3 156 l 1,8,-1
 586.3 0 l 1,7,-1
 523.3 0 l 2,6,-1
 360.4 0 360.4 0 286.6 96 c 0,4,5
 213.7 192 213.7 192 213.7 406 c 2,2,3
 213.7 1120 l 1,1,-1
 379.3 1120 l 1,0,-1
EndSplineSet
EndChar
StartChar: uni026A
Encoding: 618 618 618
Width: 722
Flags: W
TeX: 0 0 0 0
Fore
142.9 956 m 1,0,-1
 142.9 1120 l 1,1,-1
 300.4 1120 l 1,2,-1
 466 1120 l 1,3,-1
 618.1 1120 l 1,4,-1
 618.1 956 l 1,5,-1
 466 956 l 1,6,-1
 466 164 l 1,7,-1
 618.1 164 l 1,8,-1
 618.1 0 l 1,9,-1
 466 0 l 1,10,-1
 300.4 0 l 1,11,-1
 142.9 0 l 1,12,-1
 142.9 164 l 1,13,-1
 300.4 164 l 1,14,-1
 300.4 956 l 1,15,-1
 142.9 956 l 1,0,-1
EndSplineSet
EndChar
StartChar: uni026B
Encoding: 619 619 619
Width: 948
Flags: W
Fore
426.8 1556 m 1,0,-1
 592.4 1556 l 1,1,-1
 592.4 768.679 l 1,2,3
 593.78 767.776 593.78 767.776 595.1 767 c 0,4,5
 610.4 758 610.4 758 622.1 758 c 0,6,7
 656.3 758 656.3 758 672.5 795 c 0,8,9
 688.699 830.998 688.699 830.998 690.5 913 c 1,10,-1
 803 913 l 1,11,12
 801.199 777.998 801.199 777.998 755.3 705 c 0,13,14
 709.4 631 709.4 631 627.5 631 c 0,15,16
 609.174 631 609.174 631 592.4 635.019 c 1,17,-1
 592.4 0 l 1,18,-1
 426.8 0 l 1,19,-1
 426.8 770.082 l 1,20,21
 421.482 774.303 421.482 774.303 416.9 777 c 0,22,23
 401.599 786 401.599 786 389.9 786 c 0,24,25
 355.7 786 355.7 786 339.5 749 c 0,26,27
 323.301 713.002 323.301 713.002 321.5 631 c 1,28,-1
 209 631 l 1,29,30
 210.801 766.002 210.801 766.002 256.7 839 c 0,31,32
 302.599 913 302.599 913 384.5 913 c 0,33,34
 406.799 913 406.799 913 426.8 907.049 c 1,35,-1
 426.8 1556 l 1,0,-1
EndSplineSet
EndChar
StartChar: uni026C
Encoding: 620 620 620
Width: 944
Flags: W
TeX: 0 0 0 0
Fore
422.649 1556 m 1,0,-1
 588.25 1556 l 1,1,-1
 588.25 786 l 1,2,-1
 813.25 786 l 1,3,-1
 813.25 626 l 1,4,-1
 588.25 626 l 1,5,-1
 588.25 0 l 1,6,-1
 422.649 0 l 1,7,-1
 422.649 595.868 l 1,8,9
 422.272 611.304 422.272 611.304 421.737 626 c 1,10,-1
 366.85 626 l 2,11,12
 114.851 626 114.851 626 115.75 815 c 0,13,14
 116.649 1061 116.649 1061 337.149 1061 c 0,15,16
 385.011 1061 385.011 1061 422.649 1036.1 c 1,17,-1
 422.649 1556 l 1,0,-1
408.067 786 m 1,18,19
 387.166 918 387.166 918 338.05 918 c 0,20,21
 268.749 918 268.749 918 267.85 843 c 0,22,23
 267.85 786 267.85 786 350.649 786 c 2,24,-1
 408.067 786 l 1,18,19
EndSplineSet
EndChar
StartChar: uni026D
Encoding: 621 621 621
Width: 553
Flags: W
Fore
213.7 128 m 1,0,-1
 213.7 1556 l 1,1,-1
 379.3 1556 l 1,2,-1
 379.3 128 l 1,3,-1
 379.3 -20 l 2,4,5
 379.3 -173 379.3 -173 413.5 -222 c 0,6,7
 447.7 -270 447.7 -270 542.2 -270 c 2,8,-1
 586.3 -270 l 1,9,-1
 586.3 -426 l 1,10,-1
 523.3 -426 l 2,11,12
 360.4 -426 360.4 -426 287.5 -330 c 0,13,14
 213.7 -234 213.7 -234 213.7 -20 c 2,15,-1
 213.7 128 l 1,0,-1
EndSplineSet
EndChar
StartChar: uni026E
Encoding: 622 622 622
Width: 1233
Flags: W
TeX: 0 0 0 0
Fore
911.5 670 m 2,0,1
 911.5 829.002 911.5 829.002 855.7 908 c 0,2,3
 799.898 987 799.898 987 688.3 987 c 0,4,5
 554.2 987 554.2 987 476.8 892 c 0,6,7
 399.4 797 399.4 797 399.4 633 c 2,8,-1
 399.4 0 l 1,9,-1
 232.9 0 l 1,10,-1
 232.9 1556 l 1,11,-1
 399.4 1556 l 1,12,-1
 399.4 946 l 1,13,14
 458.797 1047 458.797 1047 539.35 1097 c 0,15,16
 619.897 1147 619.897 1147 725.2 1147 c 0,17,18
 898.899 1147 898.899 1147 988 1027.5 c 0,19,20
 1077.1 908.001 1077.1 908.001 1077.1 676 c 2,21,-1
 1077.1 -20 l 2,22,23
 1077.1 -233.999 1077.1 -233.999 1003.3 -330 c 0,24,25
 930.4 -426 930.4 -426 767.5 -426 c 2,26,-1
 538.9 -426 l 1,27,-1
 538.9 -270 l 1,28,-1
 748.6 -270 l 2,29,30
 843.099 -270 843.099 -270 877.3 -222 c 0,31,32
 911.5 -173.002 911.5 -173.002 911.5 -20 c 2,33,-1
 911.5 670 l 2,0,1
EndSplineSet
EndChar
StartChar: uni026F
Encoding: 623 623 623
Width: 1895
Flags: W
Fore
948.15 216 m 1,0,1
 886.05 92 886.05 92 799.65 34 c 0,2,3
 713.25 -26 713.25 -26 596.25 -26 c 0,4,5
 438.75 -26 438.75 -26 353.25 97 c 128,-1,6
 267.75 220 267.75 220 267.75 446 c 2,7,-1
 267.75 1122 l 1,8,-1
 434.25 1122 l 1,9,-1
 434.25 452 l 2,10,11
 434.25 290 434.25 290 485.55 212 c 128,-1,12
 536.85 134 536.85 134 642.15 134 c 0,13,14
 770.85 134 770.85 134 845.55 230 c 0,15,16
 920.25 324 920.25 324 920.25 488 c 2,17,-1
 920.25 1122 l 1,18,-1
 1086.75 1122 l 1,19,-1
 1086.75 452 l 2,20,21
 1086.75 290 1086.75 290 1138.05 212 c 128,-1,22
 1189.35 134 1189.35 134 1296.45 134 c 0,23,24
 1423.35 134 1423.35 134 1498.05 230 c 128,-1,25
 1572.75 326 1572.75 326 1572.75 488 c 2,26,-1
 1572.75 1122 l 1,27,-1
 1739.25 1122 l 1,28,-1
 1739.25 2 l 1,29,-1
 1572.75 2 l 1,30,-1
 1572.75 176 l 1,31,32
 1516.05 72 1516.05 72 1436.85 24 c 0,33,34
 1357.65 -26 1357.65 -26 1248.75 -26 c 0,35,36
 1138.95 -26 1138.95 -26 1061.55 36 c 0,37,38
 985.05 98 985.05 98 948.15 216 c 1,0,1
EndSplineSet
EndChar
StartChar: uni0270
Encoding: 624 624 624
Width: 1895
Flags: W
Fore
948.15 216 m 1,0,1
 886.05 92 886.05 92 799.65 33 c 128,-1,2
 713.25 -26 713.25 -26 596.25 -26 c 0,3,4
 438.75 -26 438.75 -26 353.25 96 c 0,5,6
 267.75 219 267.75 219 267.75 445 c 2,7,-1
 267.75 1121 l 1,8,-1
 434.25 1121 l 1,9,-1
 434.25 451 l 2,10,11
 434.25 290 434.25 290 485.55 212 c 128,-1,12
 536.85 134 536.85 134 642.15 134 c 0,13,14
 770.85 134 770.85 134 845.55 229 c 128,-1,15
 920.25 324 920.25 324 920.25 488 c 2,16,-1
 920.25 1121 l 1,17,-1
 1086.75 1121 l 1,18,-1
 1086.75 451 l 2,19,20
 1086.75 289 1086.75 289 1138.05 212 c 0,21,22
 1189.35 134 1189.35 134 1296.45 134 c 0,23,24
 1423.35 134 1423.35 134 1498.05 230 c 0,25,26
 1572.75 325 1572.75 325 1572.75 488 c 2,27,-1
 1572.75 1121 l 1,28,-1
 1739.25 1121 l 1,29,-1
 1739.25 -426 l 1,30,-1
 1572.75 -426 l 1,31,-1
 1572.75 175 l 1,32,33
 1516.05 72 1516.05 72 1436.85 23 c 128,-1,34
 1357.65 -26 1357.65 -26 1248.75 -26 c 0,35,36
 1138.95 -26 1138.95 -26 1061.55 36 c 0,37,38
 985.05 98 985.05 98 948.15 216 c 1,0,1
EndSplineSet
EndChar
StartChar: uni0271
Encoding: 625 625 625
Width: 1895
Flags: W
Fore
1058.85 905 m 1,0,1
 1120.95 1029 1120.95 1029 1207.35 1088 c 0,2,3
 1293.75 1147 1293.75 1147 1410.75 1147 c 0,4,5
 1568.25 1147 1568.25 1147 1653.75 1024 c 0,6,7
 1739.25 902 1739.25 902 1739.25 676 c 2,8,-1
 1739.25 -20 l 2,9,10
 1739.25 -233.999 1739.25 -233.999 1665.45 -330 c 0,11,12
 1592.55 -426 1592.55 -426 1429.65 -426 c 2,13,-1
 1201.05 -426 l 1,14,-1
 1201.05 -270 l 1,15,-1
 1410.75 -270 l 2,16,17
 1505.25 -270 1505.25 -270 1539.45 -222 c 0,18,19
 1573.65 -173.002 1573.65 -173.002 1573.65 -20 c 1,20,21
 1571.57 65.957 1571.57 65.957 1573.37 480.41 c 0,22,23
 1573.85 590.006 1573.85 590.006 1572.75 670 c 0,24,25
 1572.75 831 1572.75 831 1521.45 909 c 0,26,27
 1470.15 987 1470.15 987 1364.85 987 c 0,28,29
 1236.15 987 1236.15 987 1161.45 892 c 0,30,31
 1086.75 797 1086.75 797 1086.75 633 c 2,32,-1
 1086.75 0 l 1,33,-1
 920.25 0 l 1,34,-1
 920.25 670 l 2,35,36
 920.25 832 920.25 832 868.95 910 c 0,37,38
 817.651 987 817.651 987 710.55 987 c 0,39,40
 583.65 987 583.65 987 508.95 892 c 0,41,42
 434.25 796.001 434.25 796.001 434.25 633 c 2,43,-1
 434.25 0 l 1,44,-1
 267.75 0 l 1,45,-1
 267.75 1120 l 1,46,-1
 434.25 1120 l 1,47,-1
 434.25 946 l 1,48,49
 490.951 1049 490.951 1049 570.15 1098 c 0,50,51
 649.351 1147 649.351 1147 758.25 1147 c 0,52,53
 868.052 1147 868.052 1147 944.55 1085 c 0,54,55
 1021.95 1023 1021.95 1023 1058.85 905 c 1,0,1
EndSplineSet
EndChar
StartChar: uni0272
Encoding: 626 626 626
Width: 1245
Flags: W
Fore
394 -20 m 1,0,1
 394 -234 394 -234 321.1 -330 c 0,2,3
 247.3 -426 247.3 -426 84.4004 -426 c 2,4,-1
 21.4004 -426 l 1,5,-1
 21.4004 -270 l 1,6,-1
 65.5 -270 l 2,7,8
 160 -270 160 -270 194.2 -222 c 0,9,10
 228.4 -173 228.4 -173 228.4 -20 c 1,11,-1
 228.4 1120 l 1,12,-1
 394.9 1120 l 1,13,-1
 394.9 946 l 1,14,15
 454.3 1047 454.3 1047 535.3 1097 c 0,16,17
 615.4 1147 615.4 1147 720.7 1147 c 0,18,19
 894.4 1147 894.4 1147 983.5 1028 c 0,20,21
 1072.6 908 1072.6 908 1072.6 676 c 2,22,-1
 1072.6 0 l 1,23,-1
 907 0 l 1,24,-1
 907 670 l 2,25,26
 907 829 907 829 851.2 908 c 128,-1,27
 795.4 987 795.4 987 683.8 987 c 0,28,29
 549.7 987 549.7 987 472.3 892 c 128,-1,30
 394.9 797 394.9 797 394.9 633 c 2,31,-1
 394 -20 l 1,0,1
EndSplineSet
EndChar
StartChar: uni0273
Encoding: 627 627 627
Width: 1260
Flags: W
Fore
923 670 m 2,0,1
 923 829.002 923 829.002 867.2 908 c 0,2,3
 811.398 987 811.398 987 699.8 987 c 0,4,5
 565.7 987 565.7 987 488.3 892 c 0,6,7
 410.9 797 410.9 797 410.9 633 c 2,8,-1
 410.9 0 l 1,9,-1
 244.4 0 l 1,10,-1
 244.4 1120 l 1,11,-1
 410.9 1120 l 1,12,-1
 410.9 946 l 1,13,14
 470.299 1047 470.299 1047 550.4 1097 c 0,15,16
 631.398 1147 631.398 1147 736.7 1147 c 0,17,18
 910.4 1147 910.4 1147 999.5 1028 c 0,19,20
 1088.6 908 1088.6 908 1088.6 676 c 2,21,-1
 1088.6 -20 l 2,22,23
 1088.6 -173.002 1088.6 -173.002 1122.8 -222 c 0,24,25
 1157 -270 1157 -270 1251.5 -270 c 2,26,-1
 1295.6 -270 l 1,27,-1
 1295.6 -426 l 1,28,-1
 1232.6 -426 l 2,29,30
 1069.7 -426 1069.7 -426 996.8 -330 c 0,31,32
 923 -233.999 923 -233.999 923 -20 c 2,33,-1
 923 670 l 2,0,1
EndSplineSet
EndChar
StartChar: uni0274
Encoding: 628 628 628
Width: 1233
Flags: W
TeX: 0 0 0 0
Fore
226.25 1147 m 1,0,-1
 471.05 1147 l 1,1,-1
 900.35 244 l 1,2,-1
 900.35 1147 l 1,3,-1
 1076.75 1147 l 1,4,-1
 1076.75 0 l 1,5,-1
 831.95 0 l 1,6,-1
 402.65 903 l 1,7,-1
 402.65 0 l 1,8,-1
 226.25 0 l 1,9,-1
 226.25 1147 l 1,0,-1
EndSplineSet
EndChar
StartChar: uni0275
Encoding: 629 629 629
Width: 1190
Flags: W
Fore
627 1147 m 0,0,1
 842.999 1147 842.999 1147 966.3 991 c 0,2,3
 1089.6 835.001 1089.6 835.001 1089.6 559 c 0,4,5
 1089.6 283.999 1089.6 283.999 966.3 128 c 0,6,7
 842.998 -29 842.998 -29 627 -29 c 0,8,9
 410.1 -29 410.1 -29 287.7 128 c 0,10,11
 164.4 283.999 164.4 283.999 164.4 559 c 0,12,13
 164.4 835.001 164.4 835.001 287.7 991 c 0,14,15
 410.099 1147 410.099 1147 627 1147 c 0,0,1
627 991 m 0,16,17
 493.802 991 493.802 991 416.4 876 c 0,18,19
 349.302 775.44 349.302 775.44 340.371 611 c 1,20,-1
 912.701 611 l 1,21,22
 903.696 773.593 903.696 773.593 836.7 874 c 0,23,24
 759.299 991 759.299 991 627 991 c 0,16,17
907.192 447 m 1,25,-1
 345.762 447 l 1,26,27
 361.743 323.514 361.743 323.514 415.5 242 c 0,28,29
 492.901 127 492.901 127 627 127 c 0,30,31
 759.3 127 759.3 127 836.7 243 c 0,32,33
 890.979 324.346 890.979 324.346 907.192 447 c 1,25,-1
EndSplineSet
EndChar
StartChar: uni0276
Encoding: 630 630 630
Width: 1665
Flags: W
TeX: 0 0 0 0
Fore
1486.45 1120 m 1,0,-1
 1486.45 966 l 1,1,-1
 986.05 966 l 1,2,-1
 986.05 675 l 1,3,-1
 1465.75 675 l 1,4,-1
 1465.75 520 l 1,5,-1
 986.05 520 l 1,6,-1
 986.05 156 l 1,7,-1
 1499.05 156 l 1,8,-1
 1499.05 0 l 1,9,-1
 779.95 0 l 2,10,11
 487.45 0 487.45 0 337.15 142 c 0,12,13
 185.95 285 185.95 285 185.95 561 c 0,14,15
 185.95 835 185.95 835 337.15 977 c 0,16,17
 487.45 1120 487.45 1120 779.95 1120 c 2,18,-1
 1486.45 1120 l 1,0,-1
817.75 990 m 1,19,-1
 784.45 990 l 2,20,21
 568.45 990 568.45 990 460.45 882 c 0,22,23
 352.45 775 352.45 775 352.45 559 c 0,24,25
 352.45 342 352.45 342 460.45 234 c 0,26,27
 568.45 125 568.45 125 784.45 125 c 2,28,-1
 817.75 125 l 1,29,-1
 817.75 990 l 1,19,-1
EndSplineSet
EndChar
StartChar: uni0277
Encoding: 631 631 631
Width: 1416
Flags: W
TeX: 0 0 0 0
Fore
432.953 780 m 0,0,1
 379.854 684 379.854 684 377.153 664 c 0,2,3
 355.554 552 355.554 552 359.153 486 c 0,4,5
 367.253 319 367.253 319 407.753 256 c 0,6,7
 461.753 171 461.753 171 531.953 171 c 0,8,9
 601.253 171 601.253 171 650.753 250 c 0,10,11
 677.753 293 677.753 293 677.753 478 c 2,12,-1
 677.753 660 l 1,13,-1
 818.153 660 l 17,14,-1
 818.153 478 l 2,15,16
 818.153 293 818.153 293 845.153 250 c 0,17,18
 894.653 171 894.653 171 963.953 171 c 0,19,20
 1031.45 171 1031.45 171 1088.15 256 c 0,21,22
 1120.55 304 1120.55 304 1136.75 486 c 0,23,24
 1132.25 561 1132.25 561 1118.75 664 c 0,25,26
 1116.05 687 1116.05 687 1062.05 780 c 0,27,28
 967.554 940 967.554 940 738.953 940 c 0,29,30
 521.153 940 521.153 940 432.953 780 c 0,0,1
259.253 780 m 0,32,33
 344.753 1148 344.753 1148 747.953 1147 c 0,34,35
 1125.95 1145 1125.95 1145 1232.15 780 c 8,36,37
 1266.35 660 1266.35 660 1269.95 658 c 0,38,39
 1282.55 557 1282.55 557 1282.55 468 c 0,40,41
 1282.55 238 1282.55 238 1204.25 104 c 128,-1,42
 1125.95 -30 1125.95 -30 993.653 -30 c 0,43,44
 900.953 -30 900.953 -30 837.054 41 c 128,-1,45
 773.153 112 773.153 112 747.953 243 c 1,46,47
 722.753 112 722.753 112 658.854 41 c 128,-1,48
 594.953 -30 594.953 -30 502.253 -30 c 0,49,50
 369.953 -30 369.953 -30 291.653 104 c 0,51,52
 204.354 253 204.354 253 213.354 468 c 0,53,54
 216.054 487 216.054 487 225.953 658 c 0,55,56
 245.753 724 245.753 724 259.253 780 c 0,32,33
EndSplineSet
EndChar
StartChar: uni0278
Encoding: 632 632 632
Width: 1190
Flags: W
TeX: 0 0 0 0
Fore
541.5 1391 m 1,0,-1
 325.5 1391 l 1,1,-1
 325.5 1555 l 1,2,-1
 541.5 1555 l 1,3,-1
 707.1 1555 l 1,4,-1
 923.1 1555 l 1,5,-1
 923.1 1391 l 1,6,-1
 707.1 1391 l 1,7,-1
 707.1 1141.16 l 1,8,9
 866.852 1116.82 866.852 1116.82 966.3 991 c 0,10,11
 1089.6 835.001 1089.6 835.001 1089.6 559 c 0,12,13
 1089.6 283.999 1089.6 283.999 966.3 128 c 0,14,15
 866.851 1.37109 866.851 1.37109 707.1 -23.125 c 1,16,-1
 707.1 -261 l 1,17,-1
 923.1 -261 l 1,18,-1
 923.1 -425 l 1,19,-1
 707.1 -425 l 1,20,-1
 541.5 -425 l 1,21,-1
 325.5 -425 l 1,22,-1
 325.5 -261 l 1,23,-1
 541.5 -261 l 1,24,-1
 541.5 -22.3135 l 1,25,26
 384.84 3.40137 384.84 3.40137 287.7 128 c 0,27,28
 164.4 283.999 164.4 283.999 164.4 559 c 0,29,30
 164.4 835.001 164.4 835.001 287.7 991 c 0,31,32
 384.839 1114.81 384.839 1114.81 541.5 1140.36 c 1,33,-1
 541.5 1391 l 1,0,-1
707.1 978.674 m 1,34,-1
 707.1 139.221 l 1,35,36
 784.423 164.651 784.423 164.651 836.7 243 c 0,37,38
 914.1 359 914.1 359 914.1 559 c 0,39,40
 914.1 758 914.1 758 836.7 874 c 0,41,42
 784.422 953.024 784.422 953.024 707.1 978.674 c 1,34,-1
541.5 140.591 m 1,43,-1
 541.5 977.23 l 1,44,45
 467.018 951.206 467.018 951.206 416.4 876 c 0,46,47
 339 760 339 760 339 559 c 0,48,49
 339 358.002 339 358.002 415.5 242 c 0,50,51
 466.292 166.534 466.292 166.534 541.5 140.591 c 1,43,-1
EndSplineSet
EndChar
StartChar: uni0279
Encoding: 633 633 633
Width: 909
Flags: W
Fore
145.8 172 m 1,0,1
 173.7 154 173.7 154 206.1 146 c 0,2,3
 239.4 137 239.4 137 279 137 c 0,4,5
 419.4 137 419.4 137 494.1 238 c 0,6,7
 569.7 340 569.7 340 569.7 530 c 2,8,-1
 569.7 1120 l 1,9,-1
 736.2 1120 l 1,10,-1
 736.2 0 l 1,11,-1
 569.7 0 l 1,12,-1
 569.7 174 l 1,13,14
 517.5 72 517.5 72 433.8 22 c 0,15,16
 350.1 -27 350.1 -27 230.4 -27 c 0,17,18
 213.3 -27 213.3 -27 192.6 -24 c 0,19,20
 171.9 -22 171.9 -22 146.7 -17 c 1,21,-1
 145.8 172 l 1,0,1
EndSplineSet
EndChar
StartChar: uni027A
Encoding: 634 634 634
Width: 909
Flags: W
Fore
145.8 172 m 1,0,1
 173.7 154 173.7 154 206.1 146 c 0,2,3
 239.4 137 239.4 137 279 137 c 0,4,5
 422.1 137 422.1 137 494.1 238 c 0,6,7
 569.7 343 569.7 343 569.7 530 c 2,8,-1
 569.7 1546 l 1,9,-1
 736.2 1546 l 1,10,-1
 736.2 0 l 1,11,-1
 569.7 0 l 1,12,-1
 569.7 174 l 1,13,14
 517.5 72 517.5 72 433.8 22 c 0,15,16
 350.1 -27 350.1 -27 230.4 -27 c 0,17,18
 213.3 -27 213.3 -27 192.6 -24 c 0,19,20
 171.9 -22 171.9 -22 146.7 -17 c 1,21,-1
 145.8 172 l 1,0,1
EndSplineSet
EndChar
StartChar: uni027B
Encoding: 635 635 635
Width: 919
Flags: W
Fore
157.3 172 m 1,0,1
 185.196 154.002 185.196 154.002 217.6 146 c 0,2,3
 250.899 137 250.899 137 290.5 137 c 0,4,5
 430.9 137 430.9 137 505.6 238 c 0,6,7
 581.2 340 581.2 340 581.2 530 c 2,8,-1
 581.2 1120 l 1,9,-1
 747.7 1120 l 1,10,-1
 747.7 -20 l 2,11,12
 747.7 -173.002 747.7 -173.002 781.9 -222 c 0,13,14
 816.101 -270 816.101 -270 910.6 -270 c 2,15,-1
 954.7 -270 l 1,16,-1
 954.7 -426 l 1,17,-1
 891.7 -426 l 2,18,19
 728.8 -426 728.8 -426 655.9 -330 c 0,20,21
 582.1 -233.999 582.1 -233.999 582.1 -20 c 1,22,23
 581.2 174 l 1,24,25
 529.002 72.002 529.002 72.002 445.3 22 c 0,26,27
 361.599 -27 361.599 -27 241.9 -27 c 0,28,29
 224.801 -27 224.801 -27 204.1 -24 c 0,30,31
 183.38 -21.9971 183.38 -21.9971 158.2 -17 c 1,32,-1
 157.3 172 l 1,0,1
EndSplineSet
EndChar
StartChar: uni027C
Encoding: 636 636 636
Width: 909
Flags: W
Fore
736.2 948 m 1,0,1
 708.3 966 708.3 966 675.9 974 c 0,2,3
 642.6 983 642.6 983 603 983 c 0,4,5
 462.6 983 462.6 983 387.9 882 c 0,6,7
 312.3 780 312.3 780 312.3 590 c 2,8,-1
 312.3 -426 l 1,9,-1
 145.8 -426 l 1,10,-1
 145.8 1120 l 1,11,-1
 312.3 1120 l 1,12,-1
 312.3 946 l 1,13,14
 364.5 1048 364.5 1048 448.2 1098 c 0,15,16
 531.9 1147 531.9 1147 651.6 1147 c 0,17,18
 668.7 1147 668.7 1147 689.4 1144 c 0,19,20
 710.1 1142 710.1 1142 735.3 1137 c 1,21,-1
 736.2 948 l 1,0,1
EndSplineSet
EndChar
StartChar: uni027D
Encoding: 637 637 637
Width: 908
Flags: W
Fore
736.15 948 m 1,0,1
 708.254 965.998 708.254 965.998 675.85 974 c 0,2,3
 642.551 983 642.551 983 602.95 983 c 0,4,5
 462.55 983 462.55 983 387.85 882 c 0,6,7
 312.25 780.999 312.25 780.999 312.25 590 c 2,8,-1
 312.25 0 l 1,9,-1
 310.45 -0 l 1,10,-1
 310.45 -20 l 2,11,12
 310.45 -173.002 310.45 -173.002 344.65 -222 c 0,13,14
 378.851 -270 378.851 -270 473.35 -270 c 2,15,-1
 683.05 -270 l 1,16,-1
 683.05 -426 l 1,17,-1
 454.45 -426 l 2,18,19
 291.55 -426 291.55 -426 218.65 -330 c 0,20,21
 144.85 -233.999 144.85 -233.999 144.85 -20 c 1,22,-1
 144.85 1120 l 1,23,-1
 312.25 1120 l 1,24,-1
 312.25 946 l 1,25,26
 364.448 1048 364.448 1048 448.15 1098 c 0,27,28
 531.852 1147 531.852 1147 651.55 1147 c 0,29,30
 668.649 1147 668.649 1147 689.35 1144 c 0,31,32
 710.069 1142 710.069 1142 735.25 1137 c 1,33,-1
 736.15 948 l 1,0,1
EndSplineSet
EndChar
StartChar: uni027E
Encoding: 638 638 638
Width: 852
Flags: W
Fore
141.9 600 m 1,0,-1
 141.9 741 l 2,1,2
 141.9 953 141.9 953 215.7 1051 c 0,3,4
 288.6 1147 288.6 1147 451.5 1147 c 2,5,-1
 680.1 1147 l 1,6,-1
 680.1 991 l 1,7,-1
 470.4 991 l 2,8,9
 375.9 991 375.9 991 341.7 943 c 0,10,11
 306.6 893 306.6 893 307.5 741 c 2,12,-1
 308.4 590 l 9,13,-1
 308.4 0 l 1,14,-1
 141.9 0 l 1,15,-1
 141.9 600 l 1,0,-1
EndSplineSet
EndChar
StartChar: uni027F
Encoding: 639 639 639
Width: 852
Flags: W
Fore
680.1 600 m 1,0,-1
 680.1 0 l 1,1,-1
 513.6 0 l 1,2,-1
 513.6 590 l 17,3,-1
 514.5 741 l 2,4,5
 515.4 893 515.4 893 480.3 943 c 0,6,7
 446.1 991 446.1 991 351.6 991 c 2,8,-1
 141.9 991 l 1,9,-1
 141.9 1147 l 1,10,-1
 370.5 1147 l 2,11,12
 533.4 1147 533.4 1147 606.3 1051 c 0,13,14
 680.1 953 680.1 953 680.1 741 c 2,15,-1
 680.1 600 l 1,0,-1
EndSplineSet
EndChar
StartChar: uni0280
Encoding: 640 640 640
Width: 1163
Flags: W
Fore
641.25 525 m 1,0,1
 690.75 508 690.75 508 738.45 454 c 0,2,3
 785.25 400 785.25 400 832.95 306 c 1,4,-1
 989.55 0 l 1,5,-1
 814.05 0 l 1,6,-1
 668.25 287 l 1,7,8
 611.55 400 611.55 400 558.45 436 c 0,9,10
 505.35 473 505.35 473 418.05 473 c 2,11,-1
 265.95 473 l 1,12,-1
 265.95 0 l 1,13,-1
 99.4502 0 l 1,14,-1
 99.4502 1120 l 1,15,-1
 448.65 1120 l 2,16,17
 643.95 1120 643.95 1120 741.15 1040 c 0,18,19
 837.45 959 837.45 959 837.45 797 c 0,20,21
 837.45 692 837.45 692 787.05 622 c 128,-1,22
 736.65 552 736.65 552 641.25 525 c 1,0,1
265.95 965 m 1,23,-1
 265.95 628 l 1,24,-1
 444.15 628 l 2,25,26
 551.25 628 551.25 628 607.95 671 c 0,27,28
 665.55 714 665.55 714 665.55 797 c 0,29,30
 665.55 881 665.55 881 607.95 923 c 0,31,32
 551.25 965 551.25 965 444.15 965 c 2,33,-1
 265.95 965 l 1,23,-1
EndSplineSet
EndChar
StartChar: uni0281
Encoding: 641 641 641
Width: 1163
Flags: W
Fore
641.25 595 m 1,0,1
 736.65 568 736.65 568 787.05 498 c 128,-1,2
 837.45 428 837.45 428 837.45 323 c 0,3,4
 837.45 161 837.45 161 741.15 80 c 0,5,6
 643.95 0 643.95 0 448.65 0 c 2,7,-1
 99.4502 0 l 1,8,-1
 99.4502 1120 l 1,9,-1
 265.95 1120 l 1,10,-1
 265.95 647 l 1,11,-1
 418.05 647 l 2,12,13
 505.35 647 505.35 647 558.45 684 c 0,14,15
 611.55 720 611.55 720 668.25 833 c 1,16,-1
 814.05 1120 l 1,17,-1
 989.55 1120 l 1,18,-1
 832.95 814 l 1,19,20
 785.25 720 785.25 720 738.45 666 c 0,21,22
 690.75 612 690.75 612 641.25 595 c 1,0,1
265.95 155 m 1,23,-1
 444.15 155 l 2,24,25
 551.25 155 551.25 155 607.95 197 c 0,26,27
 665.55 239 665.55 239 665.55 323 c 0,28,29
 665.55 406 665.55 406 607.95 449 c 0,30,31
 551.25 492 551.25 492 444.15 492 c 2,32,-1
 265.95 492 l 1,33,-1
 265.95 155 l 1,23,-1
EndSplineSet
EndChar
StartChar: uni0282
Encoding: 642 642 642
Width: 1014
Flags: W
TeX: 0 0 0 0
Fore
870.2 1087 m 1,0,-1
 870.2 913 l 1,1,2
 800 952.999 800 952.999 724.4 973 c 0,3,4
 648.804 993 648.804 993 567.8 993 c 0,5,6
 444.501 993 444.501 993 383.3 951 c 0,7,8
 321.2 909 321.2 909 321.2 825 c 0,9,10
 321.2 761 321.2 761 365.3 724 c 0,11,12
 409.398 688.001 409.398 688.001 542.6 655 c 2,13,-1
 599.3 641 l 2,14,15
 775.703 598.999 775.703 598.999 849.5 522 c 0,16,17
 924.2 446.002 924.2 446.002 924.2 309 c 0,18,19
 924.2 152.999 924.2 152.999 813.5 62 c 0,20,21
 701.9 -29 701.9 -29 507.5 -29 c 0,22,23
 426.495 -29 426.495 -29 338.3 -12 c 2,24,-1
 319.4 -7.92969 l 1,25,-1
 319.4 -20 l 2,26,27
 319.4 -173.002 319.4 -173.002 353.6 -222 c 0,28,29
 387.801 -270 387.801 -270 482.3 -270 c 2,30,-1
 692 -270 l 1,31,-1
 692 -426 l 1,32,-1
 463.4 -426 l 2,33,34
 300.5 -426 300.5 -426 227.6 -330 c 0,35,36
 153.8 -233.999 153.8 -233.999 153.8 -20 c 2,37,-1
 153.8 41 l 1,38,-1
 153.8 231 l 1,39,40
 245.593 178.003 245.593 178.003 334.7 152 c 0,41,42
 423.8 125 423.8 125 511.1 125 c 0,43,44
 628.101 125 628.101 125 691.1 170 c 0,45,46
 754.1 214.002 754.1 214.002 754.1 295 c 0,47,48
 754.1 370.002 754.1 370.002 709.1 410 c 0,49,50
 663.197 450.002 663.197 450.002 509.3 487 c 2,51,-1
 451.7 502 l 1,52,53
 297.797 538.001 297.797 538.001 229.4 612 c 0,54,55
 161 687.001 161 687.001 161 817 c 0,56,57
 161 974.998 161 974.998 261.8 1061 c 0,58,59
 362.599 1147 362.599 1147 548 1147 c 0,60,61
 639.8 1147 639.8 1147 720.8 1132 c 0,62,63
 801.802 1117 801.802 1117 870.2 1087 c 1,0,-1
EndSplineSet
EndChar
StartChar: uni0283
Encoding: 643 643 643
Width: 653
Flags: W
Fore
208.2 -20 m 0,0,1
 207.3 604 207.3 604 205.5 1198 c 0,2,3
 205.5 1379 205.5 1379 283.8 1470 c 0,4,5
 356.7 1556 356.7 1556 532.2 1556 c 2,6,-1
 688.8 1556 l 1,7,-1
 688.8 1403 l 1,8,-1
 530.4 1403 l 2,9,10
 441.3 1403 441.3 1403 407.1 1363 c 0,11,12
 372 1323 372 1323 372 1219 c 1,13,-1
 373.8 -20 l 2,14,15
 373.8 -234 373.8 -234 300.9 -330 c 0,16,17
 227.1 -426 227.1 -426 64.2002 -426 c 2,18,-1
 1.2002 -426 l 1,19,-1
 1.2002 -270 l 1,20,-1
 45.2998 -270 l 2,21,22
 139.8 -270 139.8 -270 174 -222 c 0,23,24
 208.2 -173 208.2 -173 208.2 -20 c 0,0,1
EndSplineSet
EndChar
StartChar: uni0284
Encoding: 644 644 644
Width: 745
Flags: W
Fore
137.3 0 m 1,0,-1
 137.538 143 l 1,1,-1
 300.438 143 l 1,2,-1
 300.2 977 l 1,3,-1
 139.1 977 l 1,4,-1
 139.1 1120 l 1,5,-1
 297.5 1120 l 1,6,-1
 297.5 1198 l 2,7,8
 297.5 1379 297.5 1379 375.8 1470 c 0,9,10
 448.699 1556 448.699 1556 624.2 1556 c 2,11,-1
 780.8 1556 l 1,12,-1
 780.8 1403 l 1,13,-1
 622.4 1403 l 2,14,15
 533.302 1403 533.302 1403 499.1 1363 c 0,16,17
 464 1323 464 1323 464 1219 c 1,18,-1
 465.771 143 l 1,19,-1
 624.171 143 l 1,20,-1
 623.933 0 l 1,21,-1
 465.771 -0 l 1,22,-1
 465.8 -20 l 1,23,24
 465.8 -234 465.8 -234 392.9 -330 c 0,25,26
 319.101 -426 319.101 -426 156.2 -426 c 2,27,-1
 93.2002 -426 l 1,28,-1
 93.2002 -270 l 1,29,-1
 137.3 -270 l 2,30,31
 231.799 -270 231.799 -270 266 -222 c 0,32,33
 300.2 -173.002 300.2 -173.002 300.2 -20 c 2,34,-1
 300.2 -0 l 1,35,-1
 137.3 0 l 1,0,-1
EndSplineSet
EndChar
StartChar: uni0285
Encoding: 645 645 645
Width: 894
Flags: W
Fore
573.8 -20 m 0,0,1
 573.8 -173 573.8 -173 608 -222 c 0,2,3
 642.2 -270 642.2 -270 736.7 -270 c 2,4,-1
 780.8 -270 l 1,5,-1
 780.8 -426 l 1,6,-1
 717.8 -426 l 2,7,8
 554.9 -426 554.9 -426 481.1 -330 c 0,9,10
 407.3 -233 407.3 -233 408.2 -20 c 2,11,-1
 410 788 l 1,12,13
 410 892 410 892 374.9 932 c 0,14,15
 340.7 972 340.7 972 251.6 972 c 2,16,-1
 93.2002 972 l 1,17,-1
 93.2002 1125 l 1,18,-1
 249.8 1125 l 2,19,20
 425.3 1125 425.3 1125 498.2 1039 c 0,21,22
 581.9 942 581.9 942 576.5 767 c 0,23,24
 573.8 678 573.8 678 573.8 -20 c 0,0,1
EndSplineSet
EndChar
StartChar: uni0286
Encoding: 646 646 646
Width: 642
Flags: W
TeX: 0 0 0 0
Fore
184.85 -154 m 1,0,-1
 23.75 -154 l 2,1,2
 -83.3496 -154 -83.3496 -154 -80.6504 -205 c 0,3,4
 -77.9297 -270 -77.9297 -270 33.6504 -270 c 0,5,6
 132.65 -270 132.65 -270 162.35 -222 c 1,7,8
 178.499 -199.163 178.499 -199.163 184.85 -154 c 1,0,-1
362.15 0 m 1,9,-1
 525.05 0 l 1,10,-1
 525.05 -155 l 1,11,-1
 353.15 -155 l 1,12,13
 337.146 -266.139 337.146 -266.139 289.25 -330 c 0,14,15
 215 -426 215 -426 52.5498 -426 c 0,16,17
 -220.15 -426 -220.15 -426 -220.15 -210 c 0,18,19
 -220.15 0 -220.15 0 22.8496 0 c 2,20,-1
 193.85 0 l 1,21,-1
 193.85 1198 l 2,22,23
 193.85 1378.5 193.85 1378.5 272.15 1470 c 0,24,25
 345.477 1556 345.477 1556 520.55 1556 c 2,26,-1
 677.15 1556 l 1,27,-1
 677.15 1403 l 1,28,-1
 518.75 1403 l 2,29,30
 428.783 1403 428.783 1403 395.45 1363 c 0,31,32
 360.35 1322.5 360.35 1322.5 360.35 1219 c 1,33,-1
 362.15 0 l 1,9,-1
EndSplineSet
EndChar
StartChar: uni0287
Encoding: 647 647 647
Width: 763
Flags: W
Fore
431.05 -318 m 1,0,-1
 431.05 0 l 1,1,-1
 89.9502 0 l 1,2,-1
 89.9502 143 l 1,3,-1
 431.05 143 l 1,4,-1
 431.05 751 l 2,5,6
 431.05 888 431.05 888 396.85 927 c 0,7,8
 363.55 966 363.55 966 260.05 966 c 2,9,-1
 89.9502 966 l 1,10,-1
 89.9502 1120 l 1,11,-1
 260.05 1120 l 2,12,13
 451.75 1120 451.75 1120 524.65 1040 c 0,14,15
 597.55 961 597.55 961 597.55 751 c 2,16,-1
 597.55 143 l 1,17,-1
 719.05 143 l 1,18,-1
 719.05 0 l 1,19,-1
 597.55 0 l 1,20,-1
 597.55 -318 l 1,21,-1
 431.05 -318 l 1,0,-1
EndSplineSet
EndChar
StartChar: uni0288
Encoding: 648 648 648
Width: 763
Flags: W
Fore
377.95 1438 m 1,0,-1
 377.95 1120 l 1,1,-1
 719.05 1120 l 1,2,-1
 719.05 977 l 1,3,-1
 377.95 977 l 1,4,-1
 377.95 -56 l 2,5,6
 377.95 -193 377.95 -193 411.25 -232 c 0,7,8
 445.45 -271 445.45 -271 548.95 -271 c 2,9,-1
 719.05 -271 l 1,10,-1
 719.05 -425 l 1,11,-1
 548.95 -425 l 2,12,13
 357.25 -425 357.25 -425 284.35 -346 c 128,-1,14
 211.45 -267 211.45 -267 211.45 -56 c 2,15,-1
 211.45 977 l 1,16,-1
 89.9502 977 l 1,17,-1
 89.9502 1120 l 1,18,-1
 211.45 1120 l 1,19,-1
 211.45 1438 l 1,20,-1
 377.95 1438 l 1,0,-1
EndSplineSet
EndChar
StartChar: uni0289
Encoding: 649 649 649
Width: 1233
Flags: W
Fore
64.9004 452 m 1,0,-1
 64.9004 616 l 1,1,-1
 221.5 616 l 1,2,-1
 221.5 1120 l 1,3,-1
 387.1 1120 l 1,4,-1
 387.1 616 l 1,5,-1
 900.1 616 l 1,6,-1
 900.1 1120 l 1,7,-1
 1065.7 1120 l 1,8,-1
 1065.7 616 l 1,9,-1
 1233.1 616 l 1,10,-1
 1233.1 452 l 1,11,-1
 1065.7 452 l 1,12,-1
 1065.7 0 l 1,13,-1
 900.1 0 l 1,14,-1
 900.1 172 l 1,15,16
 839.802 70.002 839.802 70.002 759.7 20 c 0,17,18
 680.499 -29 680.499 -29 575.2 -29 c 0,19,20
 401.499 -29 401.499 -29 311.5 91 c 0,21,22
 221.5 211.001 221.5 211.001 221.5 442 c 2,23,-1
 221.5 452 l 1,24,-1
 64.9004 452 l 1,0,-1
899.282 452 m 1,25,-1
 387.1 452 l 1,26,-1
 387.1 449 l 2,27,28
 387.1 290 387.1 290 442.9 210 c 0,29,30
 498.702 131 498.702 131 610.3 131 c 0,31,32
 744.4 131 744.4 131 822.7 226 c 0,33,34
 892.141 311.231 892.141 311.231 899.282 452 c 1,25,-1
EndSplineSet
EndChar
StartChar: uni028A
Encoding: 650 650 650
Width: 1201
Flags: W
TeX: 0 0 0 0
Fore
165.15 956 m 1,0,-1
 165.15 1120 l 1,1,-1
 562.95 1120 l 1,2,-1
 562.95 900 l 1,3,4
 464.85 831 464.85 831 408.15 726 c 0,5,6
 348.75 615 348.75 615 348.75 480 c 0,7,8
 348.75 321 348.75 321 427.95 224 c 128,-1,9
 507.15 127 507.15 127 636.75 127 c 128,-1,10
 766.35 127 766.35 127 845.55 224 c 0,11,12
 924.75 322 924.75 322 924.75 480 c 0,13,14
 924.75 626 924.75 626 865.35 726 c 0,15,16
 801.45 837 801.45 837 711.45 900 c 1,17,-1
 711.45 1120 l 1,18,-1
 1103.85 1120 l 1,19,-1
 1103.85 956 l 1,20,-1
 891.45 956 l 1,21,22
 994.05 856 994.05 856 1044.45 743 c 0,23,24
 1093.05 633 1093.05 633 1093.05 497 c 0,25,26
 1093.05 262 1093.05 262 965.25 116 c 128,-1,27
 837.45 -30 837.45 -30 634.95 -30 c 128,-1,28
 432.45 -30 432.45 -30 304.65 115 c 0,29,30
 176.85 261 176.85 261 176.85 489 c 0,31,32
 176.85 636 176.85 636 223.65 743 c 0,33,34
 271.35 852 271.35 852 378.45 956 c 1,35,-1
 165.15 956 l 1,0,-1
EndSplineSet
EndChar
StartChar: uni028B
Encoding: 651 651 651
Width: 1167
Flags: W
TeX: 0 0 0 0
Fore
578.45 986 m 0,0,-1
 868.25 986 l 1,1,-1
 868.25 986 l 1,2,3
 970.85 886 970.85 886 1021.25 773 c 0,4,5
 1069.85 663 1069.85 663 1069.85 527 c 0,6,7
 1069.85 292 1069.85 292 942.05 146 c 128,-1,8
 814.25 0 814.25 0 611.75 0 c 0,9,-1
 548.75 0 l 2,10,11
 385.85 0 385.85 0 312.05 96 c 0,12,13
 239.15 192 239.15 192 239.15 406 c 2,14,-1
 239.15 1120 l 1,15,-1
 404.75 1120 l 1,16,-1
 404.75 406 l 2,17,18
 404.75 253 404.75 253 438.95 204 c 0,19,20
 474.95 154 474.95 154 567.65 156 c 2,21,-1
 613.55 157 l 0,22,23
 743.15 157 743.15 157 822.35 254 c 0,24,25
 901.55 352 901.55 352 901.55 510 c 0,26,27
 901.55 656 901.55 656 842.15 756 c 0,28,29
 771.05 875 771.05 875 688.25 930 c 16,30,31
 619.85 974 619.85 974 578.45 986 c 0,0,-1
EndSplineSet
EndChar
StartChar: uni028C
Encoding: 652 652 652
Width: 1151
Flags: W
Fore
1096.5 0 m 1,0,-1
 921 0 l 1,1,-1
 606 940 l 1,2,-1
 291 0 l 1,3,-1
 115.5 0 l 1,4,-1
 493.5 1120 l 1,5,-1
 718.5 1120 l 1,6,-1
 1096.5 0 l 1,0,-1
EndSplineSet
EndChar
StartChar: uni028D
Encoding: 653 653 653
Width: 1591
Flags: W
Fore
1513.85 0 m 1,0,-1
 1348.25 0 l 1,1,-1
 1141.25 874 l 1,2,-1
 935.15 0 l 1,3,-1
 739.85 0 l 1,4,-1
 532.85 874 l 1,5,-1
 326.75 0 l 1,6,-1
 161.15 0 l 1,7,-1
 424.85 1120 l 1,8,-1
 620.15 1120 l 1,9,-1
 837.05 202 l 1,10,-1
 1054.85 1120 l 1,11,-1
 1250.15 1120 l 1,12,-1
 1513.85 0 l 1,0,-1
EndSplineSet
EndChar
StartChar: uni028E
Encoding: 654 654 654
Width: 1151
Flags: W
Fore
558.3 1224 m 1,0,1
 628.5 1424 628.5 1424 695.1 1485 c 128,-1,2
 761.7 1546 761.7 1546 873.3 1546 c 2,3,-1
 1005.6 1546 l 1,4,-1
 1005.6 1392 l 1,5,-1
 908.4 1392 l 2,6,7
 840 1392 840 1392 802.2 1356 c 128,-1,8
 764.4 1320 764.4 1320 718.5 1186 c 1,9,-1
 688.8 1102 l 1,10,-1
 1096.5 0 l 1,11,-1
 921 0 l 1,12,-1
 606 876 l 1,13,-1
 291 0 l 1,14,-1
 115.5 0 l 1,15,-1
 558.3 1224 l 1,0,1
EndSplineSet
EndChar
StartChar: uni028F
Encoding: 655 655 655
Width: 1187
Flags: W
TeX: 0 0 0 0
Fore
153.45 1149 m 1,0,-1
 348.75 1149 l 1,1,-1
 612.45 693 l 1,2,-1
 884.25 1149 l 1,3,-1
 1079.55 1149 l 1,4,-1
 702.45 525 l 1,5,-1
 702.45 0 l 1,6,-1
 519.75 0 l 1,7,-1
 519.75 525 l 1,8,-1
 153.45 1149 l 1,0,-1
EndSplineSet
EndChar
StartChar: uni0290
Encoding: 656 656 656
Width: 1032
Flags: W
TeX: 0 0 0 0
Fore
166.85 1120 m 1,0,-1
 953.45 1120 l 1,1,-1
 953.45 952 l 1,2,-1
 330.65 147 l 1,3,-1
 953.45 147 l 1,4,-1
 953.45 0 l 1,5,-1
 951.65 -0 l 1,6,-1
 951.65 -20 l 2,7,8
 951.65 -173.002 951.65 -173.002 985.85 -222 c 0,9,10
 1020.05 -270 1020.05 -270 1114.55 -270 c 2,11,-1
 1158.65 -270 l 1,12,-1
 1158.65 -426 l 1,13,-1
 1095.65 -426 l 2,14,15
 932.75 -426 932.75 -426 859.85 -330 c 0,16,17
 786.05 -233.999 786.05 -233.999 786.05 -20 c 2,18,-1
 786.05 0 l 1,19,-1
 144.35 0 l 1,20,-1
 144.35 168 l 1,21,-1
 767.15 973 l 1,22,-1
 166.85 973 l 1,23,-1
 166.85 1120 l 1,0,-1
EndSplineSet
EndChar
StartChar: uni0291
Encoding: 657 657 657
Width: 1021
Flags: W
TeX: 0 0 0 0
Fore
596.743 0 m 1,0,-1
 593.75 -51.04 593.75 -51.04 593.75 -111 c 1,19,20
 456.05 -111 l 1,18,-1
 456.05 -52.3496 456.05 -52.3496 459.187 -0 c 1,16,17
 132.95 0 l 1,15,-1
 132.95 168 l 1,14,-1
 755.75 973 l 1,13,-1
 155.45 973 l 1,12,-1
 155.45 1120 l 1,11,-1
 942.05 1120 l 1,10,-1
 942.05 952 l 1,9,-1
 319.25 147 l 1,8,-1
 476.415 147 l 1,7,-1
 530.448 435 530.448 435 727.85 435 c 0,5,6
 932.15 435 932.15 435 933.05 189 c 0,3,4
 933.949 0 933.949 0 633.35 0 c 2,1,2
 596.743 0 l 1,0,-1
615.4 147 m 1,21,22
 633.35 147 l 2,27,-1
 789.95 147 789.95 147 789.95 201 c 0,25,26
 789.95 292 789.95 292 726.95 292 c 0,23,24
 647.451 290.209 647.451 290.209 615.4 147 c 1,21,22
EndSplineSet
EndChar
StartChar: uni0292
Encoding: 658 658 658
Width: 1122
Flags: W
TeX: 0 0 0 0
Fore
572.75 476 m 1,0,-1
 668.15 476 668.15 476 783.35 420 c 0,31,32
 871.55 378 871.55 378 948.95 269 c 0,29,30
 1021.85 165 1021.85 165 1021.85 27 c 0,27,28
 1021.85 -194 1021.85 -194 885.05 -315 c 128,-1,26
 748.25 -436 748.25 -436 496.25 -436 c 0,24,25
 411.65 -436 411.65 -436 322.55 -418 c 0,22,23
 232.55 -399 232.55 -399 137.15 -362 c 1,20,21
 137.15 -167 l 1,19,-1
 212.75 -216 212.75 -216 302.75 -241 c 128,-1,18
 392.75 -266 392.75 -266 490.85 -266 c 0,16,17
 661.85 -266 661.85 -266 750.95 -191 c 0,14,15
 840.95 -116 840.95 -116 840.95 27 c 0,12,13
 840.95 159 840.95 159 758.15 234 c 0,10,11
 674.45 308 674.45 308 525.95 308 c 2,8,9
 369.35 308 l 1,7,-1
 369.35 474 l 1,6,-1
 756.35 973 l 1,5,-1
 156.05 973 l 1,4,-1
 156.05 1120 l 1,3,-1
 942.65 1120 l 1,2,-1
 942.65 952 l 1,1,-1
 572.75 476 l 1,0,-1
EndSplineSet
EndChar
StartChar: uni0293
Encoding: 659 659 659
Width: 1126
Flags: W
TeX: 0 0 0 0
Fore
500.35 -436 m 0,0,1
 199.3 -436 199.3 -436 200.65 -247 c 0,2,3
 202 3.5 202 3.5 470.65 -1 c 0,4,5
 692.454 -5.48047 692.454 -5.48047 834.25 -64 c 1,6,7
 845.05 -22 845.05 -22 845.05 27 c 0,8,9
 845.05 160.098 845.05 160.098 762.25 234 c 0,10,11
 677.98 308 677.98 308 530.05 308 c 2,12,-1
 373.45 308 l 1,13,-1
 373.45 474 l 1,14,-1
 760.45 973 l 1,15,-1
 160.15 973 l 1,16,-1
 160.15 1120 l 1,17,-1
 946.75 1120 l 1,18,-1
 946.75 952 l 1,19,-1
 576.85 476 l 1,20,21
 671.666 476 671.666 476 787.45 420 c 0,22,23
 877.086 377.098 877.086 377.098 953.05 269 c 0,24,25
 1025.95 165.5 1025.95 165.5 1025.95 27 c 0,26,27
 1025.95 -85.5 1025.95 -85.5 990.85 -171 c 1,28,29
 1080.85 -272.493 1080.85 -272.493 1080.85 -436 c 1,30,-1
 943.15 -436 l 1,31,32
 943.15 -354.296 943.15 -354.296 907.15 -298 c 1,33,34
 889.15 -315 l 2,35,36
 753.36 -436 753.36 -436 500.35 -436 c 0,0,1
761.35 -186 m 1,37,38
 649.3 -144 649.3 -144 471.55 -144 c 0,39,40
 354.1 -144 354.1 -144 352.75 -219 c 0,41,42
 352.75 -266 352.75 -266 494.95 -266 c 0,43,44
 665.95 -266 665.95 -266 755.05 -191 c 2,45,-1
 761.35 -186 l 1,37,38
EndSplineSet
EndChar
StartChar: uni0294
Encoding: 660 660 660
Width: 991
Flags: W
Fore
357.05 798 m 9,0,-1
 413.75 798 l 1,1,2
 586.55 798 586.55 798 663.95 912 c 0,3,4
 716.15 988 716.15 988 716.15 1086 c 0,5,6
 715.25 1219 715.25 1219 663.95 1284 c 0,7,8
 574.85 1398 574.85 1398 413.75 1398 c 0,9,10
 341.75 1398 341.75 1398 270.65 1376 c 0,11,12
 200.45 1355 200.45 1355 130.25 1312 c 1,13,-1
 130.25 1484 l 1,14,15
 198.65 1519 198.65 1519 271.55 1536 c 0,16,17
 344.45 1554 344.45 1554 420.95 1554 c 0,18,19
 668.45 1554 668.45 1554 792.65 1397 c 0,20,21
 890.75 1272 890.75 1272 890.75 1086 c 0,22,23
 890.75 916 890.75 916 793.55 801 c 0,24,25
 692.75 682 692.75 682 539.75 652 c 1,26,-1
 539.75 0 l 1,27,-1
 357.95 0 l 1,28,-1
 357.05 798 l 9,0,-1
EndSplineSet
EndChar
StartChar: uni0295
Encoding: 661 661 661
Width: 991
Flags: W
Fore
663.05 798 m 17,0,-1
 663.05 0 l 1,1,-1
 481.25 0 l 1,2,-1
 481.25 652 l 1,3,4
 328.25 682 328.25 682 227.45 801 c 0,5,6
 130.25 916 130.25 916 130.25 1086 c 0,7,8
 130.25 1272 130.25 1272 229.25 1397 c 0,9,10
 352.55 1554 352.55 1554 600.05 1554 c 0,11,12
 676.55 1554 676.55 1554 749.45 1536 c 0,13,14
 822.35 1519 822.35 1519 890.75 1484 c 1,15,-1
 890.75 1312 l 1,16,17
 820.55 1355 820.55 1355 749.45 1376 c 0,18,19
 679.25 1398 679.25 1398 607.25 1398 c 0,20,21
 446.15 1398 446.15 1398 357.05 1284 c 0,22,23
 305.75 1219 305.75 1219 304.85 1086 c 0,24,25
 304.85 988 304.85 988 357.05 912 c 0,26,27
 434.45 798 434.45 798 607.25 798 c 1,28,-1
 663.05 798 l 17,0,-1
EndSplineSet
EndChar
StartChar: uni0296
Encoding: 662 662 662
Width: 991
Flags: W
Fore
357.05 756 m 17,0,-1
 357.95 1554 l 1,1,-1
 539.75 1554 l 1,2,-1
 539.75 902 l 1,3,4
 692.75 872 692.75 872 793.55 753 c 0,5,6
 890.75 638 890.75 638 890.75 468 c 0,7,8
 890.75 282 890.75 282 792.65 157 c 0,9,10
 668.45 0 668.45 0 420.95 0 c 0,11,12
 344.45 0 344.45 0 271.55 18 c 0,13,14
 198.65 35 198.65 35 130.25 70 c 1,15,-1
 130.25 242 l 1,16,17
 200.45 199 200.45 199 270.65 178 c 0,18,19
 341.75 156 341.75 156 413.75 156 c 0,20,21
 574.85 156 574.85 156 663.95 270 c 0,22,23
 715.25 335 715.25 335 716.15 468 c 0,24,25
 716.15 566 716.15 566 663.95 642 c 0,26,27
 586.55 756 586.55 756 413.75 756 c 1,28,-1
 357.05 756 l 17,0,-1
EndSplineSet
EndChar
StartChar: uni0297
Encoding: 663 663 663
Width: 991
VWidth: 1622
Flags: W
TeX: 0 0 0 0
Fore
130.25 1088 m 17,0,1
 130.25 1274 130.25 1274 229.25 1399 c 0,2,3
 352.55 1556 352.55 1556 600.05 1556 c 0,4,5
 676.55 1556 676.55 1556 749.45 1538 c 0,6,7
 822.35 1521 822.35 1521 890.75 1486 c 1,8,-1
 890.75 1314 l 1,9,10
 820.55 1357 820.55 1357 749.45 1378 c 0,11,12
 679.25 1400 679.25 1400 607.25 1400 c 0,13,14
 446.15 1400 446.15 1400 357.05 1286 c 0,15,16
 305.75 1221 305.75 1221 304.85 1088 c 1,17,-1
 304.85 32 l 17,18,19
 305.75 -101 305.75 -101 357.05 -166 c 0,20,21
 446.15 -280 446.15 -280 607.25 -280 c 0,22,23
 679.25 -280 679.25 -280 749.45 -258 c 0,24,25
 820.55 -237 820.55 -237 890.75 -194 c 1,26,-1
 890.75 -366 l 1,27,28
 822.35 -401 822.35 -401 749.45 -418 c 0,29,30
 676.55 -436 676.55 -436 600.05 -436 c 0,31,32
 352.55 -436 352.55 -436 229.25 -279 c 0,33,34
 130.25 -154 130.25 -154 130.25 32 c 1,35,-1
 130.25 1088 l 17,0,1
EndSplineSet
EndChar
StartChar: uni0298
Encoding: 664 664 664
Width: 1172
Flags: W
Fore
310.55 566 m 0,0,1
 310.55 425 310.55 425 401.45 326 c 0,2,3
 491.45 227 491.45 227 618.35 227 c 128,-1,4
 745.25 227 745.25 227 834.35 326 c 128,-1,5
 923.45 425 923.45 425 923.45 566 c 0,6,7
 923.45 704 923.45 704 833.45 806 c 0,8,9
 742.55 908 742.55 908 618.35 908 c 0,10,11
 491.45 908 491.45 908 401.45 806 c 0,12,13
 310.55 704 310.55 704 310.55 566 c 0,0,1
147.11 565.2 m 0,14,15
 147.11 776.8 147.11 776.8 286.214 933.2 c 0,16,17
 424.49 1089.6 424.49 1089.6 619.07 1089.6 c 0,18,19
 809.51 1089.6 809.51 1089.6 948.614 933.2 c 0,20,21
 1086.89 776.8 1086.89 776.8 1086.89 565.2 c 0,22,23
 1086.89 349 1086.89 349 950.27 197.2 c 128,-1,24
 813.65 45.4004 813.65 45.4004 619.07 45.4004 c 128,-1,25
 424.49 45.4004 424.49 45.4004 286.214 197.2 c 0,26,27
 147.11 349 147.11 349 147.11 565.2 c 0,14,15
514.85 567 m 0,28,29
 514.85 613 514.85 613 545.45 647 c 0,30,31
 575.15 681 575.15 681 617.45 681 c 0,32,33
 658.85 681 658.85 681 689.45 647 c 0,34,35
 719.15 613 719.15 613 719.15 567 c 0,36,37
 719.15 520 719.15 520 689.45 487 c 128,-1,38
 659.75 454 659.75 454 617.45 454 c 128,-1,39
 575.15 454 575.15 454 545.45 487 c 0,40,41
 514.85 520 514.85 520 514.85 567 c 0,28,29
EndSplineSet
EndChar
StartChar: uni0299
Encoding: 665 665 665
Width: 1126
Flags: W
Fore
401.55 530 m 1,0,-1
 401.55 170 l 1,1,-1
 600.45 170 l 2,2,3
 684.15 170 684.15 170 725.55 221 c 0,4,5
 769.65 275 769.65 275 769.65 338 c 0,6,7
 769.65 430 769.65 430 730.05 479 c 0,8,9
 688.65 530 688.65 530 604.05 530 c 2,10,-1
 401.55 530 l 1,0,-1
400.65 980 m 1,11,-1
 401.55 700 l 1,12,-1
 590.55 700 l 2,13,14
 667.05 700 667.05 700 704.85 743 c 0,15,16
 742.65 785 742.65 785 742.65 848 c 0,17,18
 742.65 894 742.65 894 704.85 937 c 128,-1,19
 667.05 980 667.05 980 589.65 980 c 2,20,-1
 400.65 980 l 1,11,-1
219.75 1149 m 1,21,-1
 577.05 1149 l 2,22,23
 737.25 1149 737.25 1149 823.65 1075 c 128,-1,24
 910.05 1001 910.05 1001 910.05 865 c 0,25,26
 910.05 760 910.05 760 865.95 697 c 0,27,28
 821.85 635 821.85 635 735.45 620 c 1,29,30
 838.95 595 838.95 595 896.55 517 c 0,31,32
 953.25 439 953.25 439 953.25 322 c 0,33,34
 953.25 168 953.25 168 858.75 84 c 0,35,36
 765.15 0 765.15 0 591.45 0 c 2,37,-1
 219.75 0 l 1,38,-1
 219.75 1149 l 1,21,-1
EndSplineSet
EndChar
StartChar: uni029A
Encoding: 666 666 666
Width: 1326
Flags: W
TeX: 0 0 0 0
Fore
636.2 984 m 0,0,1
 497.6 984 497.6 984 429.2 930 c 0,2,3
 352.7 869 352.7 869 352.7 792 c 128,-1,4
 352.7 715 352.7 715 423.8 660 c 0,5,6
 462.5 630 462.5 630 629 630 c 2,7,-1
 792.8 630 l 1,8,-1
 792.8 473 l 17,9,-1
 629 473 l 2,10,11
 462.5 473 462.5 473 423.8 443 c 0,12,13
 352.7 389 352.7 389 352.7 311 c 0,14,15
 352.7 237 352.7 237 429.2 173 c 0,16,17
 494.9 119 494.9 119 636.2 119 c 0,18,19
 1043 120 1043 120 1043.9 566 c 1,20,21
 1043 984 1043 984 636.2 984 c 0,0,1
899.9 1099 m 0,22,23
 1230.2 948 1230.2 948 1230.2 556 c 0,24,25
 1230.2 212 1230.2 212 899.9 18 c 0,26,27
 796.4 -44 796.4 -44 620 -42 c 0,28,29
 413 -42 413 -42 292.4 45 c 0,30,31
 171.8 131 171.8 131 171.8 279 c 0,32,33
 171.8 382 171.8 382 235.7 453 c 128,-1,34
 299.6 524 299.6 524 417.5 552 c 1,35,36
 299.6 579 299.6 579 235.7 650 c 128,-1,37
 171.8 721 171.8 721 171.8 824 c 0,38,39
 171.8 972 171.8 972 292.4 1059 c 0,40,41
 413 1145 413 1145 620 1145 c 0,42,43
 800 1145 800 1145 899.9 1099 c 0,22,23
EndSplineSet
EndChar
StartChar: uni029B
Encoding: 667 667 667
Width: 1385
Flags: W
TeX: 0 0 0 0
Fore
923.4 178 m 1,0,-1
 923.4 460 l 1,1,-1
 783.9 460 l 1,2,-1
 783.9 600 l 1,3,-1
 1072.8 600 l 1,4,-1
 1072.8 72 l 1,5,6
 1008 37.5 1008 37.5 929.7 18 c 0,7,8
 859.5 0 859.5 0 677.7 0 c 0,9,10
 449.55 0 449.55 0 315.9 159 c 0,11,12
 181.8 318.535 181.8 318.535 181.8 588 c 0,13,14
 181.8 862.02 181.8 862.02 317.7 1019 c 0,15,16
 452.271 1176 452.271 1176 688.5 1176 c 0,17,18
 744.75 1176 744.75 1176 837.9 1158 c 0,19,20
 866.7 1152 866.7 1152 882 1147 c 1,21,-1
 882 1148 l 2,22,23
 882 1362.58 882 1362.58 955.8 1458 c 0,24,25
 1028.7 1554 1028.7 1554 1191.6 1554 c 2,26,-1
 1420.2 1554 l 1,27,-1
 1420.2 1398 l 1,28,-1
 1210.5 1398 l 2,29,30
 1115.55 1398 1115.55 1398 1081.8 1350 c 0,31,32
 1047.6 1299.84 1047.6 1299.84 1047.6 1148 c 2,33,-1
 1047.6 1000 l 1,34,-1
 1045.8 1000 l 1,35,-1
 1045.8 894 l 1,36,37
 936.659 971.308 936.659 971.308 837.9 998 c 0,38,39
 761.34 1020 761.34 1020 695.7 1020 c 0,40,41
 534.6 1020 534.6 1020 445.5 906 c 0,42,43
 356.4 793.5 356.4 793.5 356.4 588 c 0,44,45
 356.4 382.5 356.4 382.5 445.5 270 c 0,46,47
 534.6 156 534.6 156 695.7 156 c 0,48,49
 853.44 156 853.44 156 923.4 178 c 1,0,-1
EndSplineSet
EndChar
StartChar: uni029C
Encoding: 668 668 668
Width: 1233
Flags: W
Fore
226.25 1147 m 1,0,-1
 408.05 1147 l 1,1,-1
 408.05 700 l 1,2,-1
 894.95 700 l 1,3,-1
 894.95 1147 l 1,4,-1
 1076.75 1147 l 1,5,-1
 1076.75 0 l 1,6,-1
 894.95 0 l 1,7,-1
 894.95 530 l 1,8,-1
 408.05 530 l 1,9,-1
 408.05 0 l 1,10,-1
 226.25 0 l 1,11,-1
 226.25 1147 l 1,0,-1
EndSplineSet
EndChar
StartChar: uni029D
Encoding: 669 669 669
Width: 689
Flags: W
TeX: 0 0 0 0
Fore
188.1 1556 m 1,0,-1
 353.7 1556 l 1,1,-1
 353.7 1323 l 1,2,-1
 188.1 1323 l 1,3,-1
 188.1 1556 l 1,0,-1
44.0996 -426 m 0,4,5
 -228.6 -426 -228.6 -426 -228.6 -205 c 0,17,18
 -228.6 0 -228.6 0 14.4004 0 c 2,15,16
 188.1 0 l 1,14,-1
 188.1 1120 l 1,13,-1
 353.7 1120 l 1,12,-1
 353.7 -0 l 1,11,-1
 516.6 0 l 1,10,-1
 516.6 -155 l 1,9,-1
 344.817 -154.657 l 1,8,-1
 328.174 -267.409 328.174 -267.409 280.35 -330 c 0,6,7
 207.226 -425.707 207.226 -425.707 44.0996 -426 c 0,4,5
178.212 -154.325 m 1,19,20
 15.2998 -154 l 2,27,-1
 -91.6152 -153.786 -91.6152 -153.786 -89.0996 -205 c 0,25,26
 -85.8857 -270 -85.8857 -270 25.2002 -270 c 0,23,24
 119.7 -270 119.7 -270 153.9 -221.5 c 0,21,22
 169.71 -199.079 169.71 -199.079 178.212 -154.325 c 1,19,20
EndSplineSet
EndChar
StartChar: uni029E
Encoding: 670 670 670
Width: 1297
Flags: W
Fore
1130.3 -436 m 1,0,-1
 963.8 -436 l 1,1,-1
 963.8 483 l 1,2,-1
 469.7 0 l 1,3,-1
 258.2 0 l 1,4,-1
 792.8 524 l 1,5,-1
 235.7 1120 l 1,6,-1
 451.7 1120 l 1,7,-1
 963.8 573 l 1,8,-1
 963.8 1120 l 1,9,-1
 1130.3 1120 l 1,10,-1
 1130.3 -436 l 1,0,-1
EndSplineSet
EndChar
StartChar: uni029F
Encoding: 671 671 671
Width: 1134
Flags: W
Fore
221.05 1147 m 1,0,-1
 402.85 1147 l 1,1,-1
 402.85 170 l 1,2,-1
 977.95 170 l 1,3,-1
 977.95 0 l 1,4,-1
 221.05 0 l 1,5,-1
 221.05 1147 l 1,0,-1
EndSplineSet
EndChar
StartChar: uni02A0
Encoding: 672 672 672
Width: 1422
Flags: W
TeX: 0 0 0 0
Fore
919.05 168 m 1,0,1
 866.851 68.001 866.851 68.001 787.65 20 c 0,2,3
 707.547 -29 707.547 -29 595.95 -29 c 0,4,5
 413.251 -29 413.251 -29 298.05 133 c 0,6,7
 183.75 295.001 183.75 295.001 183.75 559 c 0,8,9
 183.75 822.999 183.75 822.999 298.05 985 c 0,10,11
 413.251 1147 413.251 1147 595.95 1147 c 0,12,13
 707.547 1147 707.547 1147 787.65 1098 c 0,14,15
 866.851 1050 866.851 1050 919.05 950 c 1,16,-1
 919.05 1000 l 1,17,-1
 919.05 1120 l 1,18,-1
 919.05 1148 l 2,19,20
 919.05 1362 919.05 1362 992.85 1458 c 0,21,22
 1065.75 1554 1065.75 1554 1228.65 1554 c 2,23,-1
 1457.25 1554 l 1,24,-1
 1457.25 1398 l 1,25,-1
 1247.55 1398 l 2,26,27
 1153.05 1398 1153.05 1398 1118.85 1350 c 0,28,29
 1084.65 1301 1084.65 1301 1084.65 1148 c 2,30,-1
 1084.65 1120 l 1,31,-1
 1084.65 1000 l 1,32,-1
 1084.65 -426 l 1,33,-1
 919.05 -426 l 1,34,-1
 919.05 168 l 1,0,1
354.75 559 m 0,35,36
 354.75 356 354.75 356 429.45 240 c 0,37,38
 505.051 125 505.051 125 636.45 125 c 0,39,40
 767.85 125 767.85 125 843.45 240 c 0,41,42
 919.05 356.001 919.05 356.001 919.05 559 c 0,43,44
 919.05 761.999 919.05 761.999 843.45 878 c 0,45,46
 767.85 993 767.85 993 636.45 993 c 0,47,48
 505.051 993 505.051 993 429.45 878 c 0,49,50
 354.75 762 354.75 762 354.75 559 c 0,35,36
EndSplineSet
EndChar
StartChar: uni02A1
Encoding: 673 673 673
Width: 991
Flags: W
Fore
357.05 798 m 1,0,-1
 413.75 798 l 2,1,2
 586.549 798 586.549 798 663.95 912 c 0,3,4
 716.15 988 716.15 988 716.15 1086 c 0,5,6
 715.251 1219 715.251 1219 663.95 1284 c 0,7,8
 574.85 1398 574.85 1398 413.75 1398 c 0,9,10
 341.753 1398 341.753 1398 270.65 1376 c 0,11,12
 200.453 1355 200.453 1355 130.25 1312 c 1,13,-1
 130.25 1484 l 1,14,15
 198.641 1519 198.641 1519 271.55 1536 c 0,16,17
 344.45 1554 344.45 1554 420.95 1554 c 0,18,19
 668.449 1554 668.449 1554 792.65 1397 c 0,20,21
 890.75 1272 890.75 1272 890.75 1086 c 0,22,23
 890.75 915.999 890.75 915.999 793.55 801 c 0,24,25
 692.752 682 692.752 682 539.75 652 c 1,26,-1
 539.75 440 l 1,27,-1
 747.65 440 l 1,28,-1
 747.65 276 l 1,29,-1
 539.75 276 l 1,30,-1
 539.75 0 l 1,31,-1
 357.95 0 l 1,32,-1
 357.639 276 l 1,33,-1
 151.85 276 l 1,34,-1
 151.85 440 l 1,35,-1
 357.454 440 l 1,36,-1
 357.05 798 l 1,0,-1
EndSplineSet
EndChar
StartChar: uni02A2
Encoding: 674 674 674
Width: 991
Flags: W
Fore
481.25 440 m 1,0,-1
 481.25 652 l 1,1,2
 328.248 682 328.248 682 227.45 801 c 0,3,4
 130.25 915.999 130.25 915.999 130.25 1086 c 0,5,6
 130.25 1272 130.25 1272 229.25 1397 c 0,7,8
 352.552 1554 352.552 1554 600.05 1554 c 0,9,10
 676.55 1554 676.55 1554 749.45 1536 c 0,11,12
 822.359 1519 822.359 1519 890.75 1484 c 1,13,-1
 890.75 1312 l 1,14,15
 820.547 1355 820.547 1355 749.45 1376 c 0,16,17
 679.247 1398 679.247 1398 607.25 1398 c 0,18,19
 446.15 1398 446.15 1398 357.05 1284 c 0,20,21
 305.749 1219 305.749 1219 304.85 1086 c 0,22,23
 304.85 988 304.85 988 357.05 912 c 0,24,25
 434.451 798 434.451 798 607.25 798 c 2,26,-1
 663.05 798 l 1,27,-1
 663.05 440 l 1,28,-1
 869.15 440 l 1,29,-1
 869.15 276 l 1,30,-1
 663.05 276 l 1,31,-1
 663.05 0 l 1,32,-1
 481.25 0 l 1,33,-1
 481.25 276 l 1,34,-1
 273.35 276 l 1,35,-1
 273.35 440 l 1,36,-1
 481.25 440 l 1,0,-1
EndSplineSet
EndChar
StartChar: uni02A3
Encoding: 675 675 675
Width: 1974
Flags: W
TeX: 0 0 0 0
Fore
377.7 559 m 0,0,1
 377.7 356 377.7 356 452.4 240 c 0,2,3
 528 125 528 125 659.4 125 c 0,4,5
 790.8 125 790.8 125 866.4 240 c 0,6,7
 942 356 942 356 942 559 c 0,8,9
 942 762 942 762 866.4 878 c 0,10,11
 790.8 993 790.8 993 659.4 993 c 0,12,13
 528 993 528 993 452.4 878 c 0,14,15
 377.7 762 377.7 762 377.7 559 c 0,0,1
942 950 m 1,16,-1
 942 1556 l 1,17,-1
 1107.6 1556 l 1,18,-1
 1107.6 1120 l 1,19,-1
 1893.3 1120 l 1,20,-1
 1893.3 952 l 1,21,-1
 1270.5 147 l 1,22,-1
 1893.3 147 l 1,23,-1
 1893.3 0 l 1,24,-1
 1107.6 0 l 1,25,-1
 1084.2 0 l 1,26,-1
 942 0 l 1,27,-1
 942 168 l 1,28,29
 889.8 68 889.8 68 810.6 20 c 0,30,31
 730.5 -29 730.5 -29 618.9 -29 c 0,32,33
 436.2 -29 436.2 -29 321 133 c 0,34,35
 206.7 295 206.7 295 206.7 559 c 0,36,37
 206.7 823 206.7 823 321 985 c 0,38,39
 436.2 1147 436.2 1147 618.9 1147 c 0,40,41
 730.5 1147 730.5 1147 810.6 1098 c 0,42,43
 889.8 1050 889.8 1050 942 950 c 1,16,-1
1107.6 973 m 1,44,-1
 1107.6 198 l 1,45,-1
 1707 973 l 1,46,-1
 1107.6 973 l 1,44,-1
EndSplineSet
EndChar
StartChar: uni02A4
Encoding: 676 676 676
Width: 2058
Flags: W
TeX: 0 0 0 0
Fore
1112.05 973 m 1,0,-1
 1112.05 0 l 1,1,-1
 946.45 0 l 1,2,-1
 946.45 168 l 1,3,4
 894.251 68.002 894.251 68.002 814.6 19.5 c 0,5,6
 734.952 -29 734.952 -29 623.35 -29 c 0,7,8
 440.65 -29 440.65 -29 325.9 133 c 0,9,10
 211.15 295 211.15 295 211.15 559 c 0,11,12
 211.15 823 211.15 823 325.9 985 c 0,13,14
 440.65 1147 440.65 1147 623.35 1147 c 0,15,16
 734.952 1147 734.952 1147 814.6 1098.5 c 0,17,18
 894.251 1050 894.251 1050 946.45 950 c 1,19,-1
 946.45 1556 l 1,20,-1
 1112.05 1556 l 1,21,-1
 1112.05 1120 l 1,22,-1
 1898.65 1120 l 1,23,-1
 1898.65 952 l 1,24,-1
 1528.75 476 l 1,25,26
 1624.15 476 1624.15 476 1739.35 420 c 0,27,28
 1827.56 377.996 1827.56 377.996 1904.95 269 c 0,29,30
 1977.85 165.002 1977.85 165.002 1977.85 27 c 0,31,32
 1977.85 -193.996 1977.85 -193.996 1841.05 -315 c 0,33,34
 1704.25 -436 1704.25 -436 1452.25 -436 c 0,35,36
 1367.65 -436 1367.65 -436 1278.55 -418 c 0,37,38
 1188.53 -398.995 1188.53 -398.995 1093.15 -362 c 1,39,-1
 1093.15 -167 l 1,40,41
 1168.74 -215.996 1168.74 -215.996 1258.75 -241 c 0,42,43
 1348.74 -266 1348.74 -266 1446.85 -266 c 0,44,45
 1617.85 -266 1617.85 -266 1706.95 -191 c 0,46,47
 1796.95 -116.001 1796.95 -116.001 1796.95 27 c 0,48,49
 1796.95 158.998 1796.95 158.998 1714.15 234 c 0,50,51
 1630.45 308 1630.45 308 1481.95 308 c 2,52,-1
 1325.35 308 l 1,53,-1
 1325.35 474 l 1,54,-1
 1712.35 973 l 1,55,-1
 1112.05 973 l 1,0,-1
382.15 559 m 0,56,57
 382.15 356.001 382.15 356.001 457.3 240.5 c 0,58,59
 532.449 125 532.449 125 663.85 125 c 0,60,61
 795.25 125 795.25 125 870.85 240.5 c 0,62,63
 946.45 356 946.45 356 946.45 559 c 0,64,65
 946.45 762 946.45 762 870.85 877.5 c 0,66,67
 795.25 993 795.25 993 663.85 993 c 0,68,69
 532.449 993 532.449 993 457.3 877.5 c 0,70,71
 382.15 761.999 382.15 761.999 382.15 559 c 0,56,57
EndSplineSet
EndChar
